0
SECTION
2
HEADER
0
ENDSEC
0
SECTION
2
ENTITIES
0
LINE
8
NFC_COIL
10
-0.6817
20
13.0071
11
-0.0426
21
13.0214
0
LINE
8
NFC_COIL
10
-0.0426
20
13.0214
11
0.5962
21
13.0043
0
LINE
8
NFC_COIL
10
0.5962
20
13.0043
11
1.2332
21
12.9559
0
LINE
8
NFC_COIL
10
1.2332
20
12.9559
11
1.8670
21
12.8763
0
LINE
8
NFC_COIL
10
1.8670
20
12.8763
11
2.4959
21
12.7657
0
LINE
8
NFC_COIL
10
2.4959
20
12.7657
11
3.1184
21
12.6245
0
LINE
8
NFC_COIL
10
3.1184
20
12.6245
11
3.7331
21
12.4529
0
LINE
8
NFC_COIL
10
3.7331
20
12.4529
11
4.3384
21
12.2514
0
LINE
8
NFC_COIL
10
4.3384
20
12.2514
11
4.9330
21
12.0205
0
LINE
8
NFC_COIL
10
4.9330
20
12.0205
11
5.5154
21
11.7608
0
LINE
8
NFC_COIL
10
5.5154
20
11.7608
11
6.0842
21
11.4729
0
LINE
8
NFC_COIL
10
6.0842
20
11.4729
11
6.6380
21
11.1575
0
LINE
8
NFC_COIL
10
6.6380
20
11.1575
11
7.1756
21
10.8154
0
LINE
8
NFC_COIL
10
7.1756
20
10.8154
11
7.6955
21
10.4475
0
LINE
8
NFC_COIL
10
7.6955
20
10.4475
11
8.1967
21
10.0546
0
LINE
8
NFC_COIL
10
8.1967
20
10.0546
11
8.6778
21
9.6377
0
LINE
8
NFC_COIL
10
8.6778
20
9.6377
11
9.1378
21
9.1978
0
LINE
8
NFC_COIL
10
9.1378
20
9.1978
11
9.5755
21
8.7359
0
LINE
8
NFC_COIL
10
9.5755
20
8.7359
11
9.9899
21
8.2533
0
LINE
8
NFC_COIL
10
9.9899
20
8.2533
11
10.3800
21
7.7511
0
LINE
8
NFC_COIL
10
10.3800
20
7.7511
11
10.7449
21
7.2305
0
LINE
8
NFC_COIL
10
10.7449
20
7.2305
11
11.0837
21
6.6927
0
LINE
8
NFC_COIL
10
11.0837
20
6.6927
11
11.3957
21
6.1392
0
LINE
8
NFC_COIL
10
11.3957
20
6.1392
11
11.6800
21
5.5711
0
LINE
8
NFC_COIL
10
11.6800
20
5.5711
11
11.9361
21
4.9899
0
LINE
8
NFC_COIL
10
11.9361
20
4.9899
11
12.1632
21
4.3970
0
LINE
8
NFC_COIL
10
12.1632
20
4.3970
11
12.3610
21
3.7939
0
LINE
8
NFC_COIL
10
12.3610
20
3.7939
11
12.5288
21
3.1819
0
LINE
8
NFC_COIL
10
12.5288
20
3.1819
11
12.6664
21
2.5626
0
LINE
8
NFC_COIL
10
12.6664
20
2.5626
11
12.7734
21
1.9375
0
LINE
8
NFC_COIL
10
12.7734
20
1.9375
11
12.8496
21
1.3080
0
LINE
8
NFC_COIL
10
12.8496
20
1.3080
11
12.8948
21
0.6758
0
LINE
8
NFC_COIL
10
12.8948
20
0.6758
11
12.9089
21
0.0422
0
LINE
8
NFC_COIL
10
12.9089
20
0.0422
11
12.8919
21
-0.5911
0
LINE
8
NFC_COIL
10
12.8919
20
-0.5911
11
12.8439
21
-1.2226
0
LINE
8
NFC_COIL
10
12.8439
20
-1.2226
11
12.7650
21
-1.8508
0
LINE
8
NFC_COIL
10
12.7650
20
-1.8508
11
12.6553
21
-2.4743
0
LINE
8
NFC_COIL
10
12.6553
20
-2.4743
11
12.5153
21
-3.0914
0
LINE
8
NFC_COIL
10
12.5153
20
-3.0914
11
12.3451
21
-3.7008
0
LINE
8
NFC_COIL
10
12.3451
20
-3.7008
11
12.1453
21
-4.3009
0
LINE
8
NFC_COIL
10
12.1453
20
-4.3009
11
11.9164
21
-4.8903
0
LINE
8
NFC_COIL
10
11.9164
20
-4.8903
11
11.6589
21
-5.4676
0
LINE
8
NFC_COIL
10
11.6589
20
-5.4676
11
11.3735
21
-6.0315
0
LINE
8
NFC_COIL
10
11.3735
20
-6.0315
11
11.0608
21
-6.5805
0
LINE
8
NFC_COIL
10
11.0608
20
-6.5805
11
10.7217
21
-7.1134
0
LINE
8
NFC_COIL
10
10.7217
20
-7.1134
11
10.3569
21
-7.6288
0
LINE
8
NFC_COIL
10
10.3569
20
-7.6288
11
9.9674
21
-8.1256
0
LINE
8
NFC_COIL
10
9.9674
20
-8.1256
11
9.5541
21
-8.6025
0
LINE
8
NFC_COIL
10
9.5541
20
-8.6025
11
9.1179
21
-9.0585
0
LINE
8
NFC_COIL
10
9.1179
20
-9.0585
11
8.6601
21
-9.4924
0
LINE
8
NFC_COIL
10
8.6601
20
-9.4924
11
8.1817
21
-9.9031
0
LINE
8
NFC_COIL
10
8.1817
20
-9.9031
11
7.6838
21
-10.2899
0
LINE
8
NFC_COIL
10
7.6838
20
-10.2899
11
7.1677
21
-10.6516
0
LINE
8
NFC_COIL
10
7.1677
20
-10.6516
11
6.6346
21
-10.9874
0
LINE
8
NFC_COIL
10
6.6346
20
-10.9874
11
6.0858
21
-11.2966
0
LINE
8
NFC_COIL
10
6.0858
20
-11.2966
11
5.5227
21
-11.5785
0
LINE
8
NFC_COIL
10
5.5227
20
-11.5785
11
4.9465
21
-11.8323
0
LINE
8
NFC_COIL
10
4.9465
20
-11.8323
11
4.3588
21
-12.0574
0
LINE
8
NFC_COIL
10
4.3588
20
-12.0574
11
3.7609
21
-12.2534
0
LINE
8
NFC_COIL
10
3.7609
20
-12.2534
11
3.1542
21
-12.4198
0
LINE
8
NFC_COIL
10
3.1542
20
-12.4198
11
2.5403
21
-12.5561
0
LINE
8
NFC_COIL
10
2.5403
20
-12.5561
11
1.9206
21
-12.6622
0
LINE
8
NFC_COIL
10
1.9206
20
-12.6622
11
1.2967
21
-12.7377
0
LINE
8
NFC_COIL
10
1.2967
20
-12.7377
11
0.6699
21
-12.7825
0
LINE
8
NFC_COIL
10
0.6699
20
-12.7825
11
0.0419
21
-12.7964
0
LINE
8
NFC_COIL
10
0.0419
20
-12.7964
11
-0.5859
21
-12.7795
0
LINE
8
NFC_COIL
10
-0.5859
20
-12.7795
11
-1.2119
21
-12.7319
0
LINE
8
NFC_COIL
10
-1.2119
20
-12.7319
11
-1.8347
21
-12.6536
0
LINE
8
NFC_COIL
10
-1.8347
20
-12.6536
11
-2.4527
21
-12.5449
0
LINE
8
NFC_COIL
10
-2.4527
20
-12.5449
11
-3.0644
21
-12.4060
0
LINE
8
NFC_COIL
10
-3.0644
20
-12.4060
11
-3.6685
21
-12.2374
0
LINE
8
NFC_COIL
10
-3.6685
20
-12.2374
11
-4.2633
21
-12.0393
0
LINE
8
NFC_COIL
10
-4.2633
20
-12.0393
11
-4.8476
21
-11.8124
0
LINE
8
NFC_COIL
10
-4.8476
20
-11.8124
11
-5.4199
21
-11.5571
0
LINE
8
NFC_COIL
10
-5.4199
20
-11.5571
11
-5.9788
21
-11.2741
0
LINE
8
NFC_COIL
10
-5.9788
20
-11.2741
11
-6.5230
21
-10.9641
0
LINE
8
NFC_COIL
10
-6.5230
20
-10.9641
11
-7.0512
21
-10.6279
0
LINE
8
NFC_COIL
10
-7.0512
20
-10.6279
11
-7.5621
21
-10.2663
0
LINE
8
NFC_COIL
10
-7.5621
20
-10.2663
11
-8.0545
21
-9.8802
0
LINE
8
NFC_COIL
10
-8.0545
20
-9.8802
11
-8.5272
21
-9.4705
0
LINE
8
NFC_COIL
10
-8.5272
20
-9.4705
11
-8.9792
21
-9.0381
0
LINE
8
NFC_COIL
10
-8.9792
20
-9.0381
11
-9.4092
21
-8.5843
0
LINE
8
NFC_COIL
10
-9.4092
20
-8.5843
11
-9.8164
21
-8.1100
0
LINE
8
NFC_COIL
10
-9.8164
20
-8.1100
11
-10.1997
21
-7.6165
0
LINE
8
NFC_COIL
10
-10.1997
20
-7.6165
11
-10.5582
21
-7.1049
0
LINE
8
NFC_COIL
10
-10.5582
20
-7.1049
11
-10.8911
21
-6.5764
0
LINE
8
NFC_COIL
10
-10.8911
20
-6.5764
11
-11.1976
21
-6.0324
0
LINE
8
NFC_COIL
10
-11.1976
20
-6.0324
11
-11.4769
21
-5.4742
0
LINE
8
NFC_COIL
10
-11.4769
20
-5.4742
11
-11.7285
21
-4.9031
0
LINE
8
NFC_COIL
10
-11.7285
20
-4.9031
11
-11.9516
21
-4.3205
0
LINE
8
NFC_COIL
10
-11.9516
20
-4.3205
11
-12.1459
21
-3.7279
0
LINE
8
NFC_COIL
10
-12.1459
20
-3.7279
11
-12.3107
21
-3.1265
0
LINE
8
NFC_COIL
10
-12.3107
20
-3.1265
11
-12.4459
21
-2.5180
0
LINE
8
NFC_COIL
10
-12.4459
20
-2.5180
11
-12.5510
21
-1.9038
0
LINE
8
NFC_COIL
10
-12.5510
20
-1.9038
11
-12.6258
21
-1.2853
0
LINE
8
NFC_COIL
10
-12.6258
20
-1.2853
11
-12.6701
21
-0.6640
0
LINE
8
NFC_COIL
10
-12.6701
20
-0.6640
11
-12.6839
21
-0.0415
0
LINE
8
NFC_COIL
10
-12.6839
20
-0.0415
11
-12.6672
21
0.5808
0
LINE
8
NFC_COIL
10
-12.6672
20
0.5808
11
-12.6199
21
1.2013
0
LINE
8
NFC_COIL
10
-12.6199
20
1.2013
11
-12.5423
21
1.8185
0
LINE
8
NFC_COIL
10
-12.5423
20
1.8185
11
-12.4345
21
2.4311
0
LINE
8
NFC_COIL
10
-12.4345
20
2.4311
11
-12.2968
21
3.0375
0
LINE
8
NFC_COIL
10
-12.2968
20
3.0375
11
-12.1296
21
3.6362
0
LINE
8
NFC_COIL
10
-12.1296
20
3.6362
11
-11.9333
21
4.2258
0
LINE
8
NFC_COIL
10
-11.9333
20
4.2258
11
-11.7083
21
4.8049
0
LINE
8
NFC_COIL
10
-11.7083
20
4.8049
11
-11.4552
21
5.3721
0
LINE
8
NFC_COIL
10
-11.4552
20
5.3721
11
-11.1747
21
5.9261
0
LINE
8
NFC_COIL
10
-11.1747
20
5.9261
11
-10.8675
21
6.4655
0
LINE
8
NFC_COIL
10
-10.8675
20
6.4655
11
-10.5342
21
6.9890
0
LINE
8
NFC_COIL
10
-10.5342
20
6.9890
11
-10.1757
21
7.4954
0
LINE
8
NFC_COIL
10
-10.1757
20
7.4954
11
-9.7930
21
7.9834
0
LINE
8
NFC_COIL
10
-9.7930
20
7.9834
11
-9.3868
21
8.4520
0
LINE
8
NFC_COIL
10
-9.3868
20
8.4520
11
-8.9583
21
8.8999
0
LINE
8
NFC_COIL
10
-8.9583
20
8.8999
11
-8.5085
21
9.3261
0
LINE
8
NFC_COIL
10
-8.5085
20
9.3261
11
-8.0384
21
9.7297
0
LINE
8
NFC_COIL
10
-8.0384
20
9.7297
11
-7.5492
21
10.1096
0
LINE
8
NFC_COIL
10
-7.5492
20
10.1096
11
-7.0421
21
10.4649
0
LINE
8
NFC_COIL
10
-7.0421
20
10.4649
11
-6.5183
21
10.7948
0
LINE
8
NFC_COIL
10
-6.5183
20
10.7948
11
-5.9791
21
11.0986
0
LINE
8
NFC_COIL
10
-5.9791
20
11.0986
11
-5.4258
21
11.3754
0
LINE
8
NFC_COIL
10
-5.4258
20
11.3754
11
-4.8597
21
11.6247
0
LINE
8
NFC_COIL
10
-4.8597
20
11.6247
11
-4.2823
21
11.8458
0
LINE
8
NFC_COIL
10
-4.2823
20
11.8458
11
-3.6948
21
12.0383
0
LINE
8
NFC_COIL
10
-3.6948
20
12.0383
11
-3.0988
21
12.2017
0
LINE
8
NFC_COIL
10
-3.0988
20
12.2017
11
-2.4957
21
12.3356
0
LINE
8
NFC_COIL
10
-2.4957
20
12.3356
11
-1.8869
21
12.4397
0
LINE
8
NFC_COIL
10
-1.8869
20
12.4397
11
-1.2739
21
12.5138
0
LINE
8
NFC_COIL
10
-1.2739
20
12.5138
11
-0.6581
21
12.5578
0
LINE
8
NFC_COIL
10
-0.6581
20
12.5578
11
-0.0411
21
12.5714
0
LINE
8
NFC_COIL
10
-0.0411
20
12.5714
11
0.5756
21
12.5548
0
LINE
8
NFC_COIL
10
0.5756
20
12.5548
11
1.1906
21
12.5079
0
LINE
8
NFC_COIL
10
1.1906
20
12.5079
11
1.8024
21
12.4309
0
LINE
8
NFC_COIL
10
1.8024
20
12.4309
11
2.4095
21
12.3241
0
LINE
8
NFC_COIL
10
2.4095
20
12.3241
11
3.0105
21
12.1876
0
LINE
8
NFC_COIL
10
3.0105
20
12.1876
11
3.6039
21
12.0218
0
LINE
8
NFC_COIL
10
3.6039
20
12.0218
11
4.1882
21
11.8272
0
LINE
8
NFC_COIL
10
4.1882
20
11.8272
11
4.7622
21
11.6042
0
LINE
8
NFC_COIL
10
4.7622
20
11.6042
11
5.3243
21
11.3534
0
LINE
8
NFC_COIL
10
5.3243
20
11.3534
11
5.8734
21
11.0753
0
LINE
8
NFC_COIL
10
5.8734
20
11.0753
11
6.4079
21
10.7708
0
LINE
8
NFC_COIL
10
6.4079
20
10.7708
11
6.9268
21
10.4405
0
LINE
8
NFC_COIL
10
6.9268
20
10.4405
11
7.4286
21
10.0852
0
LINE
8
NFC_COIL
10
7.4286
20
10.0852
11
7.9123
21
9.7058
0
LINE
8
NFC_COIL
10
7.9123
20
9.7058
11
8.3767
21
9.3032
0
LINE
8
NFC_COIL
10
8.3767
20
9.3032
11
8.8206
21
8.8785
0
LINE
8
NFC_COIL
10
8.8206
20
8.8785
11
9.2430
21
8.4326
0
LINE
8
NFC_COIL
10
9.2430
20
8.4326
11
9.6430
21
7.9667
0
LINE
8
NFC_COIL
10
9.6430
20
7.9667
11
10.0194
21
7.4819
0
LINE
8
NFC_COIL
10
10.0194
20
7.4819
11
10.3716
21
6.9793
0
LINE
8
NFC_COIL
10
10.3716
20
6.9793
11
10.6985
21
6.4601
0
LINE
8
NFC_COIL
10
10.6985
20
6.4601
11
10.9995
21
5.9257
0
LINE
8
NFC_COIL
10
10.9995
20
5.9257
11
11.2739
21
5.3774
0
LINE
8
NFC_COIL
10
11.2739
20
5.3774
11
11.5209
21
4.8163
0
LINE
8
NFC_COIL
10
11.5209
20
4.8163
11
11.7400
21
4.2440
0
LINE
8
NFC_COIL
10
11.7400
20
4.2440
11
11.9308
21
3.6618
0
LINE
8
NFC_COIL
10
11.9308
20
3.6618
11
12.0927
21
3.0711
0
LINE
8
NFC_COIL
10
12.0927
20
3.0711
11
12.2254
21
2.4734
0
LINE
8
NFC_COIL
10
12.2254
20
2.4734
11
12.3285
21
1.8700
0
LINE
8
NFC_COIL
10
12.3285
20
1.8700
11
12.4019
21
1.2625
0
LINE
8
NFC_COIL
10
12.4019
20
1.2625
11
12.4454
21
0.6522
0
LINE
8
NFC_COIL
10
12.4454
20
0.6522
11
12.4589
21
0.0408
0
LINE
8
NFC_COIL
10
12.4589
20
0.0408
11
12.4424
21
-0.5704
0
LINE
8
NFC_COIL
10
12.4424
20
-0.5704
11
12.3959
21
-1.1799
0
LINE
8
NFC_COIL
10
12.3959
20
-1.1799
11
12.3196
21
-1.7863
0
LINE
8
NFC_COIL
10
12.3196
20
-1.7863
11
12.2137
21
-2.3879
0
LINE
8
NFC_COIL
10
12.2137
20
-2.3879
11
12.0784
21
-2.9835
0
LINE
8
NFC_COIL
10
12.0784
20
-2.9835
11
11.9141
21
-3.5716
0
LINE
8
NFC_COIL
10
11.9141
20
-3.5716
11
11.7212
21
-4.1507
0
LINE
8
NFC_COIL
10
11.7212
20
-4.1507
11
11.5001
21
-4.7195
0
LINE
8
NFC_COIL
10
11.5001
20
-4.7195
11
11.2515
21
-5.2766
0
LINE
8
NFC_COIL
10
11.2515
20
-5.2766
11
10.9759
21
-5.8207
0
LINE
8
NFC_COIL
10
10.9759
20
-5.8207
11
10.6741
21
-6.3504
0
LINE
8
NFC_COIL
10
10.6741
20
-6.3504
11
10.3467
21
-6.8646
0
LINE
8
NFC_COIL
10
10.3467
20
-6.8646
11
9.9946
21
-7.3619
0
LINE
8
NFC_COIL
10
9.9946
20
-7.3619
11
9.6186
21
-7.8412
0
LINE
8
NFC_COIL
10
9.6186
20
-7.8412
11
9.2196
21
-8.3014
0
LINE
8
NFC_COIL
10
9.2196
20
-8.3014
11
8.7987
21
-8.7413
0
LINE
8
NFC_COIL
10
8.7987
20
-8.7413
11
8.3568
21
-9.1599
0
LINE
8
NFC_COIL
10
8.3568
20
-9.1599
11
7.8951
21
-9.5562
0
LINE
8
NFC_COIL
10
7.8951
20
-9.5562
11
7.4146
21
-9.9293
0
LINE
8
NFC_COIL
10
7.4146
20
-9.9293
11
6.9164
21
-10.2782
0
LINE
8
NFC_COIL
10
6.9164
20
-10.2782
11
6.4020
21
-10.6022
0
LINE
8
NFC_COIL
10
6.4020
20
-10.6022
11
5.8724
21
-10.9005
0
LINE
8
NFC_COIL
10
5.8724
20
-10.9005
11
5.3289
21
-11.1723
0
LINE
8
NFC_COIL
10
5.3289
20
-11.1723
11
4.7729
21
-11.4171
0
LINE
8
NFC_COIL
10
4.7729
20
-11.4171
11
4.2058
21
-11.6342
0
LINE
8
NFC_COIL
10
4.2058
20
-11.6342
11
3.6288
21
-11.8232
0
LINE
8
NFC_COIL
10
3.6288
20
-11.8232
11
3.0435
21
-11.9836
0
LINE
8
NFC_COIL
10
3.0435
20
-11.9836
11
2.4511
21
-12.1151
0
LINE
8
NFC_COIL
10
2.4511
20
-12.1151
11
1.8531
21
-12.2173
0
LINE
8
NFC_COIL
10
1.8531
20
-12.2173
11
1.2511
21
-12.2900
0
LINE
8
NFC_COIL
10
1.2511
20
-12.2900
11
0.6463
21
-12.3331
0
LINE
8
NFC_COIL
10
0.6463
20
-12.3331
11
0.0404
21
-12.3464
0
LINE
8
NFC_COIL
10
0.0404
20
-12.3464
11
-0.5653
21
-12.3300
0
LINE
8
NFC_COIL
10
-0.5653
20
-12.3300
11
-1.1693
21
-12.2839
0
LINE
8
NFC_COIL
10
-1.1693
20
-12.2839
11
-1.7701
21
-12.2083
0
LINE
8
NFC_COIL
10
-1.7701
20
-12.2083
11
-2.3663
21
-12.1033
0
LINE
8
NFC_COIL
10
-2.3663
20
-12.1033
11
-2.9565
21
-11.9692
0
LINE
8
NFC_COIL
10
-2.9565
20
-11.9692
11
-3.5393
21
-11.8063
0
LINE
8
NFC_COIL
10
-3.5393
20
-11.8063
11
-4.1131
21
-11.6151
0
LINE
8
NFC_COIL
10
-4.1131
20
-11.6151
11
-4.6768
21
-11.3960
0
LINE
8
NFC_COIL
10
-4.6768
20
-11.3960
11
-5.2288
21
-11.1497
0
LINE
8
NFC_COIL
10
-5.2288
20
-11.1497
11
-5.7680
21
-10.8766
0
LINE
8
NFC_COIL
10
-5.7680
20
-10.8766
11
-6.2929
21
-10.5774
0
LINE
8
NFC_COIL
10
-6.2929
20
-10.5774
11
-6.8024
21
-10.2530
0
LINE
8
NFC_COIL
10
-6.8024
20
-10.2530
11
-7.2952
21
-9.9040
0
LINE
8
NFC_COIL
10
-7.2952
20
-9.9040
11
-7.7702
21
-9.5314
0
LINE
8
NFC_COIL
10
-7.7702
20
-9.5314
11
-8.2261
21
-9.1360
0
LINE
8
NFC_COIL
10
-8.2261
20
-9.1360
11
-8.6620
21
-8.7189
0
LINE
8
NFC_COIL
10
-8.6620
20
-8.7189
11
-9.0768
21
-8.2810
0
LINE
8
NFC_COIL
10
-9.0768
20
-8.2810
11
-9.4695
21
-7.8234
0
LINE
8
NFC_COIL
10
-9.4695
20
-7.8234
11
-9.8391
21
-7.3472
0
LINE
8
NFC_COIL
10
-9.8391
20
-7.3472
11
-10.1849
21
-6.8536
0
LINE
8
NFC_COIL
10
-10.1849
20
-6.8536
11
-10.5059
21
-6.3438
0
LINE
8
NFC_COIL
10
-10.5059
20
-6.3438
11
-10.8014
21
-5.8190
0
LINE
8
NFC_COIL
10
-10.8014
20
-5.8190
11
-11.0708
21
-5.2805
0
LINE
8
NFC_COIL
10
-11.0708
20
-5.2805
11
-11.3133
21
-4.7296
0
LINE
8
NFC_COIL
10
-11.3133
20
-4.7296
11
-11.5284
21
-4.1675
0
LINE
8
NFC_COIL
10
-11.5284
20
-4.1675
11
-11.7157
21
-3.5958
0
LINE
8
NFC_COIL
10
-11.7157
20
-3.5958
11
-11.8746
21
-3.0158
0
LINE
8
NFC_COIL
10
-11.8746
20
-3.0158
11
-12.0048
21
-2.4288
0
LINE
8
NFC_COIL
10
-12.0048
20
-2.4288
11
-12.1061
21
-1.8363
0
LINE
8
NFC_COIL
10
-12.1061
20
-1.8363
11
-12.1781
21
-1.2397
0
LINE
8
NFC_COIL
10
-12.1781
20
-1.2397
11
-12.2207
21
-0.6405
0
LINE
8
NFC_COIL
10
-12.2207
20
-0.6405
11
-12.2339
21
-0.0400
0
LINE
8
NFC_COIL
10
-12.2339
20
-0.0400
11
-12.2176
21
0.5601
0
LINE
8
NFC_COIL
10
-12.2176
20
0.5601
11
-12.1719
21
1.1586
0
LINE
8
NFC_COIL
10
-12.1719
20
1.1586
11
-12.0969
21
1.7540
0
LINE
8
NFC_COIL
10
-12.0969
20
1.7540
11
-11.9929
21
2.3448
0
LINE
8
NFC_COIL
10
-11.9929
20
2.3448
11
-11.8599
21
2.9295
0
LINE
8
NFC_COIL
10
-11.8599
20
2.9295
11
-11.6985
21
3.5070
0
LINE
8
NFC_COIL
10
-11.6985
20
3.5070
11
-11.5091
21
4.0756
0
LINE
8
NFC_COIL
10
-11.5091
20
4.0756
11
-11.2920
21
4.6341
0
LINE
8
NFC_COIL
10
-11.2920
20
4.6341
11
-11.0478
21
5.1810
0
LINE
8
NFC_COIL
10
-11.0478
20
5.1810
11
-10.7772
21
5.7153
0
LINE
8
NFC_COIL
10
-10.7772
20
5.7153
11
-10.4807
21
6.2354
0
LINE
8
NFC_COIL
10
-10.4807
20
6.2354
11
-10.1592
21
6.7402
0
LINE
8
NFC_COIL
10
-10.1592
20
6.7402
11
-9.8134
21
7.2285
0
LINE
8
NFC_COIL
10
-9.8134
20
7.2285
11
-9.4442
21
7.6991
0
LINE
8
NFC_COIL
10
-9.4442
20
7.6991
11
-9.0524
21
8.1508
0
LINE
8
NFC_COIL
10
-9.0524
20
8.1508
11
-8.6391
21
8.5827
0
LINE
8
NFC_COIL
10
-8.6391
20
8.5827
11
-8.2052
21
8.9937
0
LINE
8
NFC_COIL
10
-8.2052
20
8.9937
11
-7.7518
21
9.3828
0
LINE
8
NFC_COIL
10
-7.7518
20
9.3828
11
-7.2799
21
9.7490
0
LINE
8
NFC_COIL
10
-7.2799
20
9.7490
11
-6.7908
21
10.0916
0
LINE
8
NFC_COIL
10
-6.7908
20
10.0916
11
-6.2857
21
10.4096
0
LINE
8
NFC_COIL
10
-6.2857
20
10.4096
11
-5.7657
21
10.7024
0
LINE
8
NFC_COIL
10
-5.7657
20
10.7024
11
-5.2321
21
10.9692
0
LINE
8
NFC_COIL
10
-5.2321
20
10.9692
11
-4.6862
21
11.2095
0
LINE
8
NFC_COIL
10
-4.6862
20
11.2095
11
-4.1293
21
11.4226
0
LINE
8
NFC_COIL
10
-4.1293
20
11.4226
11
-3.5628
21
11.6081
0
LINE
8
NFC_COIL
10
-3.5628
20
11.6081
11
-2.9881
21
11.7656
0
LINE
8
NFC_COIL
10
-2.9881
20
11.7656
11
-2.4065
21
11.8946
0
LINE
8
NFC_COIL
10
-2.4065
20
11.8946
11
-1.8194
21
11.9948
0
LINE
8
NFC_COIL
10
-1.8194
20
11.9948
11
-1.2283
21
12.0662
0
LINE
8
NFC_COIL
10
-1.2283
20
12.0662
11
-0.6346
21
12.1084
0
LINE
8
NFC_COIL
10
-0.6346
20
12.1084
11
-0.0397
21
12.1214
0
LINE
8
NFC_COIL
10
-0.0397
20
12.1214
11
0.5550
21
12.1053
0
LINE
8
NFC_COIL
10
0.5550
20
12.1053
11
1.1480
21
12.0599
0
LINE
8
NFC_COIL
10
1.1480
20
12.0599
11
1.7378
21
11.9856
0
LINE
8
NFC_COIL
10
1.7378
20
11.9856
11
2.3232
21
11.8824
0
LINE
8
NFC_COIL
10
2.3232
20
11.8824
11
2.9026
21
11.7507
0
LINE
8
NFC_COIL
10
2.9026
20
11.7507
11
3.4746
21
11.5908
0
LINE
8
NFC_COIL
10
3.4746
20
11.5908
11
4.0380
21
11.4030
0
LINE
8
NFC_COIL
10
4.0380
20
11.4030
11
4.5913
21
11.1879
0
LINE
8
NFC_COIL
10
4.5913
20
11.1879
11
5.1333
21
10.9459
0
LINE
8
NFC_COIL
10
5.1333
20
10.9459
11
5.6625
21
10.6778
0
LINE
8
NFC_COIL
10
5.6625
20
10.6778
11
6.1779
21
10.3840
0
LINE
8
NFC_COIL
10
6.1779
20
10.3840
11
6.6780
21
10.0655
0
LINE
8
NFC_COIL
10
6.6780
20
10.0655
11
7.1618
21
9.7228
0
LINE
8
NFC_COIL
10
7.1618
20
9.7228
11
7.6280
21
9.3570
0
LINE
8
NFC_COIL
10
7.6280
20
9.3570
11
8.0756
21
8.9688
0
LINE
8
NFC_COIL
10
8.0756
20
8.9688
11
8.5034
21
8.5593
0
LINE
8
NFC_COIL
10
8.5034
20
8.5593
11
8.9106
21
8.1294
0
LINE
8
NFC_COIL
10
8.9106
20
8.1294
11
9.2960
21
7.6801
0
LINE
8
NFC_COIL
10
9.2960
20
7.6801
11
9.6589
21
7.2126
0
LINE
8
NFC_COIL
10
9.6589
20
7.2126
11
9.9982
21
6.7280
0
LINE
8
NFC_COIL
10
9.9982
20
6.7280
11
10.3133
21
6.2275
0
LINE
8
NFC_COIL
10
10.3133
20
6.2275
11
10.6033
21
5.7123
0
LINE
8
NFC_COIL
10
10.6033
20
5.7123
11
10.8677
21
5.1836
0
LINE
8
NFC_COIL
10
10.8677
20
5.1836
11
11.1057
21
4.6428
0
LINE
8
NFC_COIL
10
11.1057
20
4.6428
11
11.3168
21
4.0911
0
LINE
8
NFC_COIL
10
11.3168
20
4.0911
11
11.5006
21
3.5298
0
LINE
8
NFC_COIL
10
11.5006
20
3.5298
11
11.6565
21
2.9604
0
LINE
8
NFC_COIL
10
11.6565
20
2.9604
11
11.7843
21
2.3842
0
LINE
8
NFC_COIL
10
11.7843
20
2.3842
11
11.8836
21
1.8025
0
LINE
8
NFC_COIL
10
11.8836
20
1.8025
11
11.9542
21
1.2169
0
LINE
8
NFC_COIL
10
11.9542
20
1.2169
11
11.9960
21
0.6287
0
LINE
8
NFC_COIL
10
11.9960
20
0.6287
11
12.0089
21
0.0393
0
LINE
8
NFC_COIL
10
12.0089
20
0.0393
11
11.9929
21
-0.5498
0
LINE
8
NFC_COIL
10
11.9929
20
-0.5498
11
11.9479
21
-1.1373
0
LINE
8
NFC_COIL
10
11.9479
20
-1.1373
11
11.8743
21
-1.7217
0
LINE
8
NFC_COIL
10
11.8743
20
-1.7217
11
11.7720
21
-2.3016
0
LINE
8
NFC_COIL
10
11.7720
20
-2.3016
11
11.6415
21
-2.8756
0
LINE
8
NFC_COIL
10
11.6415
20
-2.8756
11
11.4830
21
-3.4423
0
LINE
8
NFC_COIL
10
11.4830
20
-3.4423
11
11.2970
21
-4.0005
0
LINE
8
NFC_COIL
10
11.2970
20
-4.0005
11
11.0838
21
-4.5486
0
LINE
8
NFC_COIL
10
11.0838
20
-4.5486
11
10.8441
21
-5.0855
0
LINE
8
NFC_COIL
10
10.8441
20
-5.0855
11
10.5784
21
-5.6098
0
LINE
8
NFC_COIL
10
10.5784
20
-5.6098
11
10.2874
21
-6.1203
0
LINE
8
NFC_COIL
10
10.2874
20
-6.1203
11
9.9717
21
-6.6158
0
LINE
8
NFC_COIL
10
9.9717
20
-6.6158
11
9.6323
21
-7.0950
0
LINE
8
NFC_COIL
10
9.6323
20
-7.0950
11
9.2698
21
-7.5569
0
LINE
8
NFC_COIL
10
9.2698
20
-7.5569
11
8.8852
21
-8.0003
0
LINE
8
NFC_COIL
10
8.8852
20
-8.0003
11
8.4795
21
-8.4242
0
LINE
8
NFC_COIL
10
8.4795
20
-8.4242
11
8.0535
21
-8.8275
0
LINE
8
NFC_COIL
10
8.0535
20
-8.8275
11
7.6085
21
-9.2093
0
LINE
8
NFC_COIL
10
7.6085
20
-9.2093
11
7.1453
21
-9.5687
0
LINE
8
NFC_COIL
10
7.1453
20
-9.5687
11
6.6652
21
-9.9049
0
LINE
8
NFC_COIL
10
6.6652
20
-9.9049
11
6.1694
21
-10.2170
0
LINE
8
NFC_COIL
10
6.1694
20
-10.2170
11
5.6589
21
-10.5043
0
LINE
8
NFC_COIL
10
5.6589
20
-10.5043
11
5.1352
21
-10.7662
0
LINE
8
NFC_COIL
10
5.1352
20
-10.7662
11
4.5994
21
-11.0019
0
LINE
8
NFC_COIL
10
4.5994
20
-11.0019
11
4.0528
21
-11.2110
0
LINE
8
NFC_COIL
10
4.0528
20
-11.2110
11
3.4968
21
-11.3930
0
LINE
8
NFC_COIL
10
3.4968
20
-11.3930
11
2.9327
21
-11.5475
0
LINE
8
NFC_COIL
10
2.9327
20
-11.5475
11
2.3618
21
-11.6740
0
LINE
8
NFC_COIL
10
2.3618
20
-11.6740
11
1.7857
21
-11.7724
0
LINE
8
NFC_COIL
10
1.7857
20
-11.7724
11
1.2055
21
-11.8423
0
LINE
8
NFC_COIL
10
1.2055
20
-11.8423
11
0.6228
21
-11.8837
0
LINE
8
NFC_COIL
10
0.6228
20
-11.8837
11
0.0389
21
-11.8964
0
LINE
8
NFC_COIL
10
0.0389
20
-11.8964
11
-0.5447
21
-11.8805
0
LINE
8
NFC_COIL
10
-0.5447
20
-11.8805
11
-1.1266
21
-11.8360
0
LINE
8
NFC_COIL
10
-1.1266
20
-11.8360
11
-1.7055
21
-11.7629
0
LINE
8
NFC_COIL
10
-1.7055
20
-11.7629
11
-2.2800
21
-11.6616
0
LINE
8
NFC_COIL
10
-2.2800
20
-11.6616
11
-2.8486
21
-11.5323
0
LINE
8
NFC_COIL
10
-2.8486
20
-11.5323
11
-3.4100
21
-11.3753
0
LINE
8
NFC_COIL
10
-3.4100
20
-11.3753
11
-3.9629
21
-11.1909
0
LINE
8
NFC_COIL
10
-3.9629
20
-11.1909
11
-4.5059
21
-10.9797
0
LINE
8
NFC_COIL
10
-4.5059
20
-10.9797
11
-5.0377
21
-10.7422
0
LINE
8
NFC_COIL
10
-5.0377
20
-10.7422
11
-5.5571
21
-10.4790
0
LINE
8
NFC_COIL
10
-5.5571
20
-10.4790
11
-6.0628
21
-10.1907
0
LINE
8
NFC_COIL
10
-6.0628
20
-10.1907
11
-6.5536
21
-9.8780
0
LINE
8
NFC_COIL
10
-6.5536
20
-9.8780
11
-7.0283
21
-9.5417
0
LINE
8
NFC_COIL
10
-7.0283
20
-9.5417
11
-7.4858
21
-9.1826
0
LINE
8
NFC_COIL
10
-7.4858
20
-9.1826
11
-7.9250
21
-8.8016
0
LINE
8
NFC_COIL
10
-7.9250
20
-8.8016
11
-8.3449
21
-8.3997
0
LINE
8
NFC_COIL
10
-8.3449
20
-8.3997
11
-8.7444
21
-7.9777
0
LINE
8
NFC_COIL
10
-8.7444
20
-7.9777
11
-9.1226
21
-7.5368
0
LINE
8
NFC_COIL
10
-9.1226
20
-7.5368
11
-9.4786
21
-7.0780
0
LINE
8
NFC_COIL
10
-9.4786
20
-7.0780
11
-9.8115
21
-6.6024
0
LINE
8
NFC_COIL
10
-9.8115
20
-6.6024
11
-10.1207
21
-6.1112
0
LINE
8
NFC_COIL
10
-10.1207
20
-6.1112
11
-10.4053
21
-5.6056
0
LINE
8
NFC_COIL
10
-10.4053
20
-5.6056
11
-10.6646
21
-5.0868
0
LINE
8
NFC_COIL
10
-10.6646
20
-5.0868
11
-10.8981
21
-4.5560
0
LINE
8
NFC_COIL
10
-10.8981
20
-4.5560
11
-11.1052
21
-4.0146
0
LINE
8
NFC_COIL
10
-11.1052
20
-4.0146
11
-11.2855
21
-3.4638
0
LINE
8
NFC_COIL
10
-11.2855
20
-3.4638
11
-11.4384
21
-2.9050
0
LINE
8
NFC_COIL
10
-11.4384
20
-2.9050
11
-11.5638
21
-2.3395
0
LINE
8
NFC_COIL
10
-11.5638
20
-2.3395
11
-11.6611
21
-1.7688
0
LINE
8
NFC_COIL
10
-11.6611
20
-1.7688
11
-11.7304
21
-1.1941
0
LINE
8
NFC_COIL
10
-11.7304
20
-1.1941
11
-11.7713
21
-0.6169
0
LINE
8
NFC_COIL
10
-11.7713
20
-0.6169
11
-11.7839
21
-0.0386
0
LINE
8
NFC_COIL
10
-11.7839
20
-0.0386
11
-11.7681
21
0.5395
0
LINE
8
NFC_COIL
10
-11.7681
20
0.5395
11
-11.7240
21
1.1160
0
LINE
8
NFC_COIL
10
-11.7240
20
1.1160
11
-11.6516
21
1.6894
0
LINE
8
NFC_COIL
10
-11.6516
20
1.6894
11
-11.5512
21
2.2584
0
LINE
8
NFC_COIL
10
-11.5512
20
2.2584
11
-11.4231
21
2.8216
0
LINE
8
NFC_COIL
10
-11.4231
20
2.8216
11
-11.2675
21
3.3777
0
LINE
8
NFC_COIL
10
-11.2675
20
3.3777
11
-11.0849
21
3.9254
0
LINE
8
NFC_COIL
10
-11.0849
20
3.9254
11
-10.8757
21
4.4632
0
LINE
8
NFC_COIL
10
-10.8757
20
4.4632
11
-10.6404
21
4.9900
0
LINE
8
NFC_COIL
10
-10.6404
20
4.9900
11
-10.3796
21
5.5044
0
LINE
8
NFC_COIL
10
-10.3796
20
5.5044
11
-10.0940
21
6.0053
0
LINE
8
NFC_COIL
10
-10.0940
20
6.0053
11
-9.7842
21
6.4914
0
LINE
8
NFC_COIL
10
-9.7842
20
6.4914
11
-9.4511
21
6.9616
0
LINE
8
NFC_COIL
10
-9.4511
20
6.9616
11
-9.0954
21
7.4147
0
LINE
8
NFC_COIL
10
-9.0954
20
7.4147
11
-8.7180
21
7.8497
0
LINE
8
NFC_COIL
10
-8.7180
20
7.8497
11
-8.3199
21
8.2656
0
LINE
8
NFC_COIL
10
-8.3199
20
8.2656
11
-7.9019
21
8.6613
0
LINE
8
NFC_COIL
10
-7.9019
20
8.6613
11
-7.4651
21
9.0358
0
LINE
8
NFC_COIL
10
-7.4651
20
9.0358
11
-7.0107
21
9.3884
0
LINE
8
NFC_COIL
10
-7.0107
20
9.3884
11
-6.5396
21
9.7182
0
LINE
8
NFC_COIL
10
-6.5396
20
9.7182
11
-6.0531
21
10.0244
0
LINE
8
NFC_COIL
10
-6.0531
20
10.0244
11
-5.5522
21
10.3062
0
LINE
8
NFC_COIL
10
-5.5522
20
10.3062
11
-5.0383
21
10.5631
0
LINE
8
NFC_COIL
10
-5.0383
20
10.5631
11
-4.5126
21
10.7943
0
LINE
8
NFC_COIL
10
-4.5126
20
10.7943
11
-3.9763
21
10.9994
0
LINE
8
NFC_COIL
10
-3.9763
20
10.9994
11
-3.4308
21
11.1779
0
LINE
8
NFC_COIL
10
-3.4308
20
11.1779
11
-2.8773
21
11.3294
0
LINE
8
NFC_COIL
10
-2.8773
20
11.3294
11
-2.3172
21
11.4535
0
LINE
8
NFC_COIL
10
-2.3172
20
11.4535
11
-1.7519
21
11.5499
0
LINE
8
NFC_COIL
10
-1.7519
20
11.5499
11
-1.1827
21
11.6185
0
LINE
8
NFC_COIL
10
-1.1827
20
11.6185
11
-0.6110
21
11.6590
0
LINE
8
NFC_COIL
10
-0.6110
20
11.6590
11
-0.0382
21
11.6714
0
LINE
8
NFC_COIL
10
-0.0382
20
11.6714
11
0.5344
21
11.6557
0
LINE
8
NFC_COIL
10
0.5344
20
11.6557
11
1.1053
21
11.6120
0
LINE
8
NFC_COIL
10
1.1053
20
11.6120
11
1.6733
21
11.5403
0
LINE
8
NFC_COIL
10
1.6733
20
11.5403
11
2.2368
21
11.4408
0
LINE
8
NFC_COIL
10
2.2368
20
11.4408
11
2.7947
21
11.3139
0
LINE
8
NFC_COIL
10
2.7947
20
11.3139
11
3.3454
21
11.1597
0
LINE
8
NFC_COIL
10
3.3454
20
11.1597
11
3.8878
21
10.9788
0
LINE
8
NFC_COIL
10
3.8878
20
10.9788
11
4.4205
21
10.7716
0
LINE
8
NFC_COIL
10
4.4205
20
10.7716
11
4.9422
21
10.5385
0
LINE
8
NFC_COIL
10
4.9422
20
10.5385
11
5.4517
21
10.2802
0
LINE
8
NFC_COIL
10
5.4517
20
10.2802
11
5.9478
21
9.9973
0
LINE
8
NFC_COIL
10
5.9478
20
9.9973
11
6.4292
21
9.6905
0
LINE
8
NFC_COIL
10
6.4292
20
9.6905
11
6.8949
21
9.3605
0
LINE
8
NFC_COIL
10
6.8949
20
9.3605
11
7.3436
21
9.0082
0
LINE
8
NFC_COIL
10
7.3436
20
9.0082
11
7.7745
21
8.6344
0
LINE
8
NFC_COIL
10
7.7745
20
8.6344
11
8.1863
21
8.2400
0
LINE
8
NFC_COIL
10
8.1863
20
8.2400
11
8.5782
21
7.8261
0
LINE
8
NFC_COIL
10
8.5782
20
7.8261
11
8.9491
21
7.3935
0
LINE
8
NFC_COIL
10
8.9491
20
7.3935
11
9.2983
21
6.9434
0
LINE
8
NFC_COIL
10
9.2983
20
6.9434
11
9.6249
21
6.4768
0
LINE
8
NFC_COIL
10
9.6249
20
6.4768
11
9.9281
21
5.9949
0
LINE
8
NFC_COIL
10
9.9281
20
5.9949
11
10.2072
21
5.4989
0
LINE
8
NFC_COIL
10
10.2072
20
5.4989
11
10.4615
21
4.9899
0
LINE
8
NFC_COIL
10
10.4615
20
4.9899
11
10.6905
21
4.4692
0
LINE
8
NFC_COIL
10
10.6905
20
4.4692
11
10.8936
21
3.9381
0
LINE
8
NFC_COIL
10
10.8936
20
3.9381
11
11.0704
21
3.3978
0
LINE
8
NFC_COIL
10
11.0704
20
3.3978
11
11.2204
21
2.8496
0
LINE
8
NFC_COIL
10
11.2204
20
2.8496
11
11.3432
21
2.2949
0
LINE
8
NFC_COIL
10
11.3432
20
2.2949
11
11.4387
21
1.7350
0
LINE
8
NFC_COIL
10
11.4387
20
1.7350
11
11.5066
21
1.1713
0
LINE
8
NFC_COIL
10
11.5066
20
1.1713
11
11.5467
21
0.6051
0
LINE
8
NFC_COIL
10
11.5467
20
0.6051
11
11.5589
21
0.0378
0
LINE
8
NFC_COIL
10
11.5589
20
0.0378
11
11.5433
21
-0.5292
0
LINE
8
NFC_COIL
10
11.5433
20
-0.5292
11
11.5000
21
-1.0947
0
LINE
8
NFC_COIL
10
11.5000
20
-1.0947
11
11.4289
21
-1.6571
0
LINE
8
NFC_COIL
10
11.4289
20
-1.6571
11
11.3304
21
-2.2152
0
LINE
8
NFC_COIL
10
11.3304
20
-2.2152
11
11.2046
21
-2.7677
0
LINE
8
NFC_COIL
10
11.2046
20
-2.7677
11
11.0520
21
-3.3131
0
LINE
8
NFC_COIL
10
11.0520
20
-3.3131
11
10.8728
21
-3.8503
0
LINE
8
NFC_COIL
10
10.8728
20
-3.8503
11
10.6675
21
-4.3778
0
LINE
8
NFC_COIL
10
10.6675
20
-4.3778
11
10.4367
21
-4.8944
0
LINE
8
NFC_COIL
10
10.4367
20
-4.8944
11
10.1808
21
-5.3990
0
LINE
8
NFC_COIL
10
10.1808
20
-5.3990
11
9.9006
21
-5.8903
0
LINE
8
NFC_COIL
10
9.9006
20
-5.8903
11
9.5968
21
-6.3670
0
LINE
8
NFC_COIL
10
9.5968
20
-6.3670
11
9.2699
21
-6.8282
0
LINE
8
NFC_COIL
10
9.2699
20
-6.8282
11
8.9210
21
-7.2726
0
LINE
8
NFC_COIL
10
8.9210
20
-7.2726
11
8.5508
21
-7.6992
0
LINE
8
NFC_COIL
10
8.5508
20
-7.6992
11
8.1602
21
-8.1070
0
LINE
8
NFC_COIL
10
8.1602
20
-8.1070
11
7.7502
21
-8.4950
0
LINE
8
NFC_COIL
10
7.7502
20
-8.4950
11
7.3218
21
-8.8624
0
LINE
8
NFC_COIL
10
7.3218
20
-8.8624
11
6.8761
21
-9.2082
0
LINE
8
NFC_COIL
10
6.8761
20
-9.2082
11
6.4140
21
-9.5315
0
LINE
8
NFC_COIL
10
6.4140
20
-9.5315
11
5.9368
21
-9.8318
0
LINE
8
NFC_COIL
10
5.9368
20
-9.8318
11
5.4455
21
-10.1081
0
LINE
8
NFC_COIL
10
5.4455
20
-10.1081
11
4.9415
21
-10.3600
0
LINE
8
NFC_COIL
10
4.9415
20
-10.3600
11
4.4258
21
-10.5867
0
LINE
8
NFC_COIL
10
4.4258
20
-10.5867
11
3.8998
21
-10.7878
0
LINE
8
NFC_COIL
10
3.8998
20
-10.7878
11
3.3648
21
-10.9628
0
LINE
8
NFC_COIL
10
3.3648
20
-10.9628
11
2.8219
21
-11.1113
0
LINE
8
NFC_COIL
10
2.8219
20
-11.1113
11
2.2726
21
-11.2330
0
LINE
8
NFC_COIL
10
2.2726
20
-11.2330
11
1.7182
21
-11.3275
0
LINE
8
NFC_COIL
10
1.7182
20
-11.3275
11
1.1599
21
-11.3946
0
LINE
8
NFC_COIL
10
1.1599
20
-11.3946
11
0.5992
21
-11.4343
0
LINE
8
NFC_COIL
10
0.5992
20
-11.4343
11
0.0375
21
-11.4464
0
LINE
8
NFC_COIL
10
0.0375
20
-11.4464
11
-0.5241
21
-11.4310
0
LINE
8
NFC_COIL
10
-0.5241
20
-11.4310
11
-1.0840
21
-11.3880
0
LINE
8
NFC_COIL
10
-1.0840
20
-11.3880
11
-1.6410
21
-11.3176
0
LINE
8
NFC_COIL
10
-1.6410
20
-11.3176
11
-2.1936
21
-11.2200
0
LINE
8
NFC_COIL
10
-2.1936
20
-11.2200
11
-2.7407
21
-11.0954
0
LINE
8
NFC_COIL
10
-2.7407
20
-11.0954
11
-3.2808
21
-10.9442
0
LINE
8
NFC_COIL
10
-3.2808
20
-10.9442
11
-3.8127
21
-10.7667
0
LINE
8
NFC_COIL
10
-3.8127
20
-10.7667
11
-4.3351
21
-10.5634
0
LINE
8
NFC_COIL
10
-4.3351
20
-10.5634
11
-4.8467
21
-10.3348
0
LINE
8
NFC_COIL
10
-4.8467
20
-10.3348
11
-5.3463
21
-10.0814
0
LINE
8
NFC_COIL
10
-5.3463
20
-10.0814
11
-5.8327
21
-9.8039
0
LINE
8
NFC_COIL
10
-5.8327
20
-9.8039
11
-6.3048
21
-9.5030
0
LINE
8
NFC_COIL
10
-6.3048
20
-9.5030
11
-6.7614
21
-9.1794
0
LINE
8
NFC_COIL
10
-6.7614
20
-9.1794
11
-7.2015
21
-8.8338
0
LINE
8
NFC_COIL
10
-7.2015
20
-8.8338
11
-7.6239
21
-8.4672
0
LINE
8
NFC_COIL
10
-7.6239
20
-8.4672
11
-8.0277
21
-8.0804
0
LINE
8
NFC_COIL
10
-8.0277
20
-8.0804
11
-8.4119
21
-7.6744
0
LINE
8
NFC_COIL
10
-8.4119
20
-7.6744
11
-8.7757
21
-7.2502
0
LINE
8
NFC_COIL
10
-8.7757
20
-7.2502
11
-9.1180
21
-6.8087
0
LINE
8
NFC_COIL
10
-9.1180
20
-6.8087
11
-9.4382
21
-6.3512
0
LINE
8
NFC_COIL
10
-9.4382
20
-6.3512
11
-9.7355
21
-5.8786
0
LINE
8
NFC_COIL
10
-9.7355
20
-5.8786
11
-10.0091
21
-5.3922
0
LINE
8
NFC_COIL
10
-10.0091
20
-5.3922
11
-10.2584
21
-4.8930
0
LINE
8
NFC_COIL
10
-10.2584
20
-4.8930
11
-10.4829
21
-4.3824
0
LINE
8
NFC_COIL
10
-10.4829
20
-4.3824
11
-10.6820
21
-3.8616
0
LINE
8
NFC_COIL
10
-10.6820
20
-3.8616
11
-10.8553
21
-3.3317
0
LINE
8
NFC_COIL
10
-10.8553
20
-3.3317
11
-11.0023
21
-2.7942
0
LINE
8
NFC_COIL
10
-11.0023
20
-2.7942
11
-11.1227
21
-2.2503
0
LINE
8
NFC_COIL
10
-11.1227
20
-2.2503
11
-11.2162
21
-1.7013
0
LINE
8
NFC_COIL
10
-11.2162
20
-1.7013
11
-11.2827
21
-1.1485
0
LINE
8
NFC_COIL
10
-11.2827
20
-1.1485
11
-11.3220
21
-0.5934
0
LINE
8
NFC_COIL
10
-11.3220
20
-0.5934
11
-11.3339
21
-0.0371
0
LINE
8
NFC_COIL
10
-11.3339
20
-0.0371
11
-11.3186
21
0.5189
0
LINE
8
NFC_COIL
10
-11.3186
20
0.5189
11
-11.2760
21
1.0733
0
LINE
8
NFC_COIL
10
-11.2760
20
1.0733
11
-11.2063
21
1.6248
0
LINE
8
NFC_COIL
10
-11.2063
20
1.6248
11
-11.1096
21
2.1721
0
LINE
8
NFC_COIL
10
-11.1096
20
2.1721
11
-10.9862
21
2.7137
0
LINE
8
NFC_COIL
10
-10.9862
20
2.7137
11
-10.8365
21
3.2485
0
LINE
8
NFC_COIL
10
-10.8365
20
3.2485
11
-10.6607
21
3.7751
0
LINE
8
NFC_COIL
10
-10.6607
20
3.7751
11
-10.4594
21
4.2924
0
LINE
8
NFC_COIL
10
-10.4594
20
4.2924
11
-10.2330
21
4.7989
0
LINE
8
NFC_COIL
10
-10.2330
20
4.7989
11
-9.9821
21
5.2936
0
LINE
8
NFC_COIL
10
-9.9821
20
5.2936
11
-9.7073
21
5.7752
0
LINE
8
NFC_COIL
10
-9.7073
20
5.7752
11
-9.4093
21
6.2426
0
LINE
8
NFC_COIL
10
-9.4093
20
6.2426
11
-9.0888
21
6.6947
0
LINE
8
NFC_COIL
10
-9.0888
20
6.6947
11
-8.7466
21
7.1304
0
LINE
8
NFC_COIL
10
-8.7466
20
7.1304
11
-8.3836
21
7.5486
0
LINE
8
NFC_COIL
10
-8.3836
20
7.5486
11
-8.0006
21
7.9484
0
LINE
8
NFC_COIL
10
-8.0006
20
7.9484
11
-7.5986
21
8.3288
0
LINE
8
NFC_COIL
10
-7.5986
20
8.3288
11
-7.1785
21
8.6889
0
LINE
8
NFC_COIL
10
-7.1785
20
8.6889
11
-6.7414
21
9.0279
0
LINE
8
NFC_COIL
10
-6.7414
20
9.0279
11
-6.2884
21
9.3449
0
LINE
8
NFC_COIL
10
-6.2884
20
9.3449
11
-5.8205
21
9.6392
0
LINE
8
NFC_COIL
10
-5.8205
20
9.6392
11
-5.3388
21
9.9101
0
LINE
8
NFC_COIL
10
-5.3388
20
9.9101
11
-4.8446
21
10.1569
0
LINE
8
NFC_COIL
10
-4.8446
20
10.1569
11
-4.3390
21
10.3791
0
LINE
8
NFC_COIL
10
-4.3390
20
10.3791
11
-3.8233
21
10.5762
0
LINE
8
NFC_COIL
10
-3.8233
20
10.5762
11
-3.2987
21
10.7477
0
LINE
8
NFC_COIL
10
-3.2987
20
10.7477
11
-2.7665
21
10.8932
0
LINE
8
NFC_COIL
10
-2.7665
20
10.8932
11
-2.2280
21
11.0124
0
LINE
8
NFC_COIL
10
-2.2280
20
11.0124
11
-1.6844
21
11.1050
0
LINE
8
NFC_COIL
10
-1.6844
20
11.1050
11
-1.1371
21
11.1708
0
LINE
8
NFC_COIL
10
-1.1371
20
11.1708
11
-0.5875
21
11.2096
0
LINE
8
NFC_COIL
10
-0.5875
20
11.2096
11
-0.0367
21
11.2214
0
LINE
8
NFC_COIL
10
-0.0367
20
11.2214
11
0.5138
21
11.2062
0
LINE
8
NFC_COIL
10
0.5138
20
11.2062
11
1.0627
21
11.1640
0
LINE
8
NFC_COIL
10
1.0627
20
11.1640
11
1.6087
21
11.0949
0
LINE
8
NFC_COIL
10
1.6087
20
11.0949
11
2.1505
21
10.9992
0
LINE
8
NFC_COIL
10
2.1505
20
10.9992
11
2.6867
21
10.8770
0
LINE
8
NFC_COIL
10
2.6867
20
10.8770
11
3.2162
21
10.7287
0
LINE
8
NFC_COIL
10
3.2162
20
10.7287
11
3.7376
21
10.5546
0
LINE
8
NFC_COIL
10
3.7376
20
10.5546
11
4.2496
21
10.3553
0
LINE
8
NFC_COIL
10
4.2496
20
10.3553
11
4.7511
21
10.1311
0
LINE
8
NFC_COIL
10
4.7511
20
10.1311
11
5.2409
21
9.8827
0
LINE
8
NFC_COIL
10
5.2409
20
9.8827
11
5.7177
21
9.6106
0
LINE
8
NFC_COIL
10
5.7177
20
9.6106
11
6.1804
21
9.3155
0
LINE
8
NFC_COIL
10
6.1804
20
9.3155
11
6.6280
21
8.9982
0
LINE
8
NFC_COIL
10
6.6280
20
8.9982
11
7.0593
21
8.6594
0
LINE
8
NFC_COIL
10
7.0593
20
8.6594
11
7.4734
21
8.3000
0
LINE
8
NFC_COIL
10
7.4734
20
8.3000
11
7.8691
21
7.9208
0
LINE
8
NFC_COIL
10
7.8691
20
7.9208
11
8.2457
21
7.5228
0
LINE
8
NFC_COIL
10
8.2457
20
7.5228
11
8.6022
21
7.1069
0
LINE
8
NFC_COIL
10
8.6022
20
7.1069
11
8.9377
21
6.6741
0
LINE
8
NFC_COIL
10
8.9377
20
6.6741
11
9.2515
21
6.2256
0
LINE
8
NFC_COIL
10
9.2515
20
6.2256
11
9.5429
21
5.7623
0
LINE
8
NFC_COIL
10
9.5429
20
5.7623
11
9.8110
21
5.2854
0
LINE
8
NFC_COIL
10
9.8110
20
5.2854
11
10.0554
21
4.7962
0
LINE
8
NFC_COIL
10
10.0554
20
4.7962
11
10.2753
21
4.2956
0
LINE
8
NFC_COIL
10
10.2753
20
4.2956
11
10.4704
21
3.7851
0
LINE
8
NFC_COIL
10
10.4704
20
3.7851
11
10.6402
21
3.2657
0
LINE
8
NFC_COIL
10
10.6402
20
3.2657
11
10.7842
21
2.7388
0
LINE
8
NFC_COIL
10
10.7842
20
2.7388
11
10.9022
21
2.2057
0
LINE
8
NFC_COIL
10
10.9022
20
2.2057
11
10.9938
21
1.6676
0
LINE
8
NFC_COIL
10
10.9938
20
1.6676
11
11.0589
21
1.1258
0
LINE
8
NFC_COIL
10
11.0589
20
1.1258
11
11.0973
21
0.5816
0
LINE
8
NFC_COIL
10
11.0973
20
0.5816
11
11.1089
21
0.0364
0
LINE
8
NFC_COIL
10
11.1089
20
0.0364
11
11.0938
21
-0.5086
0
LINE
8
NFC_COIL
10
11.0938
20
-0.5086
11
11.0520
21
-1.0520
0
LINE
8
NFC_COIL
10
11.0520
20
-1.0520
11
10.9836
21
-1.5925
0
LINE
8
NFC_COIL
10
10.9836
20
-1.5925
11
10.8888
21
-2.1289
0
LINE
8
NFC_COIL
10
10.8888
20
-2.1289
11
10.7678
21
-2.6598
0
LINE
8
NFC_COIL
10
10.7678
20
-2.6598
11
10.6209
21
-3.1839
0
LINE
8
NFC_COIL
10
10.6209
20
-3.1839
11
10.4486
21
-3.7000
0
LINE
8
NFC_COIL
10
10.4486
20
-3.7000
11
10.2512
21
-4.2069
0
LINE
8
NFC_COIL
10
10.2512
20
-4.2069
11
10.0292
21
-4.7034
0
LINE
8
NFC_COIL
10
10.0292
20
-4.7034
11
9.7833
21
-5.1882
0
LINE
8
NFC_COIL
10
9.7833
20
-5.1882
11
9.5139
21
-5.6602
0
LINE
8
NFC_COIL
10
9.5139
20
-5.6602
11
9.2218
21
-6.1182
0
LINE
8
NFC_COIL
10
9.2218
20
-6.1182
11
8.9076
21
-6.5613
0
LINE
8
NFC_COIL
10
8.9076
20
-6.5613
11
8.5722
21
-6.9882
0
LINE
8
NFC_COIL
10
8.5722
20
-6.9882
11
8.2164
21
-7.3981
0
LINE
8
NFC_COIL
10
8.2164
20
-7.3981
11
7.8410
21
-7.7898
0
LINE
8
NFC_COIL
10
7.8410
20
-7.7898
11
7.4470
21
-8.1626
0
LINE
8
NFC_COIL
10
7.4470
20
-8.1626
11
7.0352
21
-8.5155
0
LINE
8
NFC_COIL
10
7.0352
20
-8.5155
11
6.6068
21
-8.8476
0
LINE
8
NFC_COIL
10
6.6068
20
-8.8476
11
6.1628
21
-9.1582
0
LINE
8
NFC_COIL
10
6.1628
20
-9.1582
11
5.7041
21
-9.4466
0
LINE
8
NFC_COIL
10
5.7041
20
-9.4466
11
5.2321
21
-9.7120
0
LINE
8
NFC_COIL
10
5.2321
20
-9.7120
11
4.7477
21
-9.9538
0
LINE
8
NFC_COIL
10
4.7477
20
-9.9538
11
4.2522
21
-10.1716
0
LINE
8
NFC_COIL
10
4.2522
20
-10.1716
11
3.7468
21
-10.3646
0
LINE
8
NFC_COIL
10
3.7468
20
-10.3646
11
3.2327
21
-10.5326
0
LINE
8
NFC_COIL
10
3.2327
20
-10.5326
11
2.7111
21
-10.6752
0
LINE
8
NFC_COIL
10
2.7111
20
-10.6752
11
2.1834
21
-10.7919
0
LINE
8
NFC_COIL
10
2.1834
20
-10.7919
11
1.6507
21
-10.8826
0
LINE
8
NFC_COIL
10
1.6507
20
-10.8826
11
1.1144
21
-10.9469
0
LINE
8
NFC_COIL
10
1.1144
20
-10.9469
11
0.5757
21
-10.9849
0
LINE
8
NFC_COIL
10
0.5757
20
-10.9849
11
0.0360
21
-10.9964
0
LINE
8
NFC_COIL
10
0.0360
20
-10.9964
11
-0.5035
21
-10.9814
0
LINE
8
NFC_COIL
10
-0.5035
20
-10.9814
11
-1.0414
21
-10.9400
0
LINE
8
NFC_COIL
10
-1.0414
20
-10.9400
11
-1.5764
21
-10.8722
0
LINE
8
NFC_COIL
10
-1.5764
20
-10.8722
11
-2.1073
21
-10.7784
0
LINE
8
NFC_COIL
10
-2.1073
20
-10.7784
11
-2.6328
21
-10.6586
0
LINE
8
NFC_COIL
10
-2.6328
20
-10.6586
11
-3.1516
21
-10.5132
0
LINE
8
NFC_COIL
10
-3.1516
20
-10.5132
11
-3.6625
21
-10.3425
0
LINE
8
NFC_COIL
10
-3.6625
20
-10.3425
11
-4.1642
21
-10.1471
0
LINE
8
NFC_COIL
10
-4.1642
20
-10.1471
11
-4.6556
21
-9.9274
0
LINE
8
NFC_COIL
10
-4.6556
20
-9.9274
11
-5.1355
21
-9.6839
0
LINE
8
NFC_COIL
10
-5.1355
20
-9.6839
11
-5.6027
21
-9.4172
0
LINE
8
NFC_COIL
10
-5.6027
20
-9.4172
11
-6.0560
21
-9.1280
0
LINE
8
NFC_COIL
10
-6.0560
20
-9.1280
11
-6.4946
21
-8.8171
0
LINE
8
NFC_COIL
10
-6.4946
20
-8.8171
11
-6.9171
21
-8.4850
0
LINE
8
NFC_COIL
10
-6.9171
20
-8.4850
11
-7.3228
21
-8.1328
0
LINE
8
NFC_COIL
10
-7.3228
20
-8.1328
11
-7.7106
21
-7.7612
0
LINE
8
NFC_COIL
10
-7.7106
20
-7.7612
11
-8.0795
21
-7.3711
0
LINE
8
NFC_COIL
10
-8.0795
20
-7.3711
11
-8.4287
21
-6.9636
0
LINE
8
NFC_COIL
10
-8.4287
20
-6.9636
11
-8.7575
21
-6.5395
0
LINE
8
NFC_COIL
10
-8.7575
20
-6.5395
11
-9.0649
21
-6.1000
0
LINE
8
NFC_COIL
10
-9.0649
20
-6.1000
11
-9.3502
21
-5.6460
0
LINE
8
NFC_COIL
10
-9.3502
20
-5.6460
11
-9.6129
21
-5.1787
0
LINE
8
NFC_COIL
10
-9.6129
20
-5.1787
11
-9.8523
21
-4.6993
0
LINE
8
NFC_COIL
10
-9.8523
20
-4.6993
11
-10.0678
21
-4.2089
0
LINE
8
NFC_COIL
10
-10.0678
20
-4.2089
11
-10.2588
21
-3.7086
0
LINE
8
NFC_COIL
10
-10.2588
20
-3.7086
11
-10.4251
21
-3.1997
0
LINE
8
NFC_COIL
10
-10.4251
20
-3.1997
11
-10.5661
21
-2.6835
0
LINE
8
NFC_COIL
10
-10.5661
20
-2.6835
11
-10.6816
21
-2.1611
0
LINE
8
NFC_COIL
10
-10.6816
20
-2.1611
11
-10.7713
21
-1.6338
0
LINE
8
NFC_COIL
10
-10.7713
20
-1.6338
11
-10.8350
21
-1.1030
0
LINE
8
NFC_COIL
10
-10.8350
20
-1.1030
11
-10.8726
21
-0.5698
0
LINE
8
NFC_COIL
10
-10.8726
20
-0.5698
11
-10.8839
21
-0.0356
0
LINE
8
NFC_COIL
10
-10.8839
20
-0.0356
11
-10.8691
21
0.4983
0
LINE
8
NFC_COIL
10
-10.8691
20
0.4983
11
-10.8280
21
1.0307
0
LINE
8
NFC_COIL
10
-10.8280
20
1.0307
11
-10.7609
21
1.5603
0
LINE
8
NFC_COIL
10
-10.7609
20
1.5603
11
-10.6679
21
2.0857
0
LINE
8
NFC_COIL
10
-10.6679
20
2.0857
11
-10.5493
21
2.6058
0
LINE
8
NFC_COIL
10
-10.5493
20
2.6058
11
-10.4054
21
3.1193
0
LINE
8
NFC_COIL
10
-10.4054
20
3.1193
11
-10.2365
21
3.6249
0
LINE
8
NFC_COIL
10
-10.2365
20
3.6249
11
-10.0430
21
4.1215
0
LINE
8
NFC_COIL
10
-10.0430
20
4.1215
11
-9.8255
21
4.6078
0
LINE
8
NFC_COIL
10
-9.8255
20
4.6078
11
-9.5845
21
5.0828
0
LINE
8
NFC_COIL
10
-9.5845
20
5.0828
11
-9.3205
21
5.5451
0
LINE
8
NFC_COIL
10
-9.3205
20
5.5451
11
-9.0343
21
5.9938
0
LINE
8
NFC_COIL
10
-9.0343
20
5.9938
11
-8.7265
21
6.4278
0
LINE
8
NFC_COIL
10
-8.7265
20
6.4278
11
-8.3978
21
6.8461
0
LINE
8
NFC_COIL
10
-8.3978
20
6.8461
11
-8.0492
21
7.2475
0
LINE
8
NFC_COIL
10
-8.0492
20
7.2475
11
-7.6814
21
7.6313
0
LINE
8
NFC_COIL
10
-7.6814
20
7.6313
11
-7.2953
21
7.9964
0
LINE
8
NFC_COIL
10
-7.2953
20
7.9964
11
-6.8919
21
8.3420
0
LINE
8
NFC_COIL
10
-6.8919
20
8.3420
11
-6.4722
21
8.6673
0
LINE
8
NFC_COIL
10
-6.4722
20
8.6673
11
-6.0371
21
8.9715
0
LINE
8
NFC_COIL
10
-6.0371
20
8.9715
11
-5.5878
21
9.2539
0
LINE
8
NFC_COIL
10
-5.5878
20
9.2539
11
-5.1254
21
9.5139
0
LINE
8
NFC_COIL
10
-5.1254
20
9.5139
11
-4.6509
21
9.7507
0
LINE
8
NFC_COIL
10
-4.6509
20
9.7507
11
-4.1655
21
9.9640
0
LINE
8
NFC_COIL
10
-4.1655
20
9.9640
11
-3.6703
21
10.1530
0
LINE
8
NFC_COIL
10
-3.6703
20
10.1530
11
-3.1667
21
10.3175
0
LINE
8
NFC_COIL
10
-3.1667
20
10.3175
11
-2.6558
21
10.4571
0
LINE
8
NFC_COIL
10
-2.6558
20
10.4571
11
-2.1388
21
10.5714
0
LINE
8
NFC_COIL
10
-2.1388
20
10.5714
11
-1.6169
21
10.6601
0
LINE
8
NFC_COIL
10
-1.6169
20
10.6601
11
-1.0916
21
10.7231
0
LINE
8
NFC_COIL
10
-1.0916
20
10.7231
11
-0.5639
21
10.7602
0
LINE
8
NFC_COIL
10
-0.5639
20
10.7602
11
-0.0352
21
10.7714
0
LINE
8
NFC_COIL
10
-0.0352
20
10.7714
11
0.4932
21
10.7567
0
LINE
8
NFC_COIL
10
0.4932
20
10.7567
11
1.0200
21
10.7160
0
LINE
8
NFC_COIL
10
1.0200
20
10.7160
11
1.5441
21
10.6496
0
LINE
8
NFC_COIL
10
1.5441
20
10.6496
11
2.0641
21
10.5575
0
LINE
8
NFC_COIL
10
2.0641
20
10.5575
11
2.5788
21
10.4401
0
LINE
8
NFC_COIL
10
2.5788
20
10.4401
11
3.0870
21
10.2976
0
LINE
8
NFC_COIL
10
3.0870
20
10.2976
11
3.5874
21
10.1305
0
LINE
8
NFC_COIL
10
3.5874
20
10.1305
11
4.0788
21
9.9390
0
LINE
8
NFC_COIL
10
4.0788
20
9.9390
11
4.5601
21
9.7237
0
LINE
8
NFC_COIL
10
4.5601
20
9.7237
11
5.0301
21
9.4851
0
LINE
8
NFC_COIL
10
5.0301
20
9.4851
11
5.4876
21
9.2238
0
LINE
8
NFC_COIL
10
5.4876
20
9.2238
11
5.9317
21
8.9405
0
LINE
8
NFC_COIL
10
5.9317
20
8.9405
11
6.3611
21
8.6359
0
LINE
8
NFC_COIL
10
6.3611
20
8.6359
11
6.7750
21
8.3106
0
LINE
8
NFC_COIL
10
6.7750
20
8.3106
11
7.1722
21
7.9656
0
LINE
8
NFC_COIL
10
7.1722
20
7.9656
11
7.5520
21
7.6016
0
LINE
8
NFC_COIL
10
7.5520
20
7.6016
11
7.9133
21
7.2195
0
LINE
8
NFC_COIL
10
7.9133
20
7.2195
11
8.2553
21
6.8203
0
LINE
8
NFC_COIL
10
8.2553
20
6.8203
11
8.5772
21
6.4049
0
LINE
8
NFC_COIL
10
8.5772
20
6.4049
11
8.8782
21
5.9743
0
LINE
8
NFC_COIL
10
8.8782
20
5.9743
11
9.1576
21
5.5297
0
LINE
8
NFC_COIL
10
9.1576
20
5.5297
11
9.4148
21
5.0720
0
LINE
8
NFC_COIL
10
9.4148
20
5.0720
11
9.6492
21
4.6024
0
LINE
8
NFC_COIL
10
9.6492
20
4.6024
11
9.8602
21
4.1221
0
LINE
8
NFC_COIL
10
9.8602
20
4.1221
11
10.0472
21
3.6321
0
LINE
8
NFC_COIL
10
10.0472
20
3.6321
11
10.2100
21
3.1337
0
LINE
8
NFC_COIL
10
10.2100
20
3.1337
11
10.3481
21
2.6281
0
LINE
8
NFC_COIL
10
10.3481
20
2.6281
11
10.4611
21
2.1165
0
LINE
8
NFC_COIL
10
10.4611
20
2.1165
11
10.5489
21
1.6001
0
LINE
8
NFC_COIL
10
10.5489
20
1.6001
11
10.6112
21
1.0802
0
LINE
8
NFC_COIL
10
10.6112
20
1.0802
11
10.6479
21
0.5580
0
LINE
8
NFC_COIL
10
10.6479
20
0.5580
11
10.6589
21
0.0349
0
LINE
8
NFC_COIL
10
10.6589
20
0.0349
11
10.6443
21
-0.4880
0
LINE
8
NFC_COIL
10
10.6443
20
-0.4880
11
10.6040
21
-1.0094
0
LINE
8
NFC_COIL
10
10.6040
20
-1.0094
11
10.5382
21
-1.5280
0
LINE
8
NFC_COIL
10
10.5382
20
-1.5280
11
10.4471
21
-2.0425
0
LINE
8
NFC_COIL
10
10.4471
20
-2.0425
11
10.3309
21
-2.5519
0
LINE
8
NFC_COIL
10
10.3309
20
-2.5519
11
10.1899
21
-3.0547
0
LINE
8
NFC_COIL
10
10.1899
20
-3.0547
11
10.0244
21
-3.5498
0
LINE
8
NFC_COIL
10
10.0244
20
-3.5498
11
9.8349
21
-4.0361
0
LINE
8
NFC_COIL
10
9.8349
20
-4.0361
11
9.6218
21
-4.5123
0
LINE
8
NFC_COIL
10
9.6218
20
-4.5123
11
9.3857
21
-4.9773
0
LINE
8
NFC_COIL
10
9.3857
20
-4.9773
11
9.1272
21
-5.4301
0
LINE
8
NFC_COIL
10
9.1272
20
-5.4301
11
8.8468
21
-5.8695
0
LINE
8
NFC_COIL
10
8.8468
20
-5.8695
11
8.5453
21
-6.2944
0
LINE
8
NFC_COIL
10
8.5453
20
-6.2944
11
8.2234
21
-6.7039
0
LINE
8
NFC_COIL
10
8.2234
20
-6.7039
11
7.8820
21
-7.0970
0
LINE
8
NFC_COIL
10
7.8820
20
-7.0970
11
7.5218
21
-7.4727
0
LINE
8
NFC_COIL
10
7.5218
20
-7.4727
11
7.1437
21
-7.8302
0
LINE
8
NFC_COIL
10
7.1437
20
-7.8302
11
6.7486
21
-8.1685
0
LINE
8
NFC_COIL
10
6.7486
20
-8.1685
11
6.3376
21
-8.4870
0
LINE
8
NFC_COIL
10
6.3376
20
-8.4870
11
5.9115
21
-8.7849
0
LINE
8
NFC_COIL
10
5.9115
20
-8.7849
11
5.4715
21
-9.0613
0
LINE
8
NFC_COIL
10
5.4715
20
-9.0613
11
5.0187
21
-9.3158
0
LINE
8
NFC_COIL
10
5.0187
20
-9.3158
11
4.5540
21
-9.5477
0
LINE
8
NFC_COIL
10
4.5540
20
-9.5477
11
4.0787
21
-9.7564
0
LINE
8
NFC_COIL
10
4.0787
20
-9.7564
11
3.5938
21
-9.9414
0
LINE
8
NFC_COIL
10
3.5938
20
-9.9414
11
3.1007
21
-10.1024
0
LINE
8
NFC_COIL
10
3.1007
20
-10.1024
11
2.6004
21
-10.2390
0
LINE
8
NFC_COIL
10
2.6004
20
-10.2390
11
2.0941
21
-10.3508
0
LINE
8
NFC_COIL
10
2.0941
20
-10.3508
11
1.5832
21
-10.4376
0
LINE
8
NFC_COIL
10
1.5832
20
-10.4376
11
1.0688
21
-10.4993
0
LINE
8
NFC_COIL
10
1.0688
20
-10.4993
11
0.5521
21
-10.5355
0
LINE
8
NFC_COIL
10
0.5521
20
-10.5355
11
0.0345
21
-10.5464
0
LINE
8
NFC_COIL
10
0.0345
20
-10.5464
11
-0.4829
21
-10.5319
0
LINE
8
NFC_COIL
10
-0.4829
20
-10.5319
11
-0.9987
21
-10.4920
0
LINE
8
NFC_COIL
10
-0.9987
20
-10.4920
11
-1.5118
21
-10.4269
0
LINE
8
NFC_COIL
10
-1.5118
20
-10.4269
11
-2.0210
21
-10.3367
0
LINE
8
NFC_COIL
10
-2.0210
20
-10.3367
11
-2.5249
21
-10.2217
0
LINE
8
NFC_COIL
10
-2.5249
20
-10.2217
11
-3.0224
21
-10.0821
0
LINE
8
NFC_COIL
10
-3.0224
20
-10.0821
11
-3.5123
21
-9.9184
0
LINE
8
NFC_COIL
10
-3.5123
20
-9.9184
11
-3.9934
21
-9.7308
0
LINE
8
NFC_COIL
10
-3.9934
20
-9.7308
11
-4.4645
21
-9.5200
0
LINE
8
NFC_COIL
10
-4.4645
20
-9.5200
11
-4.9246
21
-9.2863
0
LINE
8
NFC_COIL
10
-4.9246
20
-9.2863
11
-5.3726
21
-9.0305
0
LINE
8
NFC_COIL
10
-5.3726
20
-9.0305
11
-5.8073
21
-8.7531
0
LINE
8
NFC_COIL
10
-5.8073
20
-8.7531
11
-6.2277
21
-8.4547
0
LINE
8
NFC_COIL
10
-6.2277
20
-8.4547
11
-6.6328
21
-8.1362
0
LINE
8
NFC_COIL
10
-6.6328
20
-8.1362
11
-7.0217
21
-7.7984
0
LINE
8
NFC_COIL
10
-7.0217
20
-7.7984
11
-7.3934
21
-7.4420
0
LINE
8
NFC_COIL
10
-7.3934
20
-7.4420
11
-7.7471
21
-7.0678
0
LINE
8
NFC_COIL
10
-7.7471
20
-7.0678
11
-8.0818
21
-6.6770
0
LINE
8
NFC_COIL
10
-8.0818
20
-6.6770
11
-8.3969
21
-6.2703
0
LINE
8
NFC_COIL
10
-8.3969
20
-6.2703
11
-8.6915
21
-5.8487
0
LINE
8
NFC_COIL
10
-8.6915
20
-5.8487
11
-8.9650
21
-5.4134
0
LINE
8
NFC_COIL
10
-8.9650
20
-5.4134
11
-9.2168
21
-4.9653
0
LINE
8
NFC_COIL
10
-9.2168
20
-4.9653
11
-9.4461
21
-4.5056
0
LINE
8
NFC_COIL
10
-9.4461
20
-4.5056
11
-9.6526
21
-4.0353
0
LINE
8
NFC_COIL
10
-9.6526
20
-4.0353
11
-9.8356
21
-3.5556
0
LINE
8
NFC_COIL
10
-9.8356
20
-3.5556
11
-9.9949
21
-3.0677
0
LINE
8
NFC_COIL
10
-9.9949
20
-3.0677
11
-10.1300
21
-2.5727
0
LINE
8
NFC_COIL
10
-10.1300
20
-2.5727
11
-10.2406
21
-2.0718
0
LINE
8
NFC_COIL
10
-10.2406
20
-2.0718
11
-10.3264
21
-1.5663
0
LINE
8
NFC_COIL
10
-10.3264
20
-1.5663
11
-10.3873
21
-1.0574
0
LINE
8
NFC_COIL
10
-10.3873
20
-1.0574
11
-10.4232
21
-0.5463
0
LINE
8
NFC_COIL
10
-10.4232
20
-0.5463
11
-10.4339
21
-0.0341
0
LINE
8
NFC_COIL
10
-10.4339
20
-0.0341
11
-10.4195
21
0.4777
0
LINE
8
NFC_COIL
10
-10.4195
20
0.4777
11
-10.3800
21
0.9881
0
LINE
8
NFC_COIL
10
-10.3800
20
0.9881
11
-10.3156
21
1.4957
0
LINE
8
NFC_COIL
10
-10.3156
20
1.4957
11
-10.2263
21
1.9994
0
LINE
8
NFC_COIL
10
-10.2263
20
1.9994
11
-10.1125
21
2.4979
0
LINE
8
NFC_COIL
10
-10.1125
20
2.4979
11
-9.9744
21
2.9901
0
LINE
8
NFC_COIL
10
-9.9744
20
2.9901
11
-9.8123
21
3.4747
0
LINE
8
NFC_COIL
10
-9.8123
20
3.4747
11
-9.6267
21
3.9507
0
LINE
8
NFC_COIL
10
-9.6267
20
3.9507
11
-9.4181
21
4.4168
0
LINE
8
NFC_COIL
10
-9.4181
20
4.4168
11
-9.1869
21
4.8719
0
LINE
8
NFC_COIL
10
-9.1869
20
4.8719
11
-8.9338
21
5.3151
0
LINE
8
NFC_COIL
10
-8.9338
20
5.3151
11
-8.6593
21
5.7451
0
LINE
8
NFC_COIL
10
-8.6593
20
5.7451
11
-8.3642
21
6.1610
0
LINE
8
NFC_COIL
10
-8.3642
20
6.1610
11
-8.0490
21
6.5617
0
LINE
8
NFC_COIL
10
-8.0490
20
6.5617
11
-7.7148
21
6.9464
0
LINE
8
NFC_COIL
10
-7.7148
20
6.9464
11
-7.3621
21
7.3141
0
LINE
8
NFC_COIL
10
-7.3621
20
7.3141
11
-6.9920
21
7.6639
0
LINE
8
NFC_COIL
10
-6.9920
20
7.6639
11
-6.6053
21
7.9951
0
LINE
8
NFC_COIL
10
-6.6053
20
7.9951
11
-6.2029
21
8.3067
0
LINE
8
NFC_COIL
10
-6.2029
20
8.3067
11
-5.7859
21
8.5982
0
LINE
8
NFC_COIL
10
-5.7859
20
8.5982
11
-5.3552
21
8.8687
0
LINE
8
NFC_COIL
10
-5.3552
20
8.8687
11
-4.9120
21
9.1177
0
LINE
8
NFC_COIL
10
-4.9120
20
9.1177
11
-4.4571
21
9.3446
0
LINE
8
NFC_COIL
10
-4.4571
20
9.3446
11
-3.9919
21
9.5488
0
LINE
8
NFC_COIL
10
-3.9919
20
9.5488
11
-3.5174
21
9.7298
0
LINE
8
NFC_COIL
10
-3.5174
20
9.7298
11
-3.0347
21
9.8874
0
LINE
8
NFC_COIL
10
-3.0347
20
9.8874
11
-2.5450
21
10.0209
0
LINE
8
NFC_COIL
10
-2.5450
20
10.0209
11
-2.0495
21
10.1303
0
LINE
8
NFC_COIL
10
-2.0495
20
10.1303
11
-1.5495
21
10.2152
0
LINE
8
NFC_COIL
10
-1.5495
20
10.2152
11
-1.0460
21
10.2754
0
LINE
8
NFC_COIL
10
-1.0460
20
10.2754
11
-0.5404
21
10.3108
0
LINE
8
NFC_COIL
10
-0.5404
20
10.3108
11
-0.0338
21
10.3214
0
LINE
8
NFC_COIL
10
-0.0338
20
10.3214
11
0.4726
21
10.3071
0
LINE
8
NFC_COIL
10
0.4726
20
10.3071
11
0.9774
21
10.2680
0
LINE
8
NFC_COIL
10
0.9774
20
10.2680
11
1.4795
21
10.2042
0
LINE
8
NFC_COIL
10
1.4795
20
10.2042
11
1.9778
21
10.1159
0
LINE
8
NFC_COIL
10
1.9778
20
10.1159
11
2.4709
21
10.0033
0
LINE
8
NFC_COIL
10
2.4709
20
10.0033
11
2.9578
21
9.8666
0
LINE
8
NFC_COIL
10
2.9578
20
9.8666
11
3.4372
21
9.7063
0
LINE
8
NFC_COIL
10
3.4372
20
9.7063
11
3.9080
21
9.5227
0
LINE
8
NFC_COIL
10
3.9080
20
9.5227
11
4.3690
21
9.3163
0
LINE
8
NFC_COIL
10
4.3690
20
9.3163
11
4.8192
21
9.0876
0
LINE
8
NFC_COIL
10
4.8192
20
9.0876
11
5.2575
21
8.8371
0
LINE
8
NFC_COIL
10
5.2575
20
8.8371
11
5.6829
21
8.5656
0
LINE
8
NFC_COIL
10
5.6829
20
8.5656
11
6.0942
21
8.2736
0
LINE
8
NFC_COIL
10
6.0942
20
8.2736
11
6.4906
21
7.9619
0
LINE
8
NFC_COIL
10
6.4906
20
7.9619
11
6.8711
21
7.6312
0
LINE
8
NFC_COIL
10
6.8711
20
7.6312
11
7.2348
21
7.2823
0
LINE
8
NFC_COIL
10
7.2348
20
7.2823
11
7.5808
21
6.9162
0
LINE
8
NFC_COIL
10
7.5808
20
6.9162
11
7.9084
21
6.5337
0
LINE
8
NFC_COIL
10
7.9084
20
6.5337
11
8.2166
21
6.1356
0
LINE
8
NFC_COIL
10
8.2166
20
6.1356
11
8.5049
21
5.7231
0
LINE
8
NFC_COIL
10
8.5049
20
5.7231
11
8.7724
21
5.2971
0
LINE
8
NFC_COIL
10
8.7724
20
5.2971
11
9.0187
21
4.8586
0
LINE
8
NFC_COIL
10
9.0187
20
4.8586
11
9.2430
21
4.4087
0
LINE
8
NFC_COIL
10
9.2430
20
4.4087
11
9.4450
21
3.9485
0
LINE
8
NFC_COIL
10
9.4450
20
3.9485
11
9.6240
21
3.4791
0
LINE
8
NFC_COIL
10
9.6240
20
3.4791
11
9.7798
21
3.0017
0
LINE
8
NFC_COIL
10
9.7798
20
3.0017
11
9.9119
21
2.5173
0
LINE
8
NFC_COIL
10
9.9119
20
2.5173
11
10.0200
21
2.0272
0
LINE
8
NFC_COIL
10
10.0200
20
2.0272
11
10.1040
21
1.5326
0
LINE
8
NFC_COIL
10
10.1040
20
1.5326
11
10.1635
21
1.0346
0
LINE
8
NFC_COIL
10
10.1635
20
1.0346
11
10.1985
21
0.5345
0
LINE
8
NFC_COIL
10
10.1985
20
0.5345
11
10.2089
21
0.0334
0
LINE
8
NFC_COIL
10
10.2089
20
0.0334
11
10.1948
21
-0.4674
0
LINE
8
NFC_COIL
10
10.1948
20
-0.4674
11
10.1560
21
-0.9667
0
LINE
8
NFC_COIL
10
10.1560
20
-0.9667
11
10.0929
21
-1.4634
0
LINE
8
NFC_COIL
10
10.0929
20
-1.4634
11
10.0055
21
-1.9562
0
LINE
8
NFC_COIL
10
10.0055
20
-1.9562
11
9.8940
21
-2.4439
0
LINE
8
NFC_COIL
10
9.8940
20
-2.4439
11
9.7588
21
-2.9255
0
LINE
8
NFC_COIL
10
9.7588
20
-2.9255
11
9.6002
21
-3.3996
0
LINE
8
NFC_COIL
10
9.6002
20
-3.3996
11
9.4186
21
-3.8652
0
LINE
8
NFC_COIL
10
9.4186
20
-3.8652
11
9.2144
21
-4.3212
0
LINE
8
NFC_COIL
10
9.2144
20
-4.3212
11
8.9882
21
-4.7665
0
LINE
8
NFC_COIL
10
8.9882
20
-4.7665
11
8.7404
21
-5.2000
0
LINE
8
NFC_COIL
10
8.7404
20
-5.2000
11
8.4718
21
-5.6207
0
LINE
8
NFC_COIL
10
8.4718
20
-5.6207
11
8.1830
21
-6.0275
0
LINE
8
NFC_COIL
10
8.1830
20
-6.0275
11
7.8747
21
-6.4196
0
LINE
8
NFC_COIL
10
7.8747
20
-6.4196
11
7.5476
21
-6.7959
0
LINE
8
NFC_COIL
10
7.5476
20
-6.7959
11
7.2025
21
-7.1555
0
LINE
8
NFC_COIL
10
7.2025
20
-7.1555
11
6.8404
21
-7.4977
0
LINE
8
NFC_COIL
10
6.8404
20
-7.4977
11
6.4620
21
-7.8216
0
LINE
8
NFC_COIL
10
6.4620
20
-7.8216
11
6.0683
21
-8.1265
0
LINE
8
NFC_COIL
10
6.0683
20
-8.1265
11
5.6603
21
-8.4115
0
LINE
8
NFC_COIL
10
5.6603
20
-8.4115
11
5.2389
21
-8.6761
0
LINE
8
NFC_COIL
10
5.2389
20
-8.6761
11
4.8052
21
-8.9196
0
LINE
8
NFC_COIL
10
4.8052
20
-8.9196
11
4.3603
21
-9.1415
0
LINE
8
NFC_COIL
10
4.3603
20
-9.1415
11
3.9051
21
-9.3412
0
LINE
8
NFC_COIL
10
3.9051
20
-9.3412
11
3.4409
21
-9.5182
0
LINE
8
NFC_COIL
10
3.4409
20
-9.5182
11
2.9686
21
-9.6723
0
LINE
8
NFC_COIL
10
2.9686
20
-9.6723
11
2.4896
21
-9.8029
0
LINE
8
NFC_COIL
10
2.4896
20
-9.8029
11
2.0049
21
-9.9098
0
LINE
8
NFC_COIL
10
2.0049
20
-9.9098
11
1.5157
21
-9.9927
0
LINE
8
NFC_COIL
10
1.5157
20
-9.9927
11
1.0232
21
-10.0516
0
LINE
8
NFC_COIL
10
1.0232
20
-10.0516
11
0.5286
21
-10.0862
0
LINE
8
NFC_COIL
10
0.5286
20
-10.0862
11
0.0330
21
-10.0964
0
LINE
8
NFC_COIL
10
0.0330
20
-10.0964
11
-0.4622
21
-10.0824
0
LINE
8
NFC_COIL
10
-0.4622
20
-10.0824
11
-0.9561
21
-10.0441
0
LINE
8
NFC_COIL
10
-0.9561
20
-10.0441
11
-1.4473
21
-9.9816
0
LINE
8
NFC_COIL
10
-1.4473
20
-9.9816
11
-1.9346
21
-9.8951
0
LINE
8
NFC_COIL
10
-1.9346
20
-9.8951
11
-2.4170
21
-9.7848
0
LINE
8
NFC_COIL
10
-2.4170
20
-9.7848
11
-2.8932
21
-9.6511
0
LINE
8
NFC_COIL
10
-2.8932
20
-9.6511
11
-3.3621
21
-9.4942
0
LINE
8
NFC_COIL
10
-3.3621
20
-9.4942
11
-3.8225
21
-9.3145
0
LINE
8
NFC_COIL
10
-3.8225
20
-9.3145
11
-4.2735
21
-9.1125
0
LINE
8
NFC_COIL
10
-4.2735
20
-9.1125
11
-4.7138
21
-8.8888
0
LINE
8
NFC_COIL
10
-4.7138
20
-8.8888
11
-5.1425
21
-8.6437
0
LINE
8
NFC_COIL
10
-5.1425
20
-8.6437
11
-5.5585
21
-8.3781
0
LINE
8
NFC_COIL
10
-5.5585
20
-8.3781
11
-5.9608
21
-8.0924
0
LINE
8
NFC_COIL
10
-5.9608
20
-8.0924
11
-6.3485
21
-7.7875
0
LINE
8
NFC_COIL
10
-6.3485
20
-7.7875
11
-6.7206
21
-7.4640
0
LINE
8
NFC_COIL
10
-6.7206
20
-7.4640
11
-7.0762
21
-7.1227
0
LINE
8
NFC_COIL
10
-7.0762
20
-7.1227
11
-7.4146
21
-6.7645
0
LINE
8
NFC_COIL
10
-7.4146
20
-6.7645
11
-7.7349
21
-6.3903
0
LINE
8
NFC_COIL
10
-7.7349
20
-6.3903
11
-8.0363
21
-6.0010
0
LINE
8
NFC_COIL
10
-8.0363
20
-6.0010
11
-8.3182
21
-5.5975
0
LINE
8
NFC_COIL
10
-8.3182
20
-5.5975
11
-8.5798
21
-5.1808
0
LINE
8
NFC_COIL
10
-8.5798
20
-5.1808
11
-8.8206
21
-4.7519
0
LINE
8
NFC_COIL
10
-8.8206
20
-4.7519
11
-9.0400
21
-4.3118
0
LINE
8
NFC_COIL
10
-9.0400
20
-4.3118
11
-9.2374
21
-3.8617
0
LINE
8
NFC_COIL
10
-9.2374
20
-3.8617
11
-9.4124
21
-3.4026
0
LINE
8
NFC_COIL
10
-9.4124
20
-3.4026
11
-9.5647
21
-2.9356
0
LINE
8
NFC_COIL
10
-9.5647
20
-2.9356
11
-9.6938
21
-2.4619
0
LINE
8
NFC_COIL
10
-9.6938
20
-2.4619
11
-9.7995
21
-1.9826
0
LINE
8
NFC_COIL
10
-9.7995
20
-1.9826
11
-9.8815
21
-1.4988
0
LINE
8
NFC_COIL
10
-9.8815
20
-1.4988
11
-9.9396
21
-1.0118
0
LINE
8
NFC_COIL
10
-9.9396
20
-1.0118
11
-9.9738
21
-0.5227
0
LINE
8
NFC_COIL
10
-9.9738
20
-0.5227
11
-9.9839
21
-0.0327
0
LINE
8
NFC_COIL
10
-9.9839
20
-0.0327
11
-9.9700
21
0.4571
0
LINE
8
NFC_COIL
10
-9.9700
20
0.4571
11
-9.9321
21
0.9454
0
LINE
8
NFC_COIL
10
-9.9321
20
0.9454
11
-9.8702
21
1.4311
0
LINE
8
NFC_COIL
10
-9.8702
20
1.4311
11
-9.7847
21
1.9130
0
LINE
8
NFC_COIL
10
-9.7847
20
1.9130
11
-9.6756
21
2.3900
0
LINE
8
NFC_COIL
10
-9.6756
20
2.3900
11
-9.5433
21
2.8609
0
LINE
8
NFC_COIL
10
-9.5433
20
2.8609
11
-9.3881
21
3.3245
0
LINE
8
NFC_COIL
10
-9.3881
20
3.3245
11
-9.2104
21
3.7798
0
LINE
8
NFC_COIL
10
-9.2104
20
3.7798
11
-9.0107
21
4.2257
0
LINE
8
NFC_COIL
10
-9.0107
20
4.2257
11
-8.7894
21
4.6611
0
LINE
8
NFC_COIL
10
-8.7894
20
4.6611
11
-8.5471
21
5.0850
0
LINE
8
NFC_COIL
10
-8.5471
20
5.0850
11
-8.2843
21
5.4963
0
LINE
8
NFC_COIL
10
-8.2843
20
5.4963
11
-8.0018
21
5.8941
0
LINE
8
NFC_COIL
10
-8.0018
20
5.8941
11
-7.7003
21
6.2774
0
LINE
8
NFC_COIL
10
-7.7003
20
6.2774
11
-7.3804
21
6.6453
0
LINE
8
NFC_COIL
10
-7.3804
20
6.6453
11
-7.0429
21
6.9970
0
LINE
8
NFC_COIL
10
-7.0429
20
6.9970
11
-6.6887
21
7.3315
0
LINE
8
NFC_COIL
10
-6.6887
20
7.3315
11
-6.3187
21
7.6482
0
LINE
8
NFC_COIL
10
-6.3187
20
7.6482
11
-5.9337
21
7.9462
0
LINE
8
NFC_COIL
10
-5.9337
20
7.9462
11
-5.5347
21
8.2248
0
LINE
8
NFC_COIL
10
-5.5347
20
8.2248
11
-5.1226
21
8.4835
0
LINE
8
NFC_COIL
10
-5.1226
20
8.4835
11
-4.6985
21
8.7215
0
LINE
8
NFC_COIL
10
-4.6985
20
8.7215
11
-4.2634
21
8.9384
0
LINE
8
NFC_COIL
10
-4.2634
20
8.9384
11
-3.8183
21
9.1336
0
LINE
8
NFC_COIL
10
-3.8183
20
9.1336
11
-3.3644
21
9.3066
0
LINE
8
NFC_COIL
10
-3.3644
20
9.3066
11
-2.9026
21
9.4572
0
LINE
8
NFC_COIL
10
-2.9026
20
9.4572
11
-2.4342
21
9.5848
0
LINE
8
NFC_COIL
10
-2.4342
20
9.5848
11
-1.9603
21
9.6892
0
LINE
8
NFC_COIL
10
-1.9603
20
9.6892
11
-1.4820
21
9.7703
0
LINE
8
NFC_COIL
10
-1.4820
20
9.7703
11
-1.0004
21
9.8277
0
LINE
8
NFC_COIL
10
-1.0004
20
9.8277
11
-0.5168
21
9.8615
0
LINE
8
NFC_COIL
10
-0.5168
20
9.8615
11
-0.0323
21
9.8714
0
LINE
8
NFC_COIL
10
-0.0323
20
9.8714
11
0.4519
21
9.8576
0
LINE
8
NFC_COIL
10
0.4519
20
9.8576
11
0.9348
21
9.8201
0
LINE
8
NFC_COIL
10
0.9348
20
9.8201
11
1.4150
21
9.7589
0
LINE
8
NFC_COIL
10
1.4150
20
9.7589
11
1.8914
21
9.6743
0
LINE
8
NFC_COIL
10
1.8914
20
9.6743
11
2.3630
21
9.5664
0
LINE
8
NFC_COIL
10
2.3630
20
9.5664
11
2.8286
21
9.4355
0
LINE
8
NFC_COIL
10
2.8286
20
9.4355
11
3.2870
21
9.2821
0
LINE
8
NFC_COIL
10
3.2870
20
9.2821
11
3.7371
21
9.1064
0
LINE
8
NFC_COIL
10
3.7371
20
9.1064
11
4.1779
21
8.9088
0
LINE
8
NFC_COIL
10
4.1779
20
8.9088
11
4.6084
21
8.6900
0
LINE
8
NFC_COIL
10
4.6084
20
8.6900
11
5.0274
21
8.4504
0
LINE
8
NFC_COIL
10
5.0274
20
8.4504
11
5.4341
21
8.1906
0
LINE
8
NFC_COIL
10
5.4341
20
8.1906
11
5.8274
21
7.9113
0
LINE
8
NFC_COIL
10
5.8274
20
7.9113
11
6.2063
21
7.6131
0
LINE
8
NFC_COIL
10
6.2063
20
7.6131
11
6.5700
21
7.2968
0
LINE
8
NFC_COIL
10
6.5700
20
7.2968
11
6.9177
21
6.9631
0
LINE
8
NFC_COIL
10
6.9177
20
6.9631
11
7.2484
21
6.6129
0
LINE
8
NFC_COIL
10
7.2484
20
6.6129
11
7.5614
21
6.2470
0
LINE
8
NFC_COIL
10
7.5614
20
6.2470
11
7.8560
21
5.8664
0
LINE
8
NFC_COIL
10
7.8560
20
5.8664
11
8.1315
21
5.4719
0
LINE
8
NFC_COIL
10
8.1315
20
5.4719
11
8.3872
21
5.0645
0
LINE
8
NFC_COIL
10
8.3872
20
5.0645
11
8.6225
21
4.6452
0
LINE
8
NFC_COIL
10
8.6225
20
4.6452
11
8.8369
21
4.2150
0
LINE
8
NFC_COIL
10
8.8369
20
4.2150
11
9.0298
21
3.7749
0
LINE
8
NFC_COIL
10
9.0298
20
3.7749
11
9.2008
21
3.3261
0
LINE
8
NFC_COIL
10
9.2008
20
3.3261
11
9.3496
21
2.8696
0
LINE
8
NFC_COIL
10
9.3496
20
2.8696
11
9.4757
21
2.4065
0
LINE
8
NFC_COIL
10
9.4757
20
2.4065
11
9.5790
21
1.9380
0
LINE
8
NFC_COIL
10
9.5790
20
1.9380
11
9.6590
21
1.4651
0
LINE
8
NFC_COIL
10
9.6590
20
1.4651
11
9.7158
21
0.9890
0
LINE
8
NFC_COIL
10
9.7158
20
0.9890
11
9.7491
21
0.5109
0
LINE
8
NFC_COIL
10
9.7491
20
0.5109
11
9.7589
21
0.0319
0
LINE
8
NFC_COIL
10
9.7589
20
0.0319
11
9.7452
21
-0.4468
0
LINE
8
NFC_COIL
10
9.7452
20
-0.4468
11
9.7081
21
-0.9241
0
LINE
8
NFC_COIL
10
9.7081
20
-0.9241
11
9.6476
21
-1.3988
0
LINE
8
NFC_COIL
10
9.6476
20
-1.3988
11
9.5638
21
-1.8699
0
LINE
8
NFC_COIL
10
9.5638
20
-1.8699
11
9.4572
21
-2.3360
0
LINE
8
NFC_COIL
10
9.4572
20
-2.3360
11
9.3278
21
-2.7963
0
LINE
8
NFC_COIL
10
9.3278
20
-2.7963
11
9.1760
21
-3.2494
0
LINE
8
NFC_COIL
10
9.1760
20
-3.2494
11
9.0023
21
-3.6944
0
LINE
8
NFC_COIL
10
9.0023
20
-3.6944
11
8.8070
21
-4.1302
0
LINE
8
NFC_COIL
10
8.8070
20
-4.1302
11
8.5906
21
-4.5557
0
LINE
8
NFC_COIL
10
8.5906
20
-4.5557
11
8.3537
21
-4.9699
0
LINE
8
NFC_COIL
10
8.3537
20
-4.9699
11
8.0968
21
-5.3719
0
LINE
8
NFC_COIL
10
8.0968
20
-5.3719
11
7.8207
21
-5.7606
0
LINE
8
NFC_COIL
10
7.8207
20
-5.7606
11
7.5259
21
-6.1352
0
LINE
8
NFC_COIL
10
7.5259
20
-6.1352
11
7.2131
21
-6.4947
0
LINE
8
NFC_COIL
10
7.2131
20
-6.4947
11
6.8833
21
-6.8384
0
LINE
8
NFC_COIL
10
6.8833
20
-6.8384
11
6.5371
21
-7.1653
0
LINE
8
NFC_COIL
10
6.5371
20
-7.1653
11
6.1754
21
-7.4747
0
LINE
8
NFC_COIL
10
6.1754
20
-7.4747
11
5.7991
21
-7.7659
0
LINE
8
NFC_COIL
10
5.7991
20
-7.7659
11
5.4091
21
-8.0382
0
LINE
8
NFC_COIL
10
5.4091
20
-8.0382
11
5.0063
21
-8.2909
0
LINE
8
NFC_COIL
10
5.0063
20
-8.2909
11
4.5918
21
-8.5235
0
LINE
8
NFC_COIL
10
4.5918
20
-8.5235
11
4.1665
21
-8.7353
0
LINE
8
NFC_COIL
10
4.1665
20
-8.7353
11
3.7315
21
-8.9260
0
LINE
8
NFC_COIL
10
3.7315
20
-8.9260
11
3.2879
21
-9.0951
0
LINE
8
NFC_COIL
10
3.2879
20
-9.0951
11
2.8366
21
-9.2421
0
LINE
8
NFC_COIL
10
2.8366
20
-9.2421
11
2.3788
21
-9.3667
0
LINE
8
NFC_COIL
10
2.3788
20
-9.3667
11
1.9157
21
-9.4687
0
LINE
8
NFC_COIL
10
1.9157
20
-9.4687
11
1.4482
21
-9.5478
0
LINE
8
NFC_COIL
10
1.4482
20
-9.5478
11
0.9776
21
-9.6039
0
LINE
8
NFC_COIL
10
0.9776
20
-9.6039
11
0.5050
21
-9.6368
0
LINE
8
NFC_COIL
10
0.5050
20
-9.6368
11
0.0316
21
-9.6464
0
LINE
8
NFC_COIL
10
0.0316
20
-9.6464
11
-0.4416
21
-9.6329
0
LINE
8
NFC_COIL
10
-0.4416
20
-9.6329
11
-0.9134
21
-9.5961
0
LINE
8
NFC_COIL
10
-0.9134
20
-9.5961
11
-1.3827
21
-9.5362
0
LINE
8
NFC_COIL
10
-1.3827
20
-9.5362
11
-1.8483
21
-9.4534
0
LINE
8
NFC_COIL
10
-1.8483
20
-9.4534
11
-2.3091
21
-9.3479
0
LINE
8
NFC_COIL
10
-2.3091
20
-9.3479
11
-2.7639
21
-9.2200
0
LINE
8
NFC_COIL
10
-2.7639
20
-9.2200
11
-3.2118
21
-9.0700
0
LINE
8
NFC_COIL
10
-3.2118
20
-9.0700
11
-3.6517
21
-8.8982
0
LINE
8
NFC_COIL
10
-3.6517
20
-8.8982
11
-4.0824
21
-8.7051
0
LINE
8
NFC_COIL
10
-4.0824
20
-8.7051
11
-4.5030
21
-8.4912
0
LINE
8
NFC_COIL
10
-4.5030
20
-8.4912
11
-4.9124
21
-8.2570
0
LINE
8
NFC_COIL
10
-4.9124
20
-8.2570
11
-5.3097
21
-8.0031
0
LINE
8
NFC_COIL
10
-5.3097
20
-8.0031
11
-5.6939
21
-7.7301
0
LINE
8
NFC_COIL
10
-5.6939
20
-7.7301
11
-6.0641
21
-7.4387
0
LINE
8
NFC_COIL
10
-6.0641
20
-7.4387
11
-6.4195
21
-7.1295
0
LINE
8
NFC_COIL
10
-6.4195
20
-7.1295
11
-6.7591
21
-6.8035
0
LINE
8
NFC_COIL
10
-6.7591
20
-6.8035
11
-7.0822
21
-6.4613
0
LINE
8
NFC_COIL
10
-7.0822
20
-6.4613
11
-7.3880
21
-6.1037
0
LINE
8
NFC_COIL
10
-7.3880
20
-6.1037
11
-7.6758
21
-5.7318
0
LINE
8
NFC_COIL
10
-7.6758
20
-5.7318
11
-7.9448
21
-5.3463
0
LINE
8
NFC_COIL
10
-7.9448
20
-5.3463
11
-8.1946
21
-4.9482
0
LINE
8
NFC_COIL
10
-8.1946
20
-4.9482
11
-8.4244
21
-4.5385
0
LINE
8
NFC_COIL
10
-8.4244
20
-4.5385
11
-8.6338
21
-4.1181
0
LINE
8
NFC_COIL
10
-8.6338
20
-4.1181
11
-8.8222
21
-3.6882
0
LINE
8
NFC_COIL
10
-8.8222
20
-3.6882
11
-8.9893
21
-3.2496
0
LINE
8
NFC_COIL
10
-8.9893
20
-3.2496
11
-9.1345
21
-2.8036
0
LINE
8
NFC_COIL
10
-9.1345
20
-2.8036
11
-9.2577
21
-2.3511
0
LINE
8
NFC_COIL
10
-9.2577
20
-2.3511
11
-9.3584
21
-1.8934
0
LINE
8
NFC_COIL
10
-9.3584
20
-1.8934
11
-9.4366
21
-1.4314
0
LINE
8
NFC_COIL
10
-9.4366
20
-1.4314
11
-9.4920
21
-0.9663
0
LINE
8
NFC_COIL
10
-9.4920
20
-0.9663
11
-9.5244
21
-0.4992
0
LINE
8
NFC_COIL
10
-9.5244
20
-0.4992
11
-9.5339
21
-0.0312
0
LINE
8
NFC_COIL
10
-9.5339
20
-0.0312
11
-9.5205
21
0.4365
0
LINE
8
NFC_COIL
10
-9.5205
20
0.4365
11
-9.4841
21
0.9028
0
LINE
8
NFC_COIL
10
-9.4841
20
0.9028
11
-9.4249
21
1.3665
0
LINE
8
NFC_COIL
10
-9.4249
20
1.3665
11
-9.3430
21
1.8267
0
LINE
8
NFC_COIL
10
-9.3430
20
1.8267
11
-9.2387
21
2.2821
0
LINE
8
NFC_COIL
10
-9.2387
20
2.2821
11
-9.1123
21
2.7316
0
LINE
8
NFC_COIL
10
-9.1123
20
2.7316
11
-8.9639
21
3.1743
0
LINE
8
NFC_COIL
10
-8.9639
20
3.1743
11
-8.7941
21
3.6090
0
LINE
8
NFC_COIL
10
-8.7941
20
3.6090
11
-8.6033
21
4.0346
0
LINE
8
NFC_COIL
10
-8.6033
20
4.0346
11
-8.3918
21
4.4503
0
LINE
8
NFC_COIL
10
-8.3918
20
4.4503
11
-8.1603
21
4.8549
0
LINE
8
NFC_COIL
10
-8.1603
20
4.8549
11
-7.9094
21
5.2475
0
LINE
8
NFC_COIL
10
-7.9094
20
5.2475
11
-7.6395
21
5.6272
0
LINE
8
NFC_COIL
10
-7.6395
20
5.6272
11
-7.3515
21
5.9930
0
LINE
8
NFC_COIL
10
-7.3515
20
5.9930
11
-7.0459
21
6.3442
0
LINE
8
NFC_COIL
10
-7.0459
20
6.3442
11
-6.7237
21
6.6798
0
LINE
8
NFC_COIL
10
-6.7237
20
6.6798
11
-6.3854
21
6.9991
0
LINE
8
NFC_COIL
10
-6.3854
20
6.9991
11
-6.0321
21
7.3013
0
LINE
8
NFC_COIL
10
-6.0321
20
7.3013
11
-5.6645
21
7.5856
0
LINE
8
NFC_COIL
10
-5.6645
20
7.5856
11
-5.2835
21
7.8515
0
LINE
8
NFC_COIL
10
-5.2835
20
7.8515
11
-4.8900
21
8.0983
0
LINE
8
NFC_COIL
10
-4.8900
20
8.0983
11
-4.4851
21
8.3254
0
LINE
8
NFC_COIL
10
-4.4851
20
8.3254
11
-4.0697
21
8.5323
0
LINE
8
NFC_COIL
10
-4.0697
20
8.5323
11
-3.6448
21
8.7184
0
LINE
8
NFC_COIL
10
-3.6448
20
8.7184
11
-3.2114
21
8.8835
0
LINE
8
NFC_COIL
10
-3.2114
20
8.8835
11
-2.7706
21
9.0270
0
LINE
8
NFC_COIL
10
-2.7706
20
9.0270
11
-2.3235
21
9.1486
0
LINE
8
NFC_COIL
10
-2.3235
20
9.1486
11
-1.8711
21
9.2482
0
LINE
8
NFC_COIL
10
-1.8711
20
9.2482
11
-1.4145
21
9.3254
0
LINE
8
NFC_COIL
10
-1.4145
20
9.3254
11
-0.9549
21
9.3800
0
LINE
8
NFC_COIL
10
-0.9549
20
9.3800
11
-0.4933
21
9.4121
0
LINE
8
NFC_COIL
10
-0.4933
20
9.4121
11
-0.0308
21
9.4214
0
LINE
8
NFC_COIL
10
-0.0308
20
9.4214
11
0.4313
21
9.4081
0
LINE
8
NFC_COIL
10
0.4313
20
9.4081
11
0.8921
21
9.3721
0
LINE
8
NFC_COIL
10
0.8921
20
9.3721
11
1.3504
21
9.3135
0
LINE
8
NFC_COIL
10
1.3504
20
9.3135
11
1.8051
21
9.2326
0
LINE
8
NFC_COIL
10
1.8051
20
9.2326
11
2.2551
21
9.1295
0
LINE
8
NFC_COIL
10
2.2551
20
9.1295
11
2.6993
21
9.0045
0
LINE
8
NFC_COIL
10
2.6993
20
9.0045
11
3.1367
21
8.8579
0
LINE
8
NFC_COIL
10
3.1367
20
8.8579
11
3.5663
21
8.6900
0
LINE
8
NFC_COIL
10
3.5663
20
8.6900
11
3.9869
21
8.5014
0
LINE
8
NFC_COIL
10
3.9869
20
8.5014
11
4.3976
21
8.2924
0
LINE
8
NFC_COIL
10
4.3976
20
8.2924
11
4.7974
21
8.0636
0
LINE
8
NFC_COIL
10
4.7974
20
8.0636
11
5.1853
21
7.8156
0
LINE
8
NFC_COIL
10
5.1853
20
7.8156
11
5.5605
21
7.5489
0
LINE
8
NFC_COIL
10
5.5605
20
7.5489
11
5.9220
21
7.2643
0
LINE
8
NFC_COIL
10
5.9220
20
7.2643
11
6.2689
21
6.9623
0
LINE
8
NFC_COIL
10
6.2689
20
6.9623
11
6.6005
21
6.6439
0
LINE
8
NFC_COIL
10
6.6005
20
6.6439
11
6.9160
21
6.3096
0
LINE
8
NFC_COIL
10
6.9160
20
6.3096
11
7.2145
21
5.9604
0
LINE
8
NFC_COIL
10
7.2145
20
5.9604
11
7.4955
21
5.5971
0
LINE
8
NFC_COIL
10
7.4955
20
5.5971
11
7.7582
21
5.2206
0
LINE
8
NFC_COIL
10
7.7582
20
5.2206
11
8.0020
21
4.8319
0
LINE
8
NFC_COIL
10
8.0020
20
4.8319
11
8.2263
21
4.4317
0
LINE
8
NFC_COIL
10
8.2263
20
4.4317
11
8.4307
21
4.0212
0
LINE
8
NFC_COIL
10
8.4307
20
4.0212
11
8.6146
21
3.6014
0
LINE
8
NFC_COIL
10
8.6146
20
3.6014
11
8.7777
21
3.1731
0
LINE
8
NFC_COIL
10
8.7777
20
3.1731
11
8.9194
21
2.7376
0
LINE
8
NFC_COIL
10
8.9194
20
2.7376
11
9.0396
21
2.2958
0
LINE
8
NFC_COIL
10
9.0396
20
2.2958
11
9.1379
21
1.8487
0
LINE
8
NFC_COIL
10
9.1379
20
1.8487
11
9.2141
21
1.3976
0
LINE
8
NFC_COIL
10
9.2141
20
1.3976
11
9.2681
21
0.9435
0
LINE
8
NFC_COIL
10
9.2681
20
0.9435
11
9.2997
21
0.4874
0
LINE
8
NFC_COIL
10
9.2997
20
0.4874
11
9.3089
21
0.0305
0
LINE
8
NFC_COIL
10
9.3089
20
0.0305
11
9.2957
21
-0.4262
0
LINE
8
NFC_COIL
10
9.2957
20
-0.4262
11
9.2601
21
-0.8815
0
LINE
8
NFC_COIL
10
9.2601
20
-0.8815
11
9.2022
21
-1.3343
0
LINE
8
NFC_COIL
10
9.2022
20
-1.3343
11
9.1222
21
-1.7835
0
LINE
8
NFC_COIL
10
9.1222
20
-1.7835
11
9.0203
21
-2.2281
0
LINE
8
NFC_COIL
10
9.0203
20
-2.2281
11
8.8967
21
-2.6670
0
LINE
8
NFC_COIL
10
8.8967
20
-2.6670
11
8.7518
21
-3.0992
0
LINE
8
NFC_COIL
10
8.7518
20
-3.0992
11
8.5860
21
-3.5236
0
LINE
8
NFC_COIL
10
8.5860
20
-3.5236
11
8.3996
21
-3.9391
0
LINE
8
NFC_COIL
10
8.3996
20
-3.9391
11
8.1930
21
-4.3449
0
LINE
8
NFC_COIL
10
8.1930
20
-4.3449
11
7.9670
21
-4.7398
0
LINE
8
NFC_COIL
10
7.9670
20
-4.7398
11
7.7219
21
-5.1231
0
LINE
8
NFC_COIL
10
7.7219
20
-5.1231
11
7.4584
21
-5.4938
0
LINE
8
NFC_COIL
10
7.4584
20
-5.4938
11
7.1771
21
-5.8509
0
LINE
8
NFC_COIL
10
7.1771
20
-5.8509
11
6.8787
21
-6.1936
0
LINE
8
NFC_COIL
10
6.8787
20
-6.1936
11
6.5640
21
-6.5212
0
LINE
8
NFC_COIL
10
6.5640
20
-6.5212
11
6.2338
21
-6.8329
0
LINE
8
NFC_COIL
10
6.2338
20
-6.8329
11
5.8888
21
-7.1278
0
LINE
8
NFC_COIL
10
5.8888
20
-7.1278
11
5.5298
21
-7.4053
0
LINE
8
NFC_COIL
10
5.5298
20
-7.4053
11
5.1578
21
-7.6648
0
LINE
8
NFC_COIL
10
5.1578
20
-7.6648
11
4.7737
21
-7.9057
0
LINE
8
NFC_COIL
10
4.7737
20
-7.9057
11
4.3784
21
-8.1273
0
LINE
8
NFC_COIL
10
4.3784
20
-8.1273
11
3.9728
21
-8.3292
0
LINE
8
NFC_COIL
10
3.9728
20
-8.3292
11
3.5580
21
-8.5108
0
LINE
8
NFC_COIL
10
3.5580
20
-8.5108
11
3.1349
21
-8.6719
0
LINE
8
NFC_COIL
10
3.1349
20
-8.6719
11
2.7046
21
-8.8119
0
LINE
8
NFC_COIL
10
2.7046
20
-8.8119
11
2.2681
21
-8.9306
0
LINE
8
NFC_COIL
10
2.2681
20
-8.9306
11
1.8264
21
-9.0276
0
LINE
8
NFC_COIL
10
1.8264
20
-9.0276
11
1.3807
21
-9.1029
0
LINE
8
NFC_COIL
10
1.3807
20
-9.1029
11
0.9321
21
-9.1562
0
LINE
8
NFC_COIL
10
0.9321
20
-9.1562
11
0.4815
21
-9.1874
0
LINE
8
NFC_COIL
10
0.4815
20
-9.1874
11
0.0301
21
-9.1964
0
LINE
8
NFC_COIL
10
0.0301
20
-9.1964
11
-0.4210
21
-9.1833
0
LINE
8
NFC_COIL
10
-0.4210
20
-9.1833
11
-0.8708
21
-9.1481
0
LINE
8
NFC_COIL
10
-0.8708
20
-9.1481
11
-1.3181
21
-9.0909
0
LINE
8
NFC_COIL
10
-1.3181
20
-9.0909
11
-1.7619
21
-9.0118
0
LINE
8
NFC_COIL
10
-1.7619
20
-9.0118
11
-2.2011
21
-8.9111
0
LINE
8
NFC_COIL
10
-2.2011
20
-8.9111
11
-2.6347
21
-8.7890
0
LINE
8
NFC_COIL
10
-2.6347
20
-8.7890
11
-3.0616
21
-8.6458
0
LINE
8
NFC_COIL
10
-3.0616
20
-8.6458
11
-3.4808
21
-8.4819
0
LINE
8
NFC_COIL
10
-3.4808
20
-8.4819
11
-3.8913
21
-8.2977
0
LINE
8
NFC_COIL
10
-3.8913
20
-8.2977
11
-4.2922
21
-8.0937
0
LINE
8
NFC_COIL
10
-4.2922
20
-8.0937
11
-4.6823
21
-7.8703
0
LINE
8
NFC_COIL
10
-4.6823
20
-7.8703
11
-5.0609
21
-7.6281
0
LINE
8
NFC_COIL
10
-5.0609
20
-7.6281
11
-5.4270
21
-7.3678
0
LINE
8
NFC_COIL
10
-5.4270
20
-7.3678
11
-5.7798
21
-7.0899
0
LINE
8
NFC_COIL
10
-5.7798
20
-7.0899
11
-6.1184
21
-6.7951
0
LINE
8
NFC_COIL
10
-6.1184
20
-6.7951
11
-6.4419
21
-6.4842
0
LINE
8
NFC_COIL
10
-6.4419
20
-6.4842
11
-6.7497
21
-6.1580
0
LINE
8
NFC_COIL
10
-6.7497
20
-6.1580
11
-7.0411
21
-5.8171
0
LINE
8
NFC_COIL
10
-7.0411
20
-5.8171
11
-7.3152
21
-5.4625
0
LINE
8
NFC_COIL
10
-7.3152
20
-5.4625
11
-7.5715
21
-5.0950
0
LINE
8
NFC_COIL
10
-7.5715
20
-5.0950
11
-7.8094
21
-4.7156
0
LINE
8
NFC_COIL
10
-7.8094
20
-4.7156
11
-8.0283
21
-4.3250
0
LINE
8
NFC_COIL
10
-8.0283
20
-4.3250
11
-8.2276
21
-3.9244
0
LINE
8
NFC_COIL
10
-8.2276
20
-3.9244
11
-8.4070
21
-3.5146
0
LINE
8
NFC_COIL
10
-8.4070
20
-3.5146
11
-8.5661
21
-3.0966
0
LINE
8
NFC_COIL
10
-8.5661
20
-3.0966
11
-8.7043
21
-2.6716
0
LINE
8
NFC_COIL
10
-8.7043
20
-2.6716
11
-8.8215
21
-2.2404
0
LINE
8
NFC_COIL
10
-8.8215
20
-2.2404
11
-8.9174
21
-1.8041
0
LINE
8
NFC_COIL
10
-8.9174
20
-1.8041
11
-8.9917
21
-1.3639
0
LINE
8
NFC_COIL
10
-8.9917
20
-1.3639
11
-9.0443
21
-0.9207
0
LINE
8
NFC_COIL
10
-9.0443
20
-0.9207
11
-9.0750
21
-0.4756
0
LINE
8
NFC_COIL
10
-9.0750
20
-0.4756
11
-9.0839
21
-0.0297
0
LINE
8
NFC_COIL
10
-9.0839
20
-0.0297
11
-9.0709
21
0.4159
0
LINE
8
NFC_COIL
10
-9.0709
20
0.4159
11
-9.0361
21
0.8601
0
LINE
8
NFC_COIL
10
-9.0361
20
0.8601
11
-8.9795
21
1.3020
0
LINE
8
NFC_COIL
10
-8.9795
20
1.3020
11
-8.9014
21
1.7403
0
LINE
8
NFC_COIL
10
-8.9014
20
1.7403
11
-8.8019
21
2.1742
0
LINE
8
NFC_COIL
10
-8.8019
20
2.1742
11
-8.6812
21
2.6024
0
LINE
8
NFC_COIL
10
-8.6812
20
2.6024
11
-8.5397
21
3.0241
0
LINE
8
NFC_COIL
10
-8.5397
20
3.0241
11
-8.3778
21
3.4381
0
LINE
8
NFC_COIL
10
-8.3778
20
3.4381
11
-8.1958
21
3.8436
0
LINE
8
NFC_COIL
10
-8.1958
20
3.8436
11
-7.9943
21
4.2394
0
LINE
8
NFC_COIL
10
-7.9943
20
4.2394
11
-7.7736
21
4.6248
0
LINE
8
NFC_COIL
10
-7.7736
20
4.6248
11
-7.5344
21
4.9987
0
LINE
8
NFC_COIL
10
-7.5344
20
4.9987
11
-7.2772
21
5.3603
0
LINE
8
NFC_COIL
10
-7.2772
20
5.3603
11
-7.0027
21
5.7087
0
LINE
8
NFC_COIL
10
-7.0027
20
5.7087
11
-6.7115
21
6.0431
0
LINE
8
NFC_COIL
10
-6.7115
20
6.0431
11
-6.4044
21
6.3626
0
LINE
8
NFC_COIL
10
-6.4044
20
6.3626
11
-6.0821
21
6.6666
0
LINE
8
NFC_COIL
10
-6.0821
20
6.6666
11
-5.7455
21
6.9543
0
LINE
8
NFC_COIL
10
-5.7455
20
6.9543
11
-5.3952
21
7.2251
0
LINE
8
NFC_COIL
10
-5.3952
20
7.2251
11
-5.0322
21
7.4782
0
LINE
8
NFC_COIL
10
-5.0322
20
7.4782
11
-4.6574
21
7.7131
0
LINE
8
NFC_COIL
10
-4.6574
20
7.7131
11
-4.2717
21
7.9292
0
LINE
8
NFC_COIL
10
-4.2717
20
7.9292
11
-3.8759
21
8.1261
0
LINE
8
NFC_COIL
10
-3.8759
20
8.1261
11
-3.4712
21
8.3032
0
LINE
8
NFC_COIL
10
-3.4712
20
8.3032
11
-3.0584
21
8.4603
0
LINE
8
NFC_COIL
10
-3.0584
20
8.4603
11
-2.6386
21
8.5968
0
LINE
8
NFC_COIL
10
-2.6386
20
8.5968
11
-2.2127
21
8.7125
0
LINE
8
NFC_COIL
10
-2.2127
20
8.7125
11
-1.7818
21
8.8071
0
LINE
8
NFC_COIL
10
-1.7818
20
8.8071
11
-1.3470
21
8.8805
0
LINE
8
NFC_COIL
10
-1.3470
20
8.8805
11
-0.9093
21
8.9324
0
LINE
8
NFC_COIL
10
-0.9093
20
8.9324
11
-0.4697
21
8.9627
0
LINE
8
NFC_COIL
10
-0.4697
20
8.9627
11
-0.0294
21
8.9714
0
LINE
8
NFC_COIL
10
-0.0294
20
8.9714
11
0.4107
21
8.9586
0
LINE
8
NFC_COIL
10
0.4107
20
8.9586
11
0.8495
21
8.9241
0
LINE
8
NFC_COIL
10
0.8495
20
8.9241
11
1.2858
21
8.8682
0
LINE
8
NFC_COIL
10
1.2858
20
8.8682
11
1.7187
21
8.7910
0
LINE
8
NFC_COIL
10
1.7187
20
8.7910
11
2.1472
21
8.6926
0
LINE
8
NFC_COIL
10
2.1472
20
8.6926
11
2.5701
21
8.5734
0
LINE
8
NFC_COIL
10
2.5701
20
8.5734
11
2.9865
21
8.4337
0
LINE
8
NFC_COIL
10
2.9865
20
8.4337
11
3.3954
21
8.2737
0
LINE
8
NFC_COIL
10
3.3954
20
8.2737
11
3.7958
21
8.0940
0
LINE
8
NFC_COIL
10
3.7958
20
8.0940
11
4.1867
21
7.8949
0
LINE
8
NFC_COIL
10
4.1867
20
7.8949
11
4.5673
21
7.6769
0
LINE
8
NFC_COIL
10
4.5673
20
7.6769
11
4.9365
21
7.4406
0
LINE
8
NFC_COIL
10
4.9365
20
7.4406
11
5.2936
21
7.1866
0
LINE
8
NFC_COIL
10
5.2936
20
7.1866
11
5.6376
21
6.9155
0
LINE
8
NFC_COIL
10
5.6376
20
6.9155
11
5.9678
21
6.6279
0
LINE
8
NFC_COIL
10
5.9678
20
6.6279
11
6.2834
21
6.3246
0
LINE
8
NFC_COIL
10
6.2834
20
6.3246
11
6.5835
21
6.0063
0
LINE
8
NFC_COIL
10
6.5835
20
6.0063
11
6.8676
21
5.6738
0
LINE
8
NFC_COIL
10
6.8676
20
5.6738
11
7.1349
21
5.3279
0
LINE
8
NFC_COIL
10
7.1349
20
5.3279
11
7.3848
21
4.9694
0
LINE
8
NFC_COIL
10
7.3848
20
4.9694
11
7.6168
21
4.5993
0
LINE
8
NFC_COIL
10
7.6168
20
4.5993
11
7.8302
21
4.2183
0
LINE
8
NFC_COIL
10
7.8302
20
4.2183
11
8.0245
21
3.8275
0
LINE
8
NFC_COIL
10
8.0245
20
3.8275
11
8.1994
21
3.4278
0
LINE
8
NFC_COIL
10
8.1994
20
3.4278
11
8.3545
21
3.0201
0
LINE
8
NFC_COIL
10
8.3545
20
3.0201
11
8.4892
21
2.6055
0
LINE
8
NFC_COIL
10
8.4892
20
2.6055
11
8.6034
21
2.1850
0
LINE
8
NFC_COIL
10
8.6034
20
2.1850
11
8.6968
21
1.7595
0
LINE
8
NFC_COIL
10
8.6968
20
1.7595
11
8.7692
21
1.3301
0
LINE
8
NFC_COIL
10
8.7692
20
1.3301
11
8.8204
21
0.8979
0
LINE
8
NFC_COIL
10
8.8204
20
0.8979
11
8.8504
21
0.4638
0
LINE
8
NFC_COIL
10
8.8504
20
0.4638
11
8.8589
21
0.0290
0
LINE
8
NFC_COIL
10
8.8589
20
0.0290
11
8.8462
21
-0.4056
0
LINE
8
NFC_COIL
10
8.8462
20
-0.4056
11
8.8121
21
-0.8388
0
LINE
8
NFC_COIL
10
8.8121
20
-0.8388
11
8.7569
21
-1.2697
0
LINE
8
NFC_COIL
10
8.7569
20
-1.2697
11
8.6806
21
-1.6972
0
LINE
8
NFC_COIL
10
8.6806
20
-1.6972
11
8.5834
21
-2.1202
0
LINE
8
NFC_COIL
10
8.5834
20
-2.1202
11
8.4657
21
-2.5378
0
LINE
8
NFC_COIL
10
8.4657
20
-2.5378
11
8.3276
21
-2.9490
0
LINE
8
NFC_COIL
10
8.3276
20
-2.9490
11
8.1697
21
-3.3527
0
LINE
8
NFC_COIL
10
8.1697
20
-3.3527
11
7.9921
21
-3.7480
0
LINE
8
NFC_COIL
10
7.9921
20
-3.7480
11
7.7955
21
-4.1340
0
LINE
8
NFC_COIL
10
7.7955
20
-4.1340
11
7.5802
21
-4.5098
0
LINE
8
NFC_COIL
10
7.5802
20
-4.5098
11
7.3469
21
-4.8743
0
LINE
8
NFC_COIL
10
7.3469
20
-4.8743
11
7.0960
21
-5.2269
0
LINE
8
NFC_COIL
10
7.0960
20
-5.2269
11
6.8283
21
-5.5665
0
LINE
8
NFC_COIL
10
6.8283
20
-5.5665
11
6.5443
21
-5.8925
0
LINE
8
NFC_COIL
10
6.5443
20
-5.8925
11
6.2448
21
-6.2041
0
LINE
8
NFC_COIL
10
6.2448
20
-6.2041
11
5.9305
21
-6.5004
0
LINE
8
NFC_COIL
10
5.9305
20
-6.5004
11
5.6022
21
-6.7809
0
LINE
8
NFC_COIL
10
5.6022
20
-6.7809
11
5.2606
21
-7.0448
0
LINE
8
NFC_COIL
10
5.2606
20
-7.0448
11
4.9066
21
-7.2915
0
LINE
8
NFC_COIL
10
4.9066
20
-7.2915
11
4.5411
21
-7.5205
0
LINE
8
NFC_COIL
10
4.5411
20
-7.5205
11
4.1650
21
-7.7311
0
LINE
8
NFC_COIL
10
4.1650
20
-7.7311
11
3.7791
21
-7.9230
0
LINE
8
NFC_COIL
10
3.7791
20
-7.9230
11
3.3844
21
-8.0956
0
LINE
8
NFC_COIL
10
3.3844
20
-8.0956
11
2.9819
21
-8.2487
0
LINE
8
NFC_COIL
10
2.9819
20
-8.2487
11
2.5725
21
-8.3817
0
LINE
8
NFC_COIL
10
2.5725
20
-8.3817
11
2.1573
21
-8.4944
0
LINE
8
NFC_COIL
10
2.1573
20
-8.4944
11
1.7372
21
-8.5866
0
LINE
8
NFC_COIL
10
1.7372
20
-8.5866
11
1.3133
21
-8.6580
0
LINE
8
NFC_COIL
10
1.3133
20
-8.6580
11
0.8865
21
-8.7085
0
LINE
8
NFC_COIL
10
0.8865
20
-8.7085
11
0.4579
21
-8.7380
0
LINE
8
NFC_COIL
10
0.4579
20
-8.7380
11
0.0286
21
-8.7464
0
LINE
8
NFC_COIL
10
0.0286
20
-8.7464
11
-0.4004
21
-8.7338
0
LINE
8
NFC_COIL
10
-0.4004
20
-8.7338
11
-0.8281
21
-8.7001
0
LINE
8
NFC_COIL
10
-0.8281
20
-8.7001
11
-1.2535
21
-8.6455
0
LINE
8
NFC_COIL
10
-1.2535
20
-8.6455
11
-1.6756
21
-8.5702
0
LINE
8
NFC_COIL
10
-1.6756
20
-8.5702
11
-2.0932
21
-8.4742
0
LINE
8
NFC_COIL
10
-2.0932
20
-8.4742
11
-2.5055
21
-8.3579
0
LINE
8
NFC_COIL
10
-2.5055
20
-8.3579
11
-2.9114
21
-8.2216
0
LINE
8
NFC_COIL
10
-2.9114
20
-8.2216
11
-3.3100
21
-8.0656
0
LINE
8
NFC_COIL
10
-3.3100
20
-8.0656
11
-3.7003
21
-7.8903
0
LINE
8
NFC_COIL
10
-3.7003
20
-7.8903
11
-4.0813
21
-7.6961
0
LINE
8
NFC_COIL
10
-4.0813
20
-7.6961
11
-4.4522
21
-7.4835
0
LINE
8
NFC_COIL
10
-4.4522
20
-7.4835
11
-4.8121
21
-7.2531
0
LINE
8
NFC_COIL
10
-4.8121
20
-7.2531
11
-5.1602
21
-7.0055
0
LINE
8
NFC_COIL
10
-5.1602
20
-7.0055
11
-5.4955
21
-6.7411
0
LINE
8
NFC_COIL
10
-5.4955
20
-6.7411
11
-5.8173
21
-6.4607
0
LINE
8
NFC_COIL
10
-5.8173
20
-6.4607
11
-6.1248
21
-6.1650
0
LINE
8
NFC_COIL
10
-6.1248
20
-6.1650
11
-6.4173
21
-5.8547
0
LINE
8
NFC_COIL
10
-6.4173
20
-5.8547
11
-6.6941
21
-5.5305
0
LINE
8
NFC_COIL
10
-6.6941
20
-5.5305
11
-6.9546
21
-5.1933
0
LINE
8
NFC_COIL
10
-6.9546
20
-5.1933
11
-7.1982
21
-4.8438
0
LINE
8
NFC_COIL
10
-7.1982
20
-4.8438
11
-7.4242
21
-4.4830
0
LINE
8
NFC_COIL
10
-7.4242
20
-4.4830
11
-7.6321
21
-4.1116
0
LINE
8
NFC_COIL
10
-7.6321
20
-4.1116
11
-7.8215
21
-3.7306
0
LINE
8
NFC_COIL
10
-7.8215
20
-3.7306
11
-7.9919
21
-3.3410
0
LINE
8
NFC_COIL
10
-7.9919
20
-3.3410
11
-8.1429
21
-2.9437
0
LINE
8
NFC_COIL
10
-8.1429
20
-2.9437
11
-8.2741
21
-2.5395
0
LINE
8
NFC_COIL
10
-8.2741
20
-2.5395
11
-8.3854
21
-2.1296
0
LINE
8
NFC_COIL
10
-8.3854
20
-2.1296
11
-8.4763
21
-1.7149
0
LINE
8
NFC_COIL
10
-8.4763
20
-1.7149
11
-8.5468
21
-1.2964
0
LINE
8
NFC_COIL
10
-8.5468
20
-1.2964
11
-8.5966
21
-0.8751
0
LINE
8
NFC_COIL
10
-8.5966
20
-0.8751
11
-8.6257
21
-0.4521
0
LINE
8
NFC_COIL
10
-8.6257
20
-0.4521
11
-8.6339
21
-0.0283
0
LINE
8
NFC_COIL
10
-8.6339
20
-0.0283
11
-8.6214
21
0.3953
0
LINE
8
NFC_COIL
10
-8.6214
20
0.3953
11
-8.5881
21
0.8175
0
LINE
8
NFC_COIL
10
-8.5881
20
0.8175
11
-8.5342
21
1.2374
0
LINE
8
NFC_COIL
10
-8.5342
20
1.2374
11
-8.4598
21
1.6540
0
LINE
8
NFC_COIL
10
-8.4598
20
1.6540
11
-8.3650
21
2.0663
0
LINE
8
NFC_COIL
10
-8.3650
20
2.0663
11
-8.2502
21
2.4732
0
LINE
8
NFC_COIL
10
-8.2502
20
2.4732
11
-8.1156
21
2.8739
0
LINE
8
NFC_COIL
10
-8.1156
20
2.8739
11
-7.9615
21
3.2673
0
LINE
8
NFC_COIL
10
-7.9615
20
3.2673
11
-7.7884
21
3.6525
0
LINE
8
NFC_COIL
10
-7.7884
20
3.6525
11
-7.5967
21
4.0286
0
LINE
8
NFC_COIL
10
-7.5967
20
4.0286
11
-7.3869
21
4.3947
0
LINE
8
NFC_COIL
10
-7.3869
20
4.3947
11
-7.1594
21
4.7499
0
LINE
8
NFC_COIL
10
-7.1594
20
4.7499
11
-6.9149
21
5.0934
0
LINE
8
NFC_COIL
10
-6.9149
20
5.0934
11
-6.6539
21
5.4244
0
LINE
8
NFC_COIL
10
-6.6539
20
5.4244
11
-6.3771
21
5.7420
0
LINE
8
NFC_COIL
10
-6.3771
20
5.7420
11
-6.0852
21
6.0455
0
LINE
8
NFC_COIL
10
-6.0852
20
6.0455
11
-5.7789
21
6.3342
0
LINE
8
NFC_COIL
10
-5.7789
20
6.3342
11
-5.4588
21
6.6074
0
LINE
8
NFC_COIL
10
-5.4588
20
6.6074
11
-5.1260
21
6.8645
0
LINE
8
NFC_COIL
10
-5.1260
20
6.8645
11
-4.7810
21
7.1048
0
LINE
8
NFC_COIL
10
-4.7810
20
7.1048
11
-4.4248
21
7.3279
0
LINE
8
NFC_COIL
10
-4.4248
20
7.3279
11
-4.0582
21
7.5330
0
LINE
8
NFC_COIL
10
-4.0582
20
7.5330
11
-3.6822
21
7.7199
0
LINE
8
NFC_COIL
10
-3.6822
20
7.7199
11
-3.2976
21
7.8881
0
LINE
8
NFC_COIL
10
-3.2976
20
7.8881
11
-2.9054
21
8.0371
0
LINE
8
NFC_COIL
10
-2.9054
20
8.0371
11
-2.5065
21
8.1666
0
LINE
8
NFC_COIL
10
-2.5065
20
8.1666
11
-2.1019
21
8.2763
0
LINE
8
NFC_COIL
10
-2.1019
20
8.2763
11
-1.6926
21
8.3660
0
LINE
8
NFC_COIL
10
-1.6926
20
8.3660
11
-1.2795
21
8.4355
0
LINE
8
NFC_COIL
10
-1.2795
20
8.4355
11
-0.8637
21
8.4847
0
LINE
8
NFC_COIL
10
-0.8637
20
8.4847
11
-0.4462
21
8.5133
0
ENDSEC
0
EOF
