0
SECTION
2
HEADER
0
ENDSEC
0
SECTION
2
ENTITIES
0
LINE
8
NFC_COIL
10
0.2347
20
13.4480
11
0.8940
21
13.4156
0
LINE
8
NFC_COIL
10
0.8940
20
13.4156
11
1.5507
21
13.3509
0
LINE
8
NFC_COIL
10
1.5507
20
13.3509
11
2.2031
21
13.2541
0
LINE
8
NFC_COIL
10
2.2031
20
13.2541
11
2.8498
21
13.1254
0
LINE
8
NFC_COIL
10
2.8498
20
13.1254
11
3.4892
21
12.9653
0
LINE
8
NFC_COIL
10
3.4892
20
12.9653
11
4.1197
21
12.7740
0
LINE
8
NFC_COIL
10
4.1197
20
12.7740
11
4.7399
21
12.5521
0
LINE
8
NFC_COIL
10
4.7399
20
12.5521
11
5.3482
21
12.3001
0
LINE
8
NFC_COIL
10
5.3482
20
12.3001
11
5.9432
21
12.0186
0
LINE
8
NFC_COIL
10
5.9432
20
12.0186
11
6.5235
21
11.7084
0
LINE
8
NFC_COIL
10
6.5235
20
11.7084
11
7.0877
21
11.3703
0
LINE
8
NFC_COIL
10
7.0877
20
11.3703
11
7.6344
21
11.0049
0
LINE
8
NFC_COIL
10
7.6344
20
11.0049
11
8.1623
21
10.6134
0
LINE
8
NFC_COIL
10
8.1623
20
10.6134
11
8.6702
21
10.1965
0
LINE
8
NFC_COIL
10
8.6702
20
10.1965
11
9.1569
21
9.7554
0
LINE
8
NFC_COIL
10
9.1569
20
9.7554
11
9.6212
21
9.2911
0
LINE
8
NFC_COIL
10
9.6212
20
9.2911
11
10.0619
21
8.8047
0
LINE
8
NFC_COIL
10
10.0619
20
8.8047
11
10.4782
21
8.2975
0
LINE
8
NFC_COIL
10
10.4782
20
8.2975
11
10.8689
21
7.7706
0
LINE
8
NFC_COIL
10
10.8689
20
7.7706
11
11.2331
21
7.2254
0
LINE
8
NFC_COIL
10
11.2331
20
7.2254
11
11.5701
21
6.6632
0
LINE
8
NFC_COIL
10
11.5701
20
6.6632
11
11.8789
21
6.0853
0
LINE
8
NFC_COIL
10
11.8789
20
6.0853
11
12.1589
21
5.4932
0
LINE
8
NFC_COIL
10
12.1589
20
5.4932
11
12.4094
21
4.8882
0
LINE
8
NFC_COIL
10
12.4094
20
4.8882
11
12.6299
21
4.2719
0
LINE
8
NFC_COIL
10
12.6299
20
4.2719
11
12.8198
21
3.6458
0
LINE
8
NFC_COIL
10
12.8198
20
3.6458
11
12.9787
21
3.0113
0
LINE
8
NFC_COIL
10
12.9787
20
3.0113
11
13.1062
21
2.3700
0
LINE
8
NFC_COIL
10
13.1062
20
2.3700
11
13.2020
21
1.7234
0
LINE
8
NFC_COIL
10
13.2020
20
1.7234
11
13.2660
21
1.0732
0
LINE
8
NFC_COIL
10
13.2660
20
1.0732
11
13.2980
21
0.4208
0
LINE
8
NFC_COIL
10
13.2980
20
0.4208
11
13.2980
21
-0.2321
0
LINE
8
NFC_COIL
10
13.2980
20
-0.2321
11
13.2659
21
-0.8840
0
LINE
8
NFC_COIL
10
13.2659
20
-0.8840
11
13.2019
21
-1.5333
0
LINE
8
NFC_COIL
10
13.2019
20
-1.5333
11
13.1061
21
-2.1785
0
LINE
8
NFC_COIL
10
13.1061
20
-2.1785
11
12.9789
21
-2.8180
0
LINE
8
NFC_COIL
10
12.9789
20
-2.8180
11
12.8204
21
-3.4502
0
LINE
8
NFC_COIL
10
12.8204
20
-3.4502
11
12.6312
21
-4.0737
0
LINE
8
NFC_COIL
10
12.6312
20
-4.0737
11
12.4117
21
-4.6869
0
LINE
8
NFC_COIL
10
12.4117
20
-4.6869
11
12.1625
21
-5.2884
0
LINE
8
NFC_COIL
10
12.1625
20
-5.2884
11
11.8842
21
-5.8767
0
LINE
8
NFC_COIL
10
11.8842
20
-5.8767
11
11.5774
21
-6.4505
0
LINE
8
NFC_COIL
10
11.5774
20
-6.4505
11
11.2430
21
-7.0083
0
LINE
8
NFC_COIL
10
11.2430
20
-7.0083
11
10.8817
21
-7.5489
0
LINE
8
NFC_COIL
10
10.8817
20
-7.5489
11
10.4945
21
-8.0709
0
LINE
8
NFC_COIL
10
10.4945
20
-8.0709
11
10.0822
21
-8.5731
0
LINE
8
NFC_COIL
10
10.0822
20
-8.5731
11
9.6460
21
-9.0542
0
LINE
8
NFC_COIL
10
9.6460
20
-9.0542
11
9.1869
21
-9.5133
0
LINE
8
NFC_COIL
10
9.1869
20
-9.5133
11
8.7059
21
-9.9491
0
LINE
8
NFC_COIL
10
8.7059
20
-9.9491
11
8.2043
21
-10.3606
0
LINE
8
NFC_COIL
10
8.2043
20
-10.3606
11
7.6834
21
-10.7469
0
LINE
8
NFC_COIL
10
7.6834
20
-10.7469
11
7.1442
21
-11.1070
0
LINE
8
NFC_COIL
10
7.1442
20
-11.1070
11
6.5883
21
-11.4401
0
LINE
8
NFC_COIL
10
6.5883
20
-11.4401
11
6.0169
21
-11.7454
0
LINE
8
NFC_COIL
10
6.0169
20
-11.7454
11
5.4314
21
-12.0222
0
LINE
8
NFC_COIL
10
5.4314
20
-12.0222
11
4.8332
21
-12.2699
0
LINE
8
NFC_COIL
10
4.8332
20
-12.2699
11
4.2239
21
-12.4878
0
LINE
8
NFC_COIL
10
4.2239
20
-12.4878
11
3.6047
21
-12.6755
0
LINE
8
NFC_COIL
10
3.6047
20
-12.6755
11
2.9774
21
-12.8326
0
LINE
8
NFC_COIL
10
2.9774
20
-12.8326
11
2.3433
21
-12.9586
0
LINE
8
NFC_COIL
10
2.3433
20
-12.9586
11
1.7040
21
-13.0533
0
LINE
8
NFC_COIL
10
1.7040
20
-13.0533
11
1.0611
21
-13.1165
0
LINE
8
NFC_COIL
10
1.0611
20
-13.1165
11
0.4161
21
-13.1481
0
LINE
8
NFC_COIL
10
0.4161
20
-13.1481
11
-0.2295
21
-13.1480
0
LINE
8
NFC_COIL
10
-0.2295
20
-13.1480
11
-0.8741
21
-13.1162
0
LINE
8
NFC_COIL
10
-0.8741
20
-13.1162
11
-1.5160
21
-13.0529
0
LINE
8
NFC_COIL
10
-1.5160
20
-13.0529
11
-2.1539
21
-12.9581
0
LINE
8
NFC_COIL
10
-2.1539
20
-12.9581
11
-2.7862
21
-12.8323
0
LINE
8
NFC_COIL
10
-2.7862
20
-12.8323
11
-3.4112
21
-12.6756
0
LINE
8
NFC_COIL
10
-3.4112
20
-12.6756
11
-4.0276
21
-12.4885
0
LINE
8
NFC_COIL
10
-4.0276
20
-12.4885
11
-4.6339
21
-12.2714
0
LINE
8
NFC_COIL
10
-4.6339
20
-12.2714
11
-5.2286
21
-12.0250
0
LINE
8
NFC_COIL
10
-5.2286
20
-12.0250
11
-5.8103
21
-11.7497
0
LINE
8
NFC_COIL
10
-5.8103
20
-11.7497
11
-6.3775
21
-11.4464
0
LINE
8
NFC_COIL
10
-6.3775
20
-11.4464
11
-6.9290
21
-11.1157
0
LINE
8
NFC_COIL
10
-6.9290
20
-11.1157
11
-7.4634
21
-10.7584
0
LINE
8
NFC_COIL
10
-7.4634
20
-10.7584
11
-7.9794
21
-10.3756
0
LINE
8
NFC_COIL
10
-7.9794
20
-10.3756
11
-8.4759
21
-9.9680
0
LINE
8
NFC_COIL
10
-8.4759
20
-9.9680
11
-8.9516
21
-9.5366
0
LINE
8
NFC_COIL
10
-8.9516
20
-9.5366
11
-9.4054
21
-9.0827
0
LINE
8
NFC_COIL
10
-9.4054
20
-9.0827
11
-9.8362
21
-8.6071
0
LINE
8
NFC_COIL
10
-9.8362
20
-8.6071
11
-10.2430
21
-8.1112
0
LINE
8
NFC_COIL
10
-10.2430
20
-8.1112
11
-10.6248
21
-7.5961
0
LINE
8
NFC_COIL
10
-10.6248
20
-7.5961
11
-10.9808
21
-7.0631
0
LINE
8
NFC_COIL
10
-10.9808
20
-7.0631
11
-11.3101
21
-6.5134
0
LINE
8
NFC_COIL
10
-11.3101
20
-6.5134
11
-11.6119
21
-5.9485
0
LINE
8
NFC_COIL
10
-11.6119
20
-5.9485
11
-11.8855
21
-5.3696
0
LINE
8
NFC_COIL
10
-11.8855
20
-5.3696
11
-12.1303
21
-4.7783
0
LINE
8
NFC_COIL
10
-12.1303
20
-4.7783
11
-12.3457
21
-4.1758
0
LINE
8
NFC_COIL
10
-12.3457
20
-4.1758
11
-12.5312
21
-3.5637
0
LINE
8
NFC_COIL
10
-12.5312
20
-3.5637
11
-12.6864
21
-2.9435
0
LINE
8
NFC_COIL
10
-12.6864
20
-2.9435
11
-12.8110
21
-2.3166
0
LINE
8
NFC_COIL
10
-12.8110
20
-2.3166
11
-12.9046
21
-1.6846
0
LINE
8
NFC_COIL
10
-12.9046
20
-1.6846
11
-12.9670
21
-1.0490
0
LINE
8
NFC_COIL
10
-12.9670
20
-1.0490
11
-12.9982
21
-0.4113
0
LINE
8
NFC_COIL
10
-12.9982
20
-0.4113
11
-12.9980
21
0.2269
0
LINE
8
NFC_COIL
10
-12.9980
20
0.2269
11
-12.9666
21
0.8641
0
LINE
8
NFC_COIL
10
-12.9666
20
0.8641
11
-12.9039
21
1.4987
0
LINE
8
NFC_COIL
10
-12.9039
20
1.4987
11
-12.8102
21
2.1293
0
LINE
8
NFC_COIL
10
-12.8102
20
2.1293
11
-12.6857
21
2.7543
0
LINE
8
NFC_COIL
10
-12.6857
20
2.7543
11
-12.5307
21
3.3723
0
LINE
8
NFC_COIL
10
-12.5307
20
3.3723
11
-12.3457
21
3.9816
0
LINE
8
NFC_COIL
10
-12.3457
20
3.9816
11
-12.1311
21
4.5809
0
LINE
8
NFC_COIL
10
-12.1311
20
4.5809
11
-11.8874
21
5.1688
0
LINE
8
NFC_COIL
10
-11.8874
20
5.1688
11
-11.6153
21
5.7438
0
LINE
8
NFC_COIL
10
-11.6153
20
5.7438
11
-11.3153
21
6.3045
0
LINE
8
NFC_COIL
10
-11.3153
20
6.3045
11
-10.9884
21
6.8496
0
LINE
8
NFC_COIL
10
-10.9884
20
6.8496
11
-10.6352
21
7.3779
0
LINE
8
NFC_COIL
10
-10.6352
20
7.3779
11
-10.2567
21
7.8880
0
LINE
8
NFC_COIL
10
-10.2567
20
7.8880
11
-9.8537
21
8.3787
0
LINE
8
NFC_COIL
10
-9.8537
20
8.3787
11
-9.4273
21
8.8489
0
LINE
8
NFC_COIL
10
-9.4273
20
8.8489
11
-8.9785
21
9.2975
0
LINE
8
NFC_COIL
10
-8.9785
20
9.2975
11
-8.5084
21
9.7233
0
LINE
8
NFC_COIL
10
-8.5084
20
9.7233
11
-8.0181
21
10.1254
0
LINE
8
NFC_COIL
10
-8.0181
20
10.1254
11
-7.5089
21
10.5028
0
LINE
8
NFC_COIL
10
-7.5089
20
10.5028
11
-6.9820
21
10.8547
0
LINE
8
NFC_COIL
10
-6.9820
20
10.8547
11
-6.4386
21
11.1801
0
LINE
8
NFC_COIL
10
-6.4386
20
11.1801
11
-5.8801
21
11.4784
0
LINE
8
NFC_COIL
10
-5.8801
20
11.4784
11
-5.3079
21
11.7488
0
LINE
8
NFC_COIL
10
-5.3079
20
11.7488
11
-4.7233
21
11.9908
0
LINE
8
NFC_COIL
10
-4.7233
20
11.9908
11
-4.1277
21
12.2036
0
LINE
8
NFC_COIL
10
-4.1277
20
12.2036
11
-3.5227
21
12.3870
0
LINE
8
NFC_COIL
10
-3.5227
20
12.3870
11
-2.9096
21
12.5403
0
LINE
8
NFC_COIL
10
-2.9096
20
12.5403
11
-2.2899
21
12.6634
0
LINE
8
NFC_COIL
10
-2.2899
20
12.6634
11
-1.6652
21
12.7558
0
LINE
8
NFC_COIL
10
-1.6652
20
12.7558
11
-1.0369
21
12.8175
0
LINE
8
NFC_COIL
10
-1.0369
20
12.8175
11
-0.4066
21
12.8483
0
LINE
8
NFC_COIL
10
-0.4066
20
12.8483
11
0.2243
21
12.8480
0
LINE
8
NFC_COIL
10
0.2243
20
12.8480
11
0.8541
21
12.8169
0
LINE
8
NFC_COIL
10
0.8541
20
12.8169
11
1.4814
21
12.7549
0
LINE
8
NFC_COIL
10
1.4814
20
12.7549
11
2.1047
21
12.6622
0
LINE
8
NFC_COIL
10
2.1047
20
12.6622
11
2.7225
21
12.5391
0
LINE
8
NFC_COIL
10
2.7225
20
12.5391
11
3.3333
21
12.3859
0
LINE
8
NFC_COIL
10
3.3333
20
12.3859
11
3.9356
21
12.2029
0
LINE
8
NFC_COIL
10
3.9356
20
12.2029
11
4.5279
21
11.9907
0
LINE
8
NFC_COIL
10
4.5279
20
11.9907
11
5.1090
21
11.7498
0
LINE
8
NFC_COIL
10
5.1090
20
11.7498
11
5.6773
21
11.4808
0
LINE
8
NFC_COIL
10
5.6773
20
11.4808
11
6.2315
21
11.1843
0
LINE
8
NFC_COIL
10
6.2315
20
11.1843
11
6.7703
21
10.8611
0
LINE
8
NFC_COIL
10
6.7703
20
10.8611
11
7.2924
21
10.5119
0
LINE
8
NFC_COIL
10
7.2924
20
10.5119
11
7.7966
21
10.1377
0
LINE
8
NFC_COIL
10
7.7966
20
10.1377
11
8.2816
21
9.7394
0
LINE
8
NFC_COIL
10
8.2816
20
9.7394
11
8.7463
21
9.3179
0
LINE
8
NFC_COIL
10
8.7463
20
9.3179
11
9.1896
21
8.8743
0
LINE
8
NFC_COIL
10
9.1896
20
8.8743
11
9.6104
21
8.4096
0
LINE
8
NFC_COIL
10
9.6104
20
8.4096
11
10.0078
21
7.9250
0
LINE
8
NFC_COIL
10
10.0078
20
7.9250
11
10.3808
21
7.4216
0
LINE
8
NFC_COIL
10
10.3808
20
7.4216
11
10.7285
21
6.9008
0
LINE
8
NFC_COIL
10
10.7285
20
6.9008
11
11.0501
21
6.3637
0
LINE
8
NFC_COIL
10
11.0501
20
6.3637
11
11.3449
21
5.8117
0
LINE
8
NFC_COIL
10
11.3449
20
5.8117
11
11.6121
21
5.2461
0
LINE
8
NFC_COIL
10
11.6121
20
5.2461
11
11.8512
21
4.6683
0
LINE
8
NFC_COIL
10
11.8512
20
4.6683
11
12.0615
21
4.0797
0
LINE
8
NFC_COIL
10
12.0615
20
4.0797
11
12.2427
21
3.4816
0
LINE
8
NFC_COIL
10
12.2427
20
3.4816
11
12.3942
21
2.8757
0
LINE
8
NFC_COIL
10
12.3942
20
2.8757
11
12.5158
21
2.2632
0
LINE
8
NFC_COIL
10
12.5158
20
2.2632
11
12.6071
21
1.6458
0
LINE
8
NFC_COIL
10
12.6071
20
1.6458
11
12.6680
21
1.0248
0
LINE
8
NFC_COIL
10
12.6680
20
1.0248
11
12.6983
21
0.4018
0
LINE
8
NFC_COIL
10
12.6983
20
0.4018
11
12.6981
21
-0.2216
0
LINE
8
NFC_COIL
10
12.6981
20
-0.2216
11
12.6672
21
-0.8441
0
LINE
8
NFC_COIL
10
12.6672
20
-0.8441
11
12.6059
21
-1.4641
0
LINE
8
NFC_COIL
10
12.6059
20
-1.4641
11
12.5142
21
-2.0801
0
LINE
8
NFC_COIL
10
12.5142
20
-2.0801
11
12.3925
21
-2.6907
0
LINE
8
NFC_COIL
10
12.3925
20
-2.6907
11
12.2410
21
-3.2943
0
LINE
8
NFC_COIL
10
12.2410
20
-3.2943
11
12.0602
21
-3.8895
0
LINE
8
NFC_COIL
10
12.0602
20
-3.8895
11
11.8504
21
-4.4749
0
LINE
8
NFC_COIL
10
11.8504
20
-4.4749
11
11.6123
21
-5.0492
0
LINE
8
NFC_COIL
10
11.6123
20
-5.0492
11
11.3463
21
-5.6108
0
LINE
8
NFC_COIL
10
11.3463
20
-5.6108
11
11.0533
21
-6.1585
0
LINE
8
NFC_COIL
10
11.0533
20
-6.1585
11
10.7338
21
-6.6909
0
LINE
8
NFC_COIL
10
10.7338
20
-6.6909
11
10.3887
21
-7.2069
0
LINE
8
NFC_COIL
10
10.3887
20
-7.2069
11
10.0188
21
-7.7051
0
LINE
8
NFC_COIL
10
10.0188
20
-7.7051
11
9.6251
21
-8.1844
0
LINE
8
NFC_COIL
10
9.6251
20
-8.1844
11
9.2085
21
-8.6436
0
LINE
8
NFC_COIL
10
9.2085
20
-8.6436
11
8.7701
21
-9.0817
0
LINE
8
NFC_COIL
10
8.7701
20
-9.0817
11
8.3108
21
-9.4975
0
LINE
8
NFC_COIL
10
8.3108
20
-9.4975
11
7.8319
21
-9.8902
0
LINE
8
NFC_COIL
10
7.8319
20
-9.8902
11
7.3344
21
-10.2588
0
LINE
8
NFC_COIL
10
7.3344
20
-10.2588
11
6.8197
21
-10.6023
0
LINE
8
NFC_COIL
10
6.8197
20
-10.6023
11
6.2889
21
-10.9201
0
LINE
8
NFC_COIL
10
6.2889
20
-10.9201
11
5.7433
21
-11.2114
0
LINE
8
NFC_COIL
10
5.7433
20
-11.2114
11
5.1844
21
-11.4754
0
LINE
8
NFC_COIL
10
5.1844
20
-11.4754
11
4.6133
21
-11.7116
0
LINE
8
NFC_COIL
10
4.6133
20
-11.7116
11
4.0316
21
-11.9194
0
LINE
8
NFC_COIL
10
4.0316
20
-11.9194
11
3.4406
21
-12.0984
0
LINE
8
NFC_COIL
10
3.4406
20
-12.0984
11
2.8418
21
-12.2481
0
LINE
8
NFC_COIL
10
2.8418
20
-12.2481
11
2.2365
21
-12.3682
0
LINE
8
NFC_COIL
10
2.2365
20
-12.3682
11
1.6264
21
-12.4584
0
LINE
8
NFC_COIL
10
1.6264
20
-12.4584
11
1.0127
21
-12.5185
0
LINE
8
NFC_COIL
10
1.0127
20
-12.5185
11
0.3971
21
-12.5484
0
LINE
8
NFC_COIL
10
0.3971
20
-12.5484
11
-0.2190
21
-12.5481
0
LINE
8
NFC_COIL
10
-0.2190
20
-12.5481
11
-0.8342
21
-12.5175
0
LINE
8
NFC_COIL
10
-0.8342
20
-12.5175
11
-1.4468
21
-12.4569
0
LINE
8
NFC_COIL
10
-1.4468
20
-12.4569
11
-2.0555
21
-12.3663
0
LINE
8
NFC_COIL
10
-2.0555
20
-12.3663
11
-2.6589
21
-12.2459
0
LINE
8
NFC_COIL
10
-2.6589
20
-12.2459
11
-3.2553
21
-12.0962
0
LINE
8
NFC_COIL
10
-3.2553
20
-12.0962
11
-3.8435
21
-11.9174
0
LINE
8
NFC_COIL
10
-3.8435
20
-11.9174
11
-4.4220
21
-11.7101
0
LINE
8
NFC_COIL
10
-4.4220
20
-11.7101
11
-4.9893
21
-11.4747
0
LINE
8
NFC_COIL
10
-4.9893
20
-11.4747
11
-5.5443
21
-11.2119
0
LINE
8
NFC_COIL
10
-5.5443
20
-11.2119
11
-6.0855
21
-10.9222
0
LINE
8
NFC_COIL
10
-6.0855
20
-10.9222
11
-6.6116
21
-10.6065
0
LINE
8
NFC_COIL
10
-6.6116
20
-10.6065
11
-7.1214
21
-10.2655
0
LINE
8
NFC_COIL
10
-7.1214
20
-10.2655
11
-7.6137
21
-9.8999
0
LINE
8
NFC_COIL
10
-7.6137
20
-9.8999
11
-8.0872
21
-9.5109
0
LINE
8
NFC_COIL
10
-8.0872
20
-9.5109
11
-8.5409
21
-9.0992
0
LINE
8
NFC_COIL
10
-8.5409
20
-9.0992
11
-8.9738
21
-8.6659
0
LINE
8
NFC_COIL
10
-8.9738
20
-8.6659
11
-9.3846
21
-8.2120
0
LINE
8
NFC_COIL
10
-9.3846
20
-8.2120
11
-9.7726
21
-7.7387
0
LINE
8
NFC_COIL
10
-9.7726
20
-7.7387
11
-10.1367
21
-7.2472
0
LINE
8
NFC_COIL
10
-10.1367
20
-7.2472
11
-10.4762
21
-6.7385
0
LINE
8
NFC_COIL
10
-10.4762
20
-6.7385
11
-10.7902
21
-6.2140
0
LINE
8
NFC_COIL
10
-10.7902
20
-6.2140
11
-11.0779
21
-5.6749
0
LINE
8
NFC_COIL
10
-11.0779
20
-5.6749
11
-11.3387
21
-5.1226
0
LINE
8
NFC_COIL
10
-11.3387
20
-5.1226
11
-11.5721
21
-4.5584
0
LINE
8
NFC_COIL
10
-11.5721
20
-4.5584
11
-11.7774
21
-3.9836
0
LINE
8
NFC_COIL
10
-11.7774
20
-3.9836
11
-11.9541
21
-3.3996
0
LINE
8
NFC_COIL
10
-11.9541
20
-3.3996
11
-12.1020
21
-2.8079
0
LINE
8
NFC_COIL
10
-12.1020
20
-2.8079
11
-12.2206
21
-2.2098
0
LINE
8
NFC_COIL
10
-12.2206
20
-2.2098
11
-12.3096
21
-1.6069
0
LINE
8
NFC_COIL
10
-12.3096
20
-1.6069
11
-12.3690
21
-1.0006
0
LINE
8
NFC_COIL
10
-12.3690
20
-1.0006
11
-12.3985
21
-0.3923
0
LINE
8
NFC_COIL
10
-12.3985
20
-0.3923
11
-12.3981
21
0.2164
0
LINE
8
NFC_COIL
10
-12.3981
20
0.2164
11
-12.3679
21
0.8242
0
LINE
8
NFC_COIL
10
-12.3679
20
0.8242
11
-12.3079
21
1.4295
0
LINE
8
NFC_COIL
10
-12.3079
20
1.4295
11
-12.2183
21
2.0309
0
LINE
8
NFC_COIL
10
-12.2183
20
2.0309
11
-12.0993
21
2.6270
0
LINE
8
NFC_COIL
10
-12.0993
20
2.6270
11
-11.9513
21
3.2163
0
LINE
8
NFC_COIL
10
-11.9513
20
3.2163
11
-11.7747
21
3.7974
0
LINE
8
NFC_COIL
10
-11.7747
20
3.7974
11
-11.5698
21
4.3690
0
LINE
8
NFC_COIL
10
-11.5698
20
4.3690
11
-11.3372
21
4.9295
0
LINE
8
NFC_COIL
10
-11.3372
20
4.9295
11
-11.0774
21
5.4778
0
LINE
8
NFC_COIL
10
-11.0774
20
5.4778
11
-10.7912
21
6.0125
0
LINE
8
NFC_COIL
10
-10.7912
20
6.0125
11
-10.4792
21
6.5322
0
LINE
8
NFC_COIL
10
-10.4792
20
6.5322
11
-10.1422
21
7.0359
0
LINE
8
NFC_COIL
10
-10.1422
20
7.0359
11
-9.7810
21
7.5222
0
LINE
8
NFC_COIL
10
-9.7810
20
7.5222
11
-9.3966
21
7.9901
0
LINE
8
NFC_COIL
10
-9.3966
20
7.9901
11
-8.9898
21
8.4383
0
LINE
8
NFC_COIL
10
-8.9898
20
8.4383
11
-8.5617
21
8.8659
0
LINE
8
NFC_COIL
10
-8.5617
20
8.8659
11
-8.1132
21
9.2718
0
LINE
8
NFC_COIL
10
-8.1132
20
9.2718
11
-7.6456
21
9.6550
0
LINE
8
NFC_COIL
10
-7.6456
20
9.6550
11
-7.1599
21
10.0147
0
LINE
8
NFC_COIL
10
-7.1599
20
10.0147
11
-6.6574
21
10.3500
0
LINE
8
NFC_COIL
10
-6.6574
20
10.3500
11
-6.1392
21
10.6602
0
LINE
8
NFC_COIL
10
-6.1392
20
10.6602
11
-5.6066
21
10.9444
0
LINE
8
NFC_COIL
10
-5.6066
20
10.9444
11
-5.0609
21
11.2020
0
LINE
8
NFC_COIL
10
-5.0609
20
11.2020
11
-4.5034
21
11.4325
0
LINE
8
NFC_COIL
10
-4.5034
20
11.4325
11
-3.9355
21
11.6353
0
LINE
8
NFC_COIL
10
-3.9355
20
11.6353
11
-3.3586
21
11.8098
0
LINE
8
NFC_COIL
10
-3.3586
20
11.8098
11
-2.7740
21
11.9559
0
LINE
8
NFC_COIL
10
-2.7740
20
11.9559
11
-2.1831
21
12.0729
0
LINE
8
NFC_COIL
10
-2.1831
20
12.0729
11
-1.5875
21
12.1609
0
LINE
8
NFC_COIL
10
-1.5875
20
12.1609
11
-0.9885
21
12.2195
0
LINE
8
NFC_COIL
10
-0.9885
20
12.2195
11
-0.3876
21
12.2486
0
LINE
8
NFC_COIL
10
-0.3876
20
12.2486
11
0.2138
21
12.2481
0
LINE
8
NFC_COIL
10
0.2138
20
12.2481
11
0.8142
21
12.2182
0
LINE
8
NFC_COIL
10
0.8142
20
12.2182
11
1.4122
21
12.1589
0
LINE
8
NFC_COIL
10
1.4122
20
12.1589
11
2.0063
21
12.0703
0
LINE
8
NFC_COIL
10
2.0063
20
12.0703
11
2.5952
21
11.9528
0
LINE
8
NFC_COIL
10
2.5952
20
11.9528
11
3.1773
21
11.8065
0
LINE
8
NFC_COIL
10
3.1773
20
11.8065
11
3.7514
21
11.6319
0
LINE
8
NFC_COIL
10
3.7514
20
11.6319
11
4.3160
21
11.4294
0
LINE
8
NFC_COIL
10
4.3160
20
11.4294
11
4.8697
21
11.1996
0
LINE
8
NFC_COIL
10
4.8697
20
11.1996
11
5.4113
21
10.9430
0
LINE
8
NFC_COIL
10
5.4113
20
10.9430
11
5.9395
21
10.6602
0
LINE
8
NFC_COIL
10
5.9395
20
10.6602
11
6.4529
21
10.3519
0
LINE
8
NFC_COIL
10
6.4529
20
10.3519
11
6.9504
21
10.0190
0
LINE
8
NFC_COIL
10
6.9504
20
10.0190
11
7.4308
21
9.6621
0
LINE
8
NFC_COIL
10
7.4308
20
9.6621
11
7.8929
21
9.2823
0
LINE
8
NFC_COIL
10
7.8929
20
9.2823
11
8.3356
21
8.8804
0
LINE
8
NFC_COIL
10
8.3356
20
8.8804
11
8.7580
21
8.4575
0
LINE
8
NFC_COIL
10
8.7580
20
8.4575
11
9.1589
21
8.0145
0
LINE
8
NFC_COIL
10
9.1589
20
8.0145
11
9.5374
21
7.5525
0
LINE
8
NFC_COIL
10
9.5374
20
7.5525
11
9.8927
21
7.0727
0
LINE
8
NFC_COIL
10
9.8927
20
7.0727
11
10.2239
21
6.5762
0
LINE
8
NFC_COIL
10
10.2239
20
6.5762
11
10.5302
21
6.0643
0
LINE
8
NFC_COIL
10
10.5302
20
6.0643
11
10.8109
21
5.5382
0
LINE
8
NFC_COIL
10
10.8109
20
5.5382
11
11.0653
21
4.9991
0
LINE
8
NFC_COIL
10
11.0653
20
4.9991
11
11.2929
21
4.4484
0
LINE
8
NFC_COIL
10
11.2929
20
4.4484
11
11.4932
21
3.8874
0
LINE
8
NFC_COIL
10
11.4932
20
3.8874
11
11.6656
21
3.3175
0
LINE
8
NFC_COIL
10
11.6656
20
3.3175
11
11.8097
21
2.7401
0
LINE
8
NFC_COIL
10
11.8097
20
2.7401
11
11.9253
21
2.1565
0
LINE
8
NFC_COIL
10
11.9253
20
2.1565
11
12.0121
21
1.5681
0
LINE
8
NFC_COIL
10
12.0121
20
1.5681
11
12.0699
21
0.9764
0
LINE
8
NFC_COIL
10
12.0699
20
0.9764
11
12.0986
21
0.3829
0
LINE
8
NFC_COIL
10
12.0986
20
0.3829
11
12.0982
21
-0.2112
0
LINE
8
NFC_COIL
10
12.0982
20
-0.2112
11
12.0685
21
-0.8042
0
LINE
8
NFC_COIL
10
12.0685
20
-0.8042
11
12.0099
21
-1.3949
0
LINE
8
NFC_COIL
10
12.0099
20
-1.3949
11
11.9224
21
-1.9818
0
LINE
8
NFC_COIL
10
11.9224
20
-1.9818
11
11.8062
21
-2.5634
0
LINE
8
NFC_COIL
10
11.8062
20
-2.5634
11
11.6616
21
-3.1384
0
LINE
8
NFC_COIL
10
11.6616
20
-3.1384
11
11.4891
21
-3.7054
0
LINE
8
NFC_COIL
10
11.4891
20
-3.7054
11
11.2891
21
-4.2630
0
LINE
8
NFC_COIL
10
11.2891
20
-4.2630
11
11.0620
21
-4.8099
0
LINE
8
NFC_COIL
10
11.0620
20
-4.8099
11
10.8085
21
-5.3448
0
LINE
8
NFC_COIL
10
10.8085
20
-5.3448
11
10.5291
21
-5.8665
0
LINE
8
NFC_COIL
10
10.5291
20
-5.8665
11
10.2246
21
-6.3735
0
LINE
8
NFC_COIL
10
10.2246
20
-6.3735
11
9.8957
21
-6.8649
0
LINE
8
NFC_COIL
10
9.8957
20
-6.8649
11
9.5432
21
-7.3393
0
LINE
8
NFC_COIL
10
9.5432
20
-7.3393
11
9.1680
21
-7.7957
0
LINE
8
NFC_COIL
10
9.1680
20
-7.7957
11
8.7711
21
-8.2330
0
LINE
8
NFC_COIL
10
8.7711
20
-8.2330
11
8.3533
21
-8.6501
0
LINE
8
NFC_COIL
10
8.3533
20
-8.6501
11
7.9157
21
-9.0460
0
LINE
8
NFC_COIL
10
7.9157
20
-9.0460
11
7.4594
21
-9.4198
0
LINE
8
NFC_COIL
10
7.4594
20
-9.4198
11
6.9854
21
-9.7707
0
LINE
8
NFC_COIL
10
6.9854
20
-9.7707
11
6.4951
21
-10.0977
0
LINE
8
NFC_COIL
10
6.4951
20
-10.0977
11
5.9894
21
-10.4002
0
LINE
8
NFC_COIL
10
5.9894
20
-10.4002
11
5.4698
21
-10.6774
0
LINE
8
NFC_COIL
10
5.4698
20
-10.6774
11
4.9373
21
-10.9286
0
LINE
8
NFC_COIL
10
4.9373
20
-10.9286
11
4.3934
21
-11.1534
0
LINE
8
NFC_COIL
10
4.3934
20
-11.1534
11
3.8394
21
-11.3511
0
LINE
8
NFC_COIL
10
3.8394
20
-11.3511
11
3.2765
21
-11.5213
0
LINE
8
NFC_COIL
10
3.2765
20
-11.5213
11
2.7062
21
-11.6636
0
LINE
8
NFC_COIL
10
2.7062
20
-11.6636
11
2.1298
21
-11.7777
0
LINE
8
NFC_COIL
10
2.1298
20
-11.7777
11
1.5487
21
-11.8634
0
LINE
8
NFC_COIL
10
1.5487
20
-11.8634
11
0.9643
21
-11.9204
0
LINE
8
NFC_COIL
10
0.9643
20
-11.9204
11
0.3781
21
-11.9487
0
LINE
8
NFC_COIL
10
0.3781
20
-11.9487
11
-0.2086
21
-11.9482
0
LINE
8
NFC_COIL
10
-0.2086
20
-11.9482
11
-0.7943
21
-11.9189
0
LINE
8
NFC_COIL
10
-0.7943
20
-11.9189
11
-1.3776
21
-11.8609
0
LINE
8
NFC_COIL
10
-1.3776
20
-11.8609
11
-1.9572
21
-11.7744
0
LINE
8
NFC_COIL
10
-1.9572
20
-11.7744
11
-2.5315
21
-11.6596
0
LINE
8
NFC_COIL
10
-2.5315
20
-11.6596
11
-3.0994
21
-11.5168
0
LINE
8
NFC_COIL
10
-3.0994
20
-11.5168
11
-3.6593
21
-11.3464
0
LINE
8
NFC_COIL
10
-3.6593
20
-11.3464
11
-4.2100
21
-11.1488
0
LINE
8
NFC_COIL
10
-4.2100
20
-11.1488
11
-4.7501
21
-10.9245
0
LINE
8
NFC_COIL
10
-4.7501
20
-10.9245
11
-5.2783
21
-10.6740
0
LINE
8
NFC_COIL
10
-5.2783
20
-10.6740
11
-5.7934
21
-10.3981
0
LINE
8
NFC_COIL
10
-5.7934
20
-10.3981
11
-6.2942
21
-10.0973
0
LINE
8
NFC_COIL
10
-6.2942
20
-10.0973
11
-6.7794
21
-9.7725
0
LINE
8
NFC_COIL
10
-6.7794
20
-9.7725
11
-7.2479
21
-9.4243
0
LINE
8
NFC_COIL
10
-7.2479
20
-9.4243
11
-7.6986
21
-9.0538
0
LINE
8
NFC_COIL
10
-7.6986
20
-9.0538
11
-8.1303
21
-8.6617
0
LINE
8
NFC_COIL
10
-8.1303
20
-8.6617
11
-8.5422
21
-8.2491
0
LINE
8
NFC_COIL
10
-8.5422
20
-8.2491
11
-8.9331
21
-7.8169
0
LINE
8
NFC_COIL
10
-8.9331
20
-7.8169
11
-9.3022
21
-7.3662
0
LINE
8
NFC_COIL
10
-9.3022
20
-7.3662
11
-9.6487
21
-6.8982
0
LINE
8
NFC_COIL
10
-9.6487
20
-6.8982
11
-9.9716
21
-6.4139
0
LINE
8
NFC_COIL
10
-9.9716
20
-6.4139
11
-10.2702
21
-5.9146
0
LINE
8
NFC_COIL
10
-10.2702
20
-5.9146
11
-10.5439
21
-5.4014
0
LINE
8
NFC_COIL
10
-10.5439
20
-5.4014
11
-10.7919
21
-4.8756
0
LINE
8
NFC_COIL
10
-10.7919
20
-4.8756
11
-11.0138
21
-4.3385
0
LINE
8
NFC_COIL
10
-11.0138
20
-4.3385
11
-11.2090
21
-3.7913
0
LINE
8
NFC_COIL
10
-11.2090
20
-3.7913
11
-11.3770
21
-3.2355
0
LINE
8
NFC_COIL
10
-11.3770
20
-3.2355
11
-11.5175
21
-2.6723
0
LINE
8
NFC_COIL
10
-11.5175
20
-2.6723
11
-11.6301
21
-2.1031
0
LINE
8
NFC_COIL
10
-11.6301
20
-2.1031
11
-11.7147
21
-1.5293
0
LINE
8
NFC_COIL
10
-11.7147
20
-1.5293
11
-11.7709
21
-0.9522
0
LINE
8
NFC_COIL
10
-11.7709
20
-0.9522
11
-11.7988
21
-0.3734
0
LINE
8
NFC_COIL
10
-11.7988
20
-0.3734
11
-11.7982
21
0.2059
0
LINE
8
NFC_COIL
10
-11.7982
20
0.2059
11
-11.7692
21
0.7843
0
LINE
8
NFC_COIL
10
-11.7692
20
0.7843
11
-11.7119
21
1.3603
0
LINE
8
NFC_COIL
10
-11.7119
20
1.3603
11
-11.6264
21
1.9326
0
LINE
8
NFC_COIL
10
-11.6264
20
1.9326
11
-11.5130
21
2.4997
0
LINE
8
NFC_COIL
10
-11.5130
20
2.4997
11
-11.3720
21
3.0604
0
LINE
8
NFC_COIL
10
-11.3720
20
3.0604
11
-11.2036
21
3.6133
0
LINE
8
NFC_COIL
10
-11.2036
20
3.6133
11
-11.0085
21
4.1570
0
LINE
8
NFC_COIL
10
-11.0085
20
4.1570
11
-10.7869
21
4.6903
0
LINE
8
NFC_COIL
10
-10.7869
20
4.6903
11
-10.5396
21
5.2118
0
LINE
8
NFC_COIL
10
-10.5396
20
5.2118
11
-10.2671
21
5.7204
0
LINE
8
NFC_COIL
10
-10.2671
20
5.7204
11
-9.9700
21
6.2149
0
LINE
8
NFC_COIL
10
-9.9700
20
6.2149
11
-9.6492
21
6.6939
0
LINE
8
NFC_COIL
10
-9.6492
20
6.6939
11
-9.3054
21
7.1564
0
LINE
8
NFC_COIL
10
-9.3054
20
7.1564
11
-8.9395
21
7.6014
0
LINE
8
NFC_COIL
10
-8.9395
20
7.6014
11
-8.5523
21
8.0277
0
LINE
8
NFC_COIL
10
-8.5523
20
8.0277
11
-8.1449
21
8.4343
0
LINE
8
NFC_COIL
10
-8.1449
20
8.4343
11
-7.7181
21
8.8202
0
LINE
8
NFC_COIL
10
-7.7181
20
8.8202
11
-7.2731
21
9.1846
0
LINE
8
NFC_COIL
10
-7.2731
20
9.1846
11
-6.8110
21
9.5266
0
LINE
8
NFC_COIL
10
-6.8110
20
9.5266
11
-6.3328
21
9.8454
0
LINE
8
NFC_COIL
10
-6.3328
20
9.8454
11
-5.8397
21
10.1402
0
LINE
8
NFC_COIL
10
-5.8397
20
10.1402
11
-5.3330
21
10.4104
0
LINE
8
NFC_COIL
10
-5.3330
20
10.4104
11
-4.8138
21
10.6552
0
LINE
8
NFC_COIL
10
-4.8138
20
10.6552
11
-4.2835
21
10.8743
0
LINE
8
NFC_COIL
10
-4.2835
20
10.8743
11
-3.7432
21
11.0669
0
LINE
8
NFC_COIL
10
-3.7432
20
11.0669
11
-3.1944
21
11.2327
0
LINE
8
NFC_COIL
10
-3.1944
20
11.2327
11
-2.6384
21
11.3714
0
LINE
8
NFC_COIL
10
-2.6384
20
11.3714
11
-2.0764
21
11.4825
0
LINE
8
NFC_COIL
10
-2.0764
20
11.4825
11
-1.5099
21
11.5659
0
LINE
8
NFC_COIL
10
-1.5099
20
11.5659
11
-0.9401
21
11.6214
0
LINE
8
NFC_COIL
10
-0.9401
20
11.6214
11
-0.3686
21
11.6489
0
LINE
8
NFC_COIL
10
-0.3686
20
11.6489
11
0.2033
21
11.6482
0
LINE
8
NFC_COIL
10
0.2033
20
11.6482
11
0.7743
21
11.6195
0
LINE
8
NFC_COIL
10
0.7743
20
11.6195
11
1.3430
21
11.5629
0
LINE
8
NFC_COIL
10
1.3430
20
11.5629
11
1.9080
21
11.4784
0
LINE
8
NFC_COIL
10
1.9080
20
11.4784
11
2.4679
21
11.3664
0
LINE
8
NFC_COIL
10
2.4679
20
11.3664
11
3.0214
21
11.2271
0
LINE
8
NFC_COIL
10
3.0214
20
11.2271
11
3.5672
21
11.0609
0
LINE
8
NFC_COIL
10
3.5672
20
11.0609
11
4.1040
21
10.8681
0
LINE
8
NFC_COIL
10
4.1040
20
10.8681
11
4.6305
21
10.6494
0
LINE
8
NFC_COIL
10
4.6305
20
10.6494
11
5.1454
21
10.4051
0
LINE
8
NFC_COIL
10
5.1454
20
10.4051
11
5.6474
21
10.1360
0
LINE
8
NFC_COIL
10
5.6474
20
10.1360
11
6.1355
21
9.8427
0
LINE
8
NFC_COIL
10
6.1355
20
9.8427
11
6.6084
21
9.5260
0
LINE
8
NFC_COIL
10
6.6084
20
9.5260
11
7.0650
21
9.1865
0
LINE
8
NFC_COIL
10
7.0650
20
9.1865
11
7.5042
21
8.8252
0
LINE
8
NFC_COIL
10
7.5042
20
8.8252
11
7.9250
21
8.4430
0
LINE
8
NFC_COIL
10
7.9250
20
8.4430
11
8.3264
21
8.0407
0
LINE
8
NFC_COIL
10
8.3264
20
8.0407
11
8.7073
21
7.6193
0
LINE
8
NFC_COIL
10
8.7073
20
7.6193
11
9.0670
21
7.1800
0
LINE
8
NFC_COIL
10
9.0670
20
7.1800
11
9.4046
21
6.7237
0
LINE
8
NFC_COIL
10
9.4046
20
6.7237
11
9.7193
21
6.2516
0
LINE
8
NFC_COIL
10
9.7193
20
6.2516
11
10.0102
21
5.7649
0
LINE
8
NFC_COIL
10
10.0102
20
5.7649
11
10.2769
21
5.2646
0
LINE
8
NFC_COIL
10
10.2769
20
5.2646
11
10.5186
21
4.7521
0
LINE
8
NFC_COIL
10
10.5186
20
4.7521
11
10.7347
21
4.2285
0
LINE
8
NFC_COIL
10
10.7347
20
4.2285
11
10.9248
21
3.6952
0
LINE
8
NFC_COIL
10
10.9248
20
3.6952
11
11.0885
21
3.1534
0
LINE
8
NFC_COIL
10
11.0885
20
3.1534
11
11.2253
21
2.6045
0
LINE
8
NFC_COIL
10
11.2253
20
2.6045
11
11.3349
21
2.0497
0
LINE
8
NFC_COIL
10
11.3349
20
2.0497
11
11.4172
21
1.4904
0
LINE
8
NFC_COIL
10
11.4172
20
1.4904
11
11.4719
21
0.9280
0
LINE
8
NFC_COIL
10
11.4719
20
0.9280
11
11.4989
21
0.3639
0
LINE
8
NFC_COIL
10
11.4989
20
0.3639
11
11.4982
21
-0.2007
0
LINE
8
NFC_COIL
10
11.4982
20
-0.2007
11
11.4699
21
-0.7643
0
LINE
8
NFC_COIL
10
11.4699
20
-0.7643
11
11.4139
21
-1.3257
0
LINE
8
NFC_COIL
10
11.4139
20
-1.3257
11
11.3305
21
-1.8834
0
LINE
8
NFC_COIL
10
11.3305
20
-1.8834
11
11.2198
21
-2.4361
0
LINE
8
NFC_COIL
10
11.2198
20
-2.4361
11
11.0823
21
-2.9824
0
LINE
8
NFC_COIL
10
11.0823
20
-2.9824
11
10.9181
21
-3.5212
0
LINE
8
NFC_COIL
10
10.9181
20
-3.5212
11
10.7278
21
-4.0510
0
LINE
8
NFC_COIL
10
10.7278
20
-4.0510
11
10.5118
21
-4.5707
0
LINE
8
NFC_COIL
10
10.5118
20
-4.5707
11
10.2707
21
-5.0789
0
LINE
8
NFC_COIL
10
10.2707
20
-5.0789
11
10.0050
21
-5.5744
0
LINE
8
NFC_COIL
10
10.0050
20
-5.5744
11
9.7154
21
-6.0562
0
LINE
8
NFC_COIL
10
9.7154
20
-6.0562
11
9.4027
21
-6.5229
0
LINE
8
NFC_COIL
10
9.4027
20
-6.5229
11
9.0676
21
-6.9736
0
LINE
8
NFC_COIL
10
9.0676
20
-6.9736
11
8.7109
21
-7.4070
0
LINE
8
NFC_COIL
10
8.7109
20
-7.4070
11
8.3336
21
-7.8223
0
LINE
8
NFC_COIL
10
8.3336
20
-7.8223
11
7.9365
21
-8.2185
0
LINE
8
NFC_COIL
10
7.9365
20
-8.2185
11
7.5206
21
-8.5945
0
LINE
8
NFC_COIL
10
7.5206
20
-8.5945
11
7.0869
21
-8.9494
0
LINE
8
NFC_COIL
10
7.0869
20
-8.9494
11
6.6365
21
-9.2826
0
LINE
8
NFC_COIL
10
6.6365
20
-9.2826
11
6.1705
21
-9.5931
0
LINE
8
NFC_COIL
10
6.1705
20
-9.5931
11
5.6900
21
-9.8803
0
LINE
8
NFC_COIL
10
5.6900
20
-9.8803
11
5.1962
21
-10.1434
0
LINE
8
NFC_COIL
10
5.1962
20
-10.1434
11
4.6903
21
-10.3819
0
LINE
8
NFC_COIL
10
4.6903
20
-10.3819
11
4.1735
21
-10.5951
0
LINE
8
NFC_COIL
10
4.1735
20
-10.5951
11
3.6471
21
-10.7827
0
LINE
8
NFC_COIL
10
3.6471
20
-10.7827
11
3.1124
21
-10.9442
0
LINE
8
NFC_COIL
10
3.1124
20
-10.9442
11
2.5706
21
-11.0791
0
LINE
8
NFC_COIL
10
2.5706
20
-11.0791
11
2.0230
21
-11.1873
0
LINE
8
NFC_COIL
10
2.0230
20
-11.1873
11
1.4710
21
-11.2685
0
LINE
8
NFC_COIL
10
1.4710
20
-11.2685
11
0.9160
21
-11.3224
0
LINE
8
NFC_COIL
10
0.9160
20
-11.3224
11
0.3591
21
-11.3490
0
LINE
8
NFC_COIL
10
0.3591
20
-11.3490
11
-0.1981
21
-11.3483
0
LINE
8
NFC_COIL
10
-0.1981
20
-11.3483
11
-0.7544
21
-11.3202
0
LINE
8
NFC_COIL
10
-0.7544
20
-11.3202
11
-1.3084
21
-11.2649
0
LINE
8
NFC_COIL
10
-1.3084
20
-11.2649
11
-1.8588
21
-11.1825
0
LINE
8
NFC_COIL
10
-1.8588
20
-11.1825
11
-2.4042
21
-11.0732
0
LINE
8
NFC_COIL
10
-2.4042
20
-11.0732
11
-2.9435
21
-10.9374
0
LINE
8
NFC_COIL
10
-2.9435
20
-10.9374
11
-3.4752
21
-10.7754
0
LINE
8
NFC_COIL
10
-3.4752
20
-10.7754
11
-3.9980
21
-10.5875
0
LINE
8
NFC_COIL
10
-3.9980
20
-10.5875
11
-4.5108
21
-10.3742
0
LINE
8
NFC_COIL
10
-4.5108
20
-10.3742
11
-5.0124
21
-10.1362
0
LINE
8
NFC_COIL
10
-5.0124
20
-10.1362
11
-5.5014
21
-9.8740
0
LINE
8
NFC_COIL
10
-5.5014
20
-9.8740
11
-5.9768
21
-9.5881
0
LINE
8
NFC_COIL
10
-5.9768
20
-9.5881
11
-6.4374
21
-9.2795
0
LINE
8
NFC_COIL
10
-6.4374
20
-9.2795
11
-6.8821
21
-8.9487
0
LINE
8
NFC_COIL
10
-6.8821
20
-8.9487
11
-7.3099
21
-8.5967
0
LINE
8
NFC_COIL
10
-7.3099
20
-8.5967
11
-7.7197
21
-8.2242
0
LINE
8
NFC_COIL
10
-7.7197
20
-8.2242
11
-8.1106
21
-7.8323
0
LINE
8
NFC_COIL
10
-8.1106
20
-7.8323
11
-8.4816
21
-7.4218
0
LINE
8
NFC_COIL
10
-8.4816
20
-7.4218
11
-8.8318
21
-6.9938
0
LINE
8
NFC_COIL
10
-8.8318
20
-6.9938
11
-9.1606
21
-6.5493
0
LINE
8
NFC_COIL
10
-9.1606
20
-6.5493
11
-9.4669
21
-6.0893
0
LINE
8
NFC_COIL
10
-9.4669
20
-6.0893
11
-9.7503
21
-5.6151
0
LINE
8
NFC_COIL
10
-9.7503
20
-5.6151
11
-10.0099
21
-5.1278
0
LINE
8
NFC_COIL
10
-10.0099
20
-5.1278
11
-10.2452
21
-4.6286
0
LINE
8
NFC_COIL
10
-10.2452
20
-4.6286
11
-10.4556
21
-4.1186
0
LINE
8
NFC_COIL
10
-10.4556
20
-4.1186
11
-10.6406
21
-3.5991
0
LINE
8
NFC_COIL
10
-10.6406
20
-3.5991
11
-10.7999
21
-3.0713
0
LINE
8
NFC_COIL
10
-10.7999
20
-3.0713
11
-10.9330
21
-2.5367
0
LINE
8
NFC_COIL
10
-10.9330
20
-2.5367
11
-11.0397
21
-1.9963
0
LINE
8
NFC_COIL
10
-11.0397
20
-1.9963
11
-11.1197
21
-1.4516
0
LINE
8
NFC_COIL
10
-11.1197
20
-1.4516
11
-11.1729
21
-0.9039
0
LINE
8
NFC_COIL
10
-11.1729
20
-0.9039
11
-11.1991
21
-0.3544
0
LINE
8
NFC_COIL
10
-11.1991
20
-0.3544
11
-11.1983
21
0.1955
0
LINE
8
NFC_COIL
10
-11.1983
20
0.1955
11
-11.1705
21
0.7444
0
LINE
8
NFC_COIL
10
-11.1705
20
0.7444
11
-11.1159
21
1.2911
0
LINE
8
NFC_COIL
10
-11.1159
20
1.2911
11
-11.0345
21
1.8342
0
LINE
8
NFC_COIL
10
-11.0345
20
1.8342
11
-10.9267
21
2.3724
0
LINE
8
NFC_COIL
10
-10.9267
20
2.3724
11
-10.7926
21
2.9045
0
LINE
8
NFC_COIL
10
-10.7926
20
2.9045
11
-10.6326
21
3.4291
0
LINE
8
NFC_COIL
10
-10.6326
20
3.4291
11
-10.4471
21
3.9450
0
LINE
8
NFC_COIL
10
-10.4471
20
3.9450
11
-10.2367
21
4.4510
0
LINE
8
NFC_COIL
10
-10.2367
20
4.4510
11
-10.0017
21
4.9459
0
LINE
8
NFC_COIL
10
-10.0017
20
4.9459
11
-9.7429
21
5.4284
0
LINE
8
NFC_COIL
10
-9.7429
20
5.4284
11
-9.4608
21
5.8975
0
LINE
8
NFC_COIL
10
-9.4608
20
5.8975
11
-9.1562
21
6.3519
0
LINE
8
NFC_COIL
10
-9.1562
20
6.3519
11
-8.8298
21
6.7907
0
LINE
8
NFC_COIL
10
-8.8298
20
6.7907
11
-8.4824
21
7.2127
0
LINE
8
NFC_COIL
10
-8.4824
20
7.2127
11
-8.1149
21
7.6170
0
LINE
8
NFC_COIL
10
-8.1149
20
7.6170
11
-7.7281
21
8.0027
0
LINE
8
NFC_COIL
10
-7.7281
20
8.0027
11
-7.3230
21
8.3687
0
LINE
8
NFC_COIL
10
-7.3230
20
8.3687
11
-6.9006
21
8.7143
0
LINE
8
NFC_COIL
10
-6.9006
20
8.7143
11
-6.4620
21
9.0385
0
LINE
8
NFC_COIL
10
-6.4620
20
9.0385
11
-6.0082
21
9.3408
0
LINE
8
NFC_COIL
10
-6.0082
20
9.3408
11
-5.5403
21
9.6203
0
LINE
8
NFC_COIL
10
-5.5403
20
9.6203
11
-5.0594
21
9.8764
0
LINE
8
NFC_COIL
10
-5.0594
20
9.8764
11
-4.5668
21
10.1085
0
LINE
8
NFC_COIL
10
-4.5668
20
10.1085
11
-4.0636
21
10.3160
0
LINE
8
NFC_COIL
10
-4.0636
20
10.3160
11
-3.5510
21
10.4985
0
LINE
8
NFC_COIL
10
-3.5510
20
10.4985
11
-3.0303
21
10.6556
0
LINE
8
NFC_COIL
10
-3.0303
20
10.6556
11
-2.5027
21
10.7869
0
LINE
8
NFC_COIL
10
-2.5027
20
10.7869
11
-1.9696
21
10.8921
0
LINE
8
NFC_COIL
10
-1.9696
20
10.8921
11
-1.4322
21
10.9710
0
LINE
8
NFC_COIL
10
-1.4322
20
10.9710
11
-0.8918
21
11.0234
0
LINE
8
NFC_COIL
10
-0.8918
20
11.0234
11
-0.3496
21
11.0492
0
LINE
8
NFC_COIL
10
-0.3496
20
11.0492
11
0.1928
21
11.0483
0
LINE
8
NFC_COIL
10
0.1928
20
11.0483
11
0.7344
21
11.0209
0
LINE
8
NFC_COIL
10
0.7344
20
11.0209
11
1.2738
21
10.9669
0
LINE
8
NFC_COIL
10
1.2738
20
10.9669
11
1.8096
21
10.8866
0
LINE
8
NFC_COIL
10
1.8096
20
10.8866
11
2.3406
21
10.7801
0
LINE
8
NFC_COIL
10
2.3406
20
10.7801
11
2.8655
21
10.6477
0
LINE
8
NFC_COIL
10
2.8655
20
10.6477
11
3.3831
21
10.4898
0
LINE
8
NFC_COIL
10
3.3831
20
10.4898
11
3.8921
21
10.3068
0
LINE
8
NFC_COIL
10
3.8921
20
10.3068
11
4.3912
21
10.0991
0
LINE
8
NFC_COIL
10
4.3912
20
10.0991
11
4.8794
21
9.8673
0
LINE
8
NFC_COIL
10
4.8794
20
9.8673
11
5.3554
21
9.6119
0
LINE
8
NFC_COIL
10
5.3554
20
9.6119
11
5.8181
21
9.3336
0
LINE
8
NFC_COIL
10
5.8181
20
9.3336
11
6.2664
21
9.0330
0
LINE
8
NFC_COIL
10
6.2664
20
9.0330
11
6.6992
21
8.7109
0
LINE
8
NFC_COIL
10
6.6992
20
8.7109
11
7.1155
21
8.3681
0
LINE
8
NFC_COIL
10
7.1155
20
8.3681
11
7.5144
21
8.0055
0
LINE
8
NFC_COIL
10
7.5144
20
8.0055
11
7.8948
21
7.6239
0
LINE
8
NFC_COIL
10
7.8948
20
7.6239
11
8.2558
21
7.2242
0
LINE
8
NFC_COIL
10
8.2558
20
7.2242
11
8.5967
21
6.8075
0
LINE
8
NFC_COIL
10
8.5967
20
6.8075
11
8.9165
21
6.3748
0
LINE
8
NFC_COIL
10
8.9165
20
6.3748
11
9.2146
21
5.9271
0
LINE
8
NFC_COIL
10
9.2146
20
5.9271
11
9.4903
21
5.4654
0
LINE
8
NFC_COIL
10
9.4903
20
5.4654
11
9.7429
21
4.9910
0
LINE
8
NFC_COIL
10
9.7429
20
4.9910
11
9.9718
21
4.5050
0
LINE
8
NFC_COIL
10
9.9718
20
4.5050
11
10.1764
21
4.0086
0
LINE
8
NFC_COIL
10
10.1764
20
4.0086
11
10.3564
21
3.5029
0
LINE
8
NFC_COIL
10
10.3564
20
3.5029
11
10.5113
21
2.9893
0
LINE
8
NFC_COIL
10
10.5113
20
2.9893
11
10.6408
21
2.4688
0
LINE
8
NFC_COIL
10
10.6408
20
2.4688
11
10.7445
21
1.9429
0
LINE
8
NFC_COIL
10
10.7445
20
1.9429
11
10.8222
21
1.4128
0
LINE
8
NFC_COIL
10
10.8222
20
1.4128
11
10.8739
21
0.8797
0
LINE
8
NFC_COIL
10
10.8739
20
0.8797
11
10.8992
21
0.3449
0
LINE
8
NFC_COIL
10
10.8992
20
0.3449
11
10.8983
21
-0.1902
0
LINE
8
NFC_COIL
10
10.8983
20
-0.1902
11
10.8712
21
-0.7244
0
LINE
8
NFC_COIL
10
10.8712
20
-0.7244
11
10.8179
21
-1.2565
0
LINE
8
NFC_COIL
10
10.8179
20
-1.2565
11
10.7386
21
-1.7850
0
LINE
8
NFC_COIL
10
10.7386
20
-1.7850
11
10.6335
21
-2.3088
0
LINE
8
NFC_COIL
10
10.6335
20
-2.3088
11
10.5029
21
-2.8265
0
LINE
8
NFC_COIL
10
10.5029
20
-2.8265
11
10.3471
21
-3.3370
0
LINE
8
NFC_COIL
10
10.3471
20
-3.3370
11
10.1665
21
-3.8391
0
LINE
8
NFC_COIL
10
10.1665
20
-3.8391
11
9.9616
21
-4.3314
0
LINE
8
NFC_COIL
10
9.9616
20
-4.3314
11
9.7328
21
-4.8129
0
LINE
8
NFC_COIL
10
9.7328
20
-4.8129
11
9.4809
21
-5.2824
0
LINE
8
NFC_COIL
10
9.4809
20
-5.2824
11
9.2063
21
-5.7388
0
LINE
8
NFC_COIL
10
9.2063
20
-5.7388
11
8.9097
21
-6.1809
0
LINE
8
NFC_COIL
10
8.9097
20
-6.1809
11
8.5920
21
-6.6078
0
LINE
8
NFC_COIL
10
8.5920
20
-6.6078
11
8.2539
21
-7.0184
0
LINE
8
NFC_COIL
10
8.2539
20
-7.0184
11
7.8961
21
-7.4117
0
LINE
8
NFC_COIL
10
7.8961
20
-7.4117
11
7.5197
21
-7.7869
0
LINE
8
NFC_COIL
10
7.5197
20
-7.7869
11
7.1254
21
-8.1429
0
LINE
8
NFC_COIL
10
7.1254
20
-8.1429
11
6.7144
21
-8.4791
0
LINE
8
NFC_COIL
10
6.7144
20
-8.4791
11
6.2875
21
-8.7945
0
LINE
8
NFC_COIL
10
6.2875
20
-8.7945
11
5.8459
21
-9.0885
0
LINE
8
NFC_COIL
10
5.8459
20
-9.0885
11
5.3906
21
-9.3603
0
LINE
8
NFC_COIL
10
5.3906
20
-9.3603
11
4.9227
21
-9.6094
0
LINE
8
NFC_COIL
10
4.9227
20
-9.6094
11
4.4433
21
-9.8351
0
LINE
8
NFC_COIL
10
4.4433
20
-9.8351
11
3.9536
21
-10.0369
0
LINE
8
NFC_COIL
10
3.9536
20
-10.0369
11
3.4549
21
-10.2143
0
LINE
8
NFC_COIL
10
3.4549
20
-10.2143
11
2.9482
21
-10.3671
0
LINE
8
NFC_COIL
10
2.9482
20
-10.3671
11
2.4349
21
-10.4947
0
LINE
8
NFC_COIL
10
2.4349
20
-10.4947
11
1.9162
21
-10.5969
0
LINE
8
NFC_COIL
10
1.9162
20
-10.5969
11
1.3933
21
-10.6735
0
LINE
8
NFC_COIL
10
1.3933
20
-10.6735
11
0.8676
21
-10.7243
0
LINE
8
NFC_COIL
10
0.8676
20
-10.7243
11
0.3402
21
-10.7493
0
LINE
8
NFC_COIL
10
0.3402
20
-10.7493
11
-0.1876
21
-10.7484
0
LINE
8
NFC_COIL
10
-0.1876
20
-10.7484
11
-0.7145
21
-10.7215
0
LINE
8
NFC_COIL
10
-0.7145
20
-10.7215
11
-1.2392
21
-10.6689
0
LINE
8
NFC_COIL
10
-1.2392
20
-10.6689
11
-1.7604
21
-10.5906
0
LINE
8
NFC_COIL
10
-1.7604
20
-10.5906
11
-2.2769
21
-10.4869
0
LINE
8
NFC_COIL
10
-2.2769
20
-10.4869
11
-2.7875
21
-10.3580
0
LINE
8
NFC_COIL
10
-2.7875
20
-10.3580
11
-3.2910
21
-10.2043
0
LINE
8
NFC_COIL
10
-3.2910
20
-10.2043
11
-3.7861
21
-10.0262
0
LINE
8
NFC_COIL
10
-3.7861
20
-10.0262
11
-4.2716
21
-9.8240
0
LINE
8
NFC_COIL
10
-4.2716
20
-9.8240
11
-4.7464
21
-9.5984
0
LINE
8
NFC_COIL
10
-4.7464
20
-9.5984
11
-5.2094
21
-9.3498
0
LINE
8
NFC_COIL
10
-5.2094
20
-9.3498
11
-5.6594
21
-9.0790
0
LINE
8
NFC_COIL
10
-5.6594
20
-9.0790
11
-6.0954
21
-8.7865
0
LINE
8
NFC_COIL
10
-6.0954
20
-8.7865
11
-6.5163
21
-8.4731
0
LINE
8
NFC_COIL
10
-6.5163
20
-8.4731
11
-6.9212
21
-8.1396
0
LINE
8
NFC_COIL
10
-6.9212
20
-8.1396
11
-7.3091
21
-7.7868
0
LINE
8
NFC_COIL
10
-7.3091
20
-7.7868
11
-7.6790
21
-7.4155
0
LINE
8
NFC_COIL
10
-7.6790
20
-7.4155
11
-8.0300
21
-7.0267
0
LINE
8
NFC_COIL
10
-8.0300
20
-7.0267
11
-8.3615
21
-6.6213
0
LINE
8
NFC_COIL
10
-8.3615
20
-6.6213
11
-8.6725
21
-6.2003
0
LINE
8
NFC_COIL
10
-8.6725
20
-6.2003
11
-8.9623
21
-5.7648
0
LINE
8
NFC_COIL
10
-8.9623
20
-5.7648
11
-9.2303
21
-5.3157
0
LINE
8
NFC_COIL
10
-9.2303
20
-5.3157
11
-9.4759
21
-4.8543
0
LINE
8
NFC_COIL
10
-9.4759
20
-4.8543
11
-9.6984
21
-4.3815
0
LINE
8
NFC_COIL
10
-9.6984
20
-4.3815
11
-9.8973
21
-3.8987
0
LINE
8
NFC_COIL
10
-9.8973
20
-3.8987
11
-10.0723
21
-3.4068
0
LINE
8
NFC_COIL
10
-10.0723
20
-3.4068
11
-10.2228
21
-2.9072
0
LINE
8
NFC_COIL
10
-10.2228
20
-2.9072
11
-10.3485
21
-2.4010
0
LINE
8
NFC_COIL
10
-10.3485
20
-2.4010
11
-10.4493
21
-1.8895
0
LINE
8
NFC_COIL
10
-10.4493
20
-1.8895
11
-10.5248
21
-1.3739
0
LINE
8
NFC_COIL
10
-10.5248
20
-1.3739
11
-10.5748
21
-0.8555
0
LINE
8
NFC_COIL
10
-10.5748
20
-0.8555
11
-10.5994
21
-0.3354
0
LINE
8
NFC_COIL
10
-10.5994
20
-0.3354
11
-10.5984
21
0.1850
0
LINE
8
NFC_COIL
10
-10.5984
20
0.1850
11
-10.5719
21
0.7045
0
LINE
8
NFC_COIL
10
-10.5719
20
0.7045
11
-10.5199
21
1.2218
0
LINE
8
NFC_COIL
10
-10.5199
20
1.2218
11
-10.4427
21
1.7358
0
LINE
8
NFC_COIL
10
-10.4427
20
1.7358
11
-10.3403
21
2.2451
0
LINE
8
NFC_COIL
10
-10.3403
20
2.2451
11
-10.2132
21
2.7486
0
LINE
8
NFC_COIL
10
-10.2132
20
2.7486
11
-10.0616
21
3.2449
0
LINE
8
NFC_COIL
10
-10.0616
20
3.2449
11
-9.8858
21
3.7331
0
LINE
8
NFC_COIL
10
-9.8858
20
3.7331
11
-9.6864
21
4.2118
0
LINE
8
NFC_COIL
10
-9.6864
20
4.2118
11
-9.4639
21
4.6799
0
LINE
8
NFC_COIL
10
-9.4639
20
4.6799
11
-9.2188
21
5.1364
0
LINE
8
NFC_COIL
10
-9.2188
20
5.1364
11
-8.9517
21
5.5801
0
LINE
8
NFC_COIL
10
-8.9517
20
5.5801
11
-8.6632
21
6.0099
0
LINE
8
NFC_COIL
10
-8.6632
20
6.0099
11
-8.3542
21
6.4249
0
LINE
8
NFC_COIL
10
-8.3542
20
6.4249
11
-8.0253
21
6.8240
0
LINE
8
NFC_COIL
10
-8.0253
20
6.8240
11
-7.6774
21
7.2064
0
LINE
8
NFC_COIL
10
-7.6774
20
7.2064
11
-7.3113
21
7.5711
0
LINE
8
NFC_COIL
10
-7.3113
20
7.5711
11
-6.9279
21
7.9172
0
LINE
8
NFC_COIL
10
-6.9279
20
7.9172
11
-6.5282
21
8.2439
0
LINE
8
NFC_COIL
10
-6.5282
20
8.2439
11
-6.1131
21
8.5505
0
LINE
8
NFC_COIL
10
-6.1131
20
8.5505
11
-5.6836
21
8.8362
0
LINE
8
NFC_COIL
10
-5.6836
20
8.8362
11
-5.2409
21
9.1003
0
LINE
8
NFC_COIL
10
-5.2409
20
9.1003
11
-4.7859
21
9.3424
0
LINE
8
NFC_COIL
10
-4.7859
20
9.3424
11
-4.3198
21
9.5617
0
LINE
8
NFC_COIL
10
-4.3198
20
9.5617
11
-3.8437
21
9.7578
0
LINE
8
NFC_COIL
10
-3.8437
20
9.7578
11
-3.3588
21
9.9302
0
LINE
8
NFC_COIL
10
-3.3588
20
9.9302
11
-2.8662
21
10.0785
0
LINE
8
NFC_COIL
10
-2.8662
20
10.0785
11
-2.3671
21
10.2024
0
LINE
8
NFC_COIL
10
-2.3671
20
10.2024
11
-1.8628
21
10.3017
0
LINE
8
NFC_COIL
10
-1.8628
20
10.3017
11
-1.3545
21
10.3760
0
LINE
8
NFC_COIL
10
-1.3545
20
10.3760
11
-0.8434
21
10.4253
0
LINE
8
NFC_COIL
10
-0.8434
20
10.4253
11
-0.3307
21
10.4495
0
LINE
8
NFC_COIL
10
-0.3307
20
10.4495
11
0.1824
21
10.4484
0
LINE
8
NFC_COIL
10
0.1824
20
10.4484
11
0.6945
21
10.4222
0
LINE
8
NFC_COIL
10
0.6945
20
10.4222
11
1.2045
21
10.3709
0
LINE
8
NFC_COIL
10
1.2045
20
10.3709
11
1.7112
21
10.2947
0
LINE
8
NFC_COIL
10
1.7112
20
10.2947
11
2.2133
21
10.1937
0
LINE
8
NFC_COIL
10
2.2133
20
10.1937
11
2.7096
21
10.0683
0
LINE
8
NFC_COIL
10
2.7096
20
10.0683
11
3.1989
21
9.9188
0
LINE
8
NFC_COIL
10
3.1989
20
9.9188
11
3.6801
21
9.7455
0
LINE
8
NFC_COIL
10
3.6801
20
9.7455
11
4.1520
21
9.5489
0
LINE
8
NFC_COIL
10
4.1520
20
9.5489
11
4.6134
21
9.3295
0
LINE
8
NFC_COIL
10
4.6134
20
9.3295
11
5.0634
21
9.0878
0
LINE
8
NFC_COIL
10
5.0634
20
9.0878
11
5.5007
21
8.8244
0
LINE
8
NFC_COIL
10
5.5007
20
8.8244
11
5.9244
21
8.5400
0
LINE
8
NFC_COIL
10
5.9244
20
8.5400
11
6.3334
21
8.2353
0
LINE
8
NFC_COIL
10
6.3334
20
8.2353
11
6.7269
21
7.9110
0
LINE
8
NFC_COIL
10
6.7269
20
7.9110
11
7.1037
21
7.5680
0
LINE
8
NFC_COIL
10
7.1037
20
7.5680
11
7.4632
21
7.2071
0
LINE
8
NFC_COIL
10
7.4632
20
7.2071
11
7.8043
21
6.8291
0
LINE
8
NFC_COIL
10
7.8043
20
6.8291
11
8.1263
21
6.4350
0
LINE
8
NFC_COIL
10
8.1263
20
6.4350
11
8.4284
21
6.0258
0
LINE
8
NFC_COIL
10
8.4284
20
6.0258
11
8.7100
21
5.6025
0
LINE
8
NFC_COIL
10
8.7100
20
5.6025
11
8.9704
21
5.1660
0
LINE
8
NFC_COIL
10
8.9704
20
5.1660
11
9.2089
21
4.7175
0
LINE
8
NFC_COIL
10
9.2089
20
4.7175
11
9.4250
21
4.2580
0
LINE
8
NFC_COIL
10
9.4250
20
4.2580
11
9.6182
21
3.7887
0
LINE
8
NFC_COIL
10
9.6182
20
3.7887
11
9.7881
21
3.3107
0
LINE
8
NFC_COIL
10
9.7881
20
3.3107
11
9.9342
21
2.8252
0
LINE
8
NFC_COIL
10
9.9342
20
2.8252
11
10.0563
21
2.3332
0
LINE
8
NFC_COIL
10
10.0563
20
2.3332
11
10.1541
21
1.8362
0
LINE
8
NFC_COIL
10
10.1541
20
1.8362
11
10.2273
21
1.3351
0
LINE
8
NFC_COIL
10
10.2273
20
1.3351
11
10.2758
21
0.8313
0
LINE
8
NFC_COIL
10
10.2758
20
0.8313
11
10.2995
21
0.3259
0
LINE
8
NFC_COIL
10
10.2995
20
0.3259
11
10.2984
21
-0.1798
0
LINE
8
NFC_COIL
10
10.2984
20
-0.1798
11
10.2725
21
-0.6846
0
LINE
8
NFC_COIL
10
10.2725
20
-0.6846
11
10.2219
21
-1.1872
0
LINE
8
NFC_COIL
10
10.2219
20
-1.1872
11
10.1467
21
-1.6866
0
LINE
8
NFC_COIL
10
10.1467
20
-1.6866
11
10.0472
21
-2.1815
0
LINE
8
NFC_COIL
10
10.0472
20
-2.1815
11
9.9235
21
-2.6706
0
LINE
8
NFC_COIL
10
9.9235
20
-2.6706
11
9.7760
21
-3.1529
0
LINE
8
NFC_COIL
10
9.7760
20
-3.1529
11
9.6052
21
-3.6271
0
LINE
8
NFC_COIL
10
9.6052
20
-3.6271
11
9.4113
21
-4.0922
0
LINE
8
NFC_COIL
10
9.4113
20
-4.0922
11
9.1950
21
-4.5469
0
LINE
8
NFC_COIL
10
9.1950
20
-4.5469
11
8.9567
21
-4.9904
0
LINE
8
NFC_COIL
10
8.9567
20
-4.9904
11
8.6971
21
-5.4214
0
LINE
8
NFC_COIL
10
8.6971
20
-5.4214
11
8.4167
21
-5.8389
0
LINE
8
NFC_COIL
10
8.4167
20
-5.8389
11
8.1164
21
-6.2420
0
LINE
8
NFC_COIL
10
8.1164
20
-6.2420
11
7.7968
21
-6.6297
0
LINE
8
NFC_COIL
10
7.7968
20
-6.6297
11
7.4586
21
-7.0011
0
LINE
8
NFC_COIL
10
7.4586
20
-7.0011
11
7.1029
21
-7.3552
0
LINE
8
NFC_COIL
10
7.1029
20
-7.3552
11
6.7303
21
-7.6914
0
LINE
8
NFC_COIL
10
6.7303
20
-7.6914
11
6.3419
21
-8.0087
0
LINE
8
NFC_COIL
10
6.3419
20
-8.0087
11
5.9386
21
-8.3064
0
LINE
8
NFC_COIL
10
5.9386
20
-8.3064
11
5.5213
21
-8.5839
0
LINE
8
NFC_COIL
10
5.5213
20
-8.5839
11
5.0911
21
-8.8404
0
LINE
8
NFC_COIL
10
5.0911
20
-8.8404
11
4.6491
21
-9.0754
0
LINE
8
NFC_COIL
10
4.6491
20
-9.0754
11
4.1963
21
-9.2883
0
LINE
8
NFC_COIL
10
4.1963
20
-9.2883
11
3.7337
21
-9.4786
0
LINE
8
NFC_COIL
10
3.7337
20
-9.4786
11
3.2626
21
-9.6460
0
LINE
8
NFC_COIL
10
3.2626
20
-9.6460
11
2.7841
21
-9.7899
0
LINE
8
NFC_COIL
10
2.7841
20
-9.7899
11
2.2993
21
-9.9102
0
LINE
8
NFC_COIL
10
2.2993
20
-9.9102
11
1.8095
21
-10.0065
0
LINE
8
NFC_COIL
10
1.8095
20
-10.0065
11
1.3157
21
-10.0785
0
LINE
8
NFC_COIL
10
1.3157
20
-10.0785
11
0.8192
21
-10.1263
0
LINE
8
NFC_COIL
10
0.8192
20
-10.1263
11
0.3212
21
-10.1496
0
LINE
8
NFC_COIL
10
0.3212
20
-10.1496
11
-0.1771
21
-10.1485
0
LINE
8
NFC_COIL
10
-0.1771
20
-10.1485
11
-0.6746
21
-10.1229
0
LINE
8
NFC_COIL
10
-0.6746
20
-10.1229
11
-1.1699
21
-10.0729
0
LINE
8
NFC_COIL
10
-1.1699
20
-10.0729
11
-1.6620
21
-9.9987
0
LINE
8
NFC_COIL
10
-1.6620
20
-9.9987
11
-2.1496
21
-9.9006
0
LINE
8
NFC_COIL
10
-2.1496
20
-9.9006
11
-2.6316
21
-9.7786
0
LINE
8
NFC_COIL
10
-2.6316
20
-9.7786
11
-3.1068
21
-9.6333
0
LINE
8
NFC_COIL
10
-3.1068
20
-9.6333
11
-3.5741
21
-9.4648
0
LINE
8
NFC_COIL
10
-3.5741
20
-9.4648
11
-4.0323
21
-9.2738
0
LINE
8
NFC_COIL
10
-4.0323
20
-9.2738
11
-4.4805
21
-9.0605
0
LINE
8
NFC_COIL
10
-4.4805
20
-9.0605
11
-4.9174
21
-8.8257
0
LINE
8
NFC_COIL
10
-4.9174
20
-8.8257
11
-5.3420
21
-8.5698
0
LINE
8
NFC_COIL
10
-5.3420
20
-8.5698
11
-5.7534
21
-8.2935
0
LINE
8
NFC_COIL
10
-5.7534
20
-8.2935
11
-6.1506
21
-7.9975
0
LINE
8
NFC_COIL
10
-6.1506
20
-7.9975
11
-6.5325
21
-7.6825
0
LINE
8
NFC_COIL
10
-6.5325
20
-7.6825
11
-6.8984
21
-7.3493
0
LINE
8
NFC_COIL
10
-6.8984
20
-7.3493
11
-7.2473
21
-6.9987
0
LINE
8
NFC_COIL
10
-7.2473
20
-6.9987
11
-7.5785
21
-6.6316
0
LINE
8
NFC_COIL
10
-7.5785
20
-6.6316
11
-7.8911
21
-6.2488
0
LINE
8
NFC_COIL
10
-7.8911
20
-6.2488
11
-8.1844
21
-5.8513
0
LINE
8
NFC_COIL
10
-8.1844
20
-5.8513
11
-8.4577
21
-5.4402
0
LINE
8
NFC_COIL
10
-8.4577
20
-5.4402
11
-8.7104
21
-5.0163
0
LINE
8
NFC_COIL
10
-8.7104
20
-5.0163
11
-8.9419
21
-4.5807
0
LINE
8
NFC_COIL
10
-8.9419
20
-4.5807
11
-9.1516
21
-4.1345
0
LINE
8
NFC_COIL
10
-9.1516
20
-4.1345
11
-9.3391
21
-3.6788
0
LINE
8
NFC_COIL
10
-9.3391
20
-3.6788
11
-9.5039
21
-3.2146
0
LINE
8
NFC_COIL
10
-9.5039
20
-3.2146
11
-9.6457
21
-2.7431
0
LINE
8
NFC_COIL
10
-9.6457
20
-2.7431
11
-9.7641
21
-2.2654
0
LINE
8
NFC_COIL
10
-9.7641
20
-2.2654
11
-9.8589
21
-1.7828
0
LINE
8
NFC_COIL
10
-9.8589
20
-1.7828
11
-9.9298
21
-1.2963
0
LINE
8
NFC_COIL
10
-9.9298
20
-1.2963
11
-9.9768
21
-0.8071
0
LINE
8
NFC_COIL
10
-9.9768
20
-0.8071
11
-9.9997
21
-0.3164
0
LINE
8
NFC_COIL
10
-9.9997
20
-0.3164
11
-9.9985
21
0.1745
0
LINE
8
NFC_COIL
10
-9.9985
20
0.1745
11
-9.9732
21
0.6646
0
LINE
8
NFC_COIL
10
-9.9732
20
0.6646
11
-9.9239
21
1.1526
0
LINE
8
NFC_COIL
10
-9.9239
20
1.1526
11
-9.8508
21
1.6374
0
LINE
8
NFC_COIL
10
-9.8508
20
1.6374
11
-9.7540
21
2.1178
0
LINE
8
NFC_COIL
10
-9.7540
20
2.1178
11
-9.6338
21
2.5926
0
LINE
8
NFC_COIL
10
-9.6338
20
2.5926
11
-9.4905
21
3.0608
0
LINE
8
NFC_COIL
10
-9.4905
20
3.0608
11
-9.3245
21
3.5211
0
LINE
8
NFC_COIL
10
-9.3245
20
3.5211
11
-9.1362
21
3.9725
0
LINE
8
NFC_COIL
10
-9.1362
20
3.9725
11
-8.9261
21
4.4140
0
LINE
8
NFC_COIL
10
-8.9261
20
4.4140
11
-8.6947
21
4.8444
0
LINE
8
NFC_COIL
10
-8.6947
20
4.8444
11
-8.4425
21
5.2627
0
LINE
8
NFC_COIL
10
-8.4425
20
5.2627
11
-8.1703
21
5.6679
0
LINE
8
NFC_COIL
10
-8.1703
20
5.6679
11
-7.8786
21
6.0591
0
LINE
8
NFC_COIL
10
-7.8786
20
6.0591
11
-7.5682
21
6.4354
0
LINE
8
NFC_COIL
10
-7.5682
20
6.4354
11
-7.2399
21
6.7958
0
LINE
8
NFC_COIL
10
-7.2399
20
6.7958
11
-6.8945
21
7.1394
0
LINE
8
NFC_COIL
10
-6.8945
20
7.1394
11
-6.5328
21
7.4656
0
LINE
8
NFC_COIL
10
-6.5328
20
7.4656
11
-6.1557
21
7.7735
0
LINE
8
NFC_COIL
10
-6.1557
20
7.7735
11
-5.7641
21
8.0624
0
LINE
8
NFC_COIL
10
-5.7641
20
8.0624
11
-5.3590
21
8.3315
0
LINE
8
NFC_COIL
10
-5.3590
20
8.3315
11
-4.9414
21
8.5804
0
LINE
8
NFC_COIL
10
-4.9414
20
8.5804
11
-4.5123
21
8.8084
0
LINE
8
NFC_COIL
10
-4.5123
20
8.8084
11
-4.0727
21
9.0149
0
LINE
8
NFC_COIL
10
-4.0727
20
9.0149
11
-3.6238
21
9.1995
0
LINE
8
NFC_COIL
10
-3.6238
20
9.1995
11
-3.1665
21
9.3618
0
LINE
8
NFC_COIL
10
-3.1665
20
9.3618
11
-2.7021
21
9.5014
0
LINE
8
NFC_COIL
10
-2.7021
20
9.5014
11
-2.2315
21
9.6180
0
LINE
8
NFC_COIL
10
-2.2315
20
9.6180
11
-1.7561
21
9.7113
0
LINE
8
NFC_COIL
10
-1.7561
20
9.7113
11
-1.2768
21
9.7811
0
LINE
8
NFC_COIL
10
-1.2768
20
9.7811
11
-0.7950
21
9.8273
0
LINE
8
NFC_COIL
10
-0.7950
20
9.8273
11
-0.3117
21
9.8498
0
LINE
8
NFC_COIL
10
-0.3117
20
9.8498
11
0.1719
21
9.8485
0
LINE
8
NFC_COIL
10
0.1719
20
9.8485
11
0.6546
21
9.8235
0
LINE
8
NFC_COIL
10
0.6546
20
9.8235
11
1.1353
21
9.7749
0
LINE
8
NFC_COIL
10
1.1353
20
9.7749
11
1.6128
21
9.7028
0
LINE
8
NFC_COIL
10
1.6128
20
9.7028
11
2.0860
21
9.6074
0
LINE
8
NFC_COIL
10
2.0860
20
9.6074
11
2.5537
21
9.4890
0
LINE
8
NFC_COIL
10
2.5537
20
9.4890
11
3.0147
21
9.3478
0
LINE
8
NFC_COIL
10
3.0147
20
9.3478
11
3.4681
21
9.1842
0
LINE
8
NFC_COIL
10
3.4681
20
9.1842
11
3.9127
21
8.9987
0
LINE
8
NFC_COIL
10
3.9127
20
8.9987
11
4.3475
21
8.7916
0
LINE
8
NFC_COIL
10
4.3475
20
8.7916
11
4.7713
21
8.5636
0
LINE
8
NFC_COIL
10
4.7713
20
8.5636
11
5.1833
21
8.3152
0
LINE
8
NFC_COIL
10
5.1833
20
8.3152
11
5.5824
21
8.0470
0
LINE
8
NFC_COIL
10
5.5824
20
8.0470
11
5.9677
21
7.7597
0
LINE
8
NFC_COIL
10
5.9677
20
7.7597
11
6.3382
21
7.4539
0
LINE
8
NFC_COIL
10
6.3382
20
7.4539
11
6.6931
21
7.1305
0
LINE
8
NFC_COIL
10
6.6931
20
7.1305
11
7.0315
21
6.7903
0
LINE
8
NFC_COIL
10
7.0315
20
6.7903
11
7.3527
21
6.4340
0
LINE
8
NFC_COIL
10
7.3527
20
6.4340
11
7.6559
21
6.0626
0
LINE
8
NFC_COIL
10
7.6559
20
6.0626
11
7.9403
21
5.6769
0
LINE
8
NFC_COIL
10
7.9403
20
5.6769
11
8.2054
21
5.2779
0
LINE
8
NFC_COIL
10
8.2054
20
5.2779
11
8.4504
21
4.8666
0
LINE
8
NFC_COIL
10
8.4504
20
4.8666
11
8.6749
21
4.4439
0
LINE
8
NFC_COIL
10
8.6749
20
4.4439
11
8.8782
21
4.0110
0
LINE
8
NFC_COIL
10
8.8782
20
4.0110
11
9.0599
21
3.5688
0
LINE
8
NFC_COIL
10
9.0599
20
3.5688
11
9.2197
21
3.1185
0
LINE
8
NFC_COIL
10
9.2197
20
3.1185
11
9.3571
21
2.6610
0
LINE
8
NFC_COIL
10
9.3571
20
2.6610
11
9.4718
21
2.1976
0
LINE
8
NFC_COIL
10
9.4718
20
2.1976
11
9.5636
21
1.7294
0
LINE
8
NFC_COIL
10
9.5636
20
1.7294
11
9.6323
21
1.2574
0
LINE
8
NFC_COIL
10
9.6323
20
1.2574
11
9.6778
21
0.7829
0
LINE
8
NFC_COIL
10
9.6778
20
0.7829
11
9.6998
21
0.3069
0
LINE
8
NFC_COIL
10
9.6998
20
0.3069
11
9.6985
21
-0.1693
0
LINE
8
NFC_COIL
10
9.6985
20
-0.1693
11
9.6739
21
-0.6447
0
LINE
8
NFC_COIL
10
9.6739
20
-0.6447
11
9.6259
21
-1.1180
0
LINE
8
NFC_COIL
10
9.6259
20
-1.1180
11
9.5548
21
-1.5882
0
LINE
8
NFC_COIL
10
9.5548
20
-1.5882
11
9.4608
21
-2.0541
0
LINE
8
NFC_COIL
10
9.4608
20
-2.0541
11
9.3441
21
-2.5147
0
LINE
8
NFC_COIL
10
9.3441
20
-2.5147
11
9.2050
21
-2.9687
0
LINE
8
NFC_COIL
10
9.2050
20
-2.9687
11
9.0439
21
-3.4151
0
LINE
8
NFC_COIL
10
9.0439
20
-3.4151
11
8.8611
21
-3.8529
0
LINE
8
NFC_COIL
10
8.8611
20
-3.8529
11
8.6572
21
-4.2810
0
LINE
8
NFC_COIL
10
8.6572
20
-4.2810
11
8.4326
21
-4.6983
0
LINE
8
NFC_COIL
10
8.4326
20
-4.6983
11
8.1879
21
-5.1040
0
LINE
8
NFC_COIL
10
8.1879
20
-5.1040
11
7.9238
21
-5.4969
0
LINE
8
NFC_COIL
10
7.9238
20
-5.4969
11
7.6408
21
-5.8762
0
LINE
8
NFC_COIL
10
7.6408
20
-5.8762
11
7.3397
21
-6.2410
0
LINE
8
NFC_COIL
10
7.3397
20
-6.2410
11
7.0212
21
-6.5904
0
LINE
8
NFC_COIL
10
7.0212
20
-6.5904
11
6.6861
21
-6.9236
0
LINE
8
NFC_COIL
10
6.6861
20
-6.9236
11
6.3352
21
-7.2398
0
LINE
8
NFC_COIL
10
6.3352
20
-7.2398
11
5.9694
21
-7.5383
0
LINE
8
NFC_COIL
10
5.9694
20
-7.5383
11
5.5896
21
-7.8183
0
LINE
8
NFC_COIL
10
5.5896
20
-7.8183
11
5.1967
21
-8.0792
0
LINE
8
NFC_COIL
10
5.1967
20
-8.0792
11
4.7917
21
-8.3204
0
LINE
8
NFC_COIL
10
4.7917
20
-8.3204
11
4.3755
21
-8.5414
0
LINE
8
NFC_COIL
10
4.3755
20
-8.5414
11
3.9492
21
-8.7415
0
LINE
8
NFC_COIL
10
3.9492
20
-8.7415
11
3.5138
21
-8.9204
0
LINE
8
NFC_COIL
10
3.5138
20
-8.9204
11
3.0704
21
-9.0776
0
LINE
8
NFC_COIL
10
3.0704
20
-9.0776
11
2.6200
21
-9.2128
0
LINE
8
NFC_COIL
10
2.6200
20
-9.2128
11
2.1637
21
-9.3257
0
LINE
8
NFC_COIL
10
2.1637
20
-9.3257
11
1.7027
21
-9.4160
0
LINE
8
NFC_COIL
10
1.7027
20
-9.4160
11
1.2380
21
-9.4836
0
LINE
8
NFC_COIL
10
1.2380
20
-9.4836
11
0.7708
21
-9.5282
0
LINE
8
NFC_COIL
10
0.7708
20
-9.5282
11
0.3022
21
-9.5499
0
LINE
8
NFC_COIL
10
0.3022
20
-9.5499
11
-0.1667
21
-9.5485
0
LINE
8
NFC_COIL
10
-0.1667
20
-9.5485
11
-0.6347
21
-9.5242
0
LINE
8
NFC_COIL
10
-0.6347
20
-9.5242
11
-1.1007
21
-9.4769
0
LINE
8
NFC_COIL
10
-1.1007
20
-9.4769
11
-1.5636
21
-9.4069
0
LINE
8
NFC_COIL
10
-1.5636
20
-9.4069
11
-2.0223
21
-9.3142
0
LINE
8
NFC_COIL
10
-2.0223
20
-9.3142
11
-2.4757
21
-9.1993
0
LINE
8
NFC_COIL
10
-2.4757
20
-9.1993
11
-2.9227
21
-9.0622
0
LINE
8
NFC_COIL
10
-2.9227
20
-9.0622
11
-3.3621
21
-8.9035
0
LINE
8
NFC_COIL
10
-3.3621
20
-8.9035
11
-3.7931
21
-8.7235
0
LINE
8
NFC_COIL
10
-3.7931
20
-8.7235
11
-4.2145
21
-8.5227
0
LINE
8
NFC_COIL
10
-4.2145
20
-8.5227
11
-4.6253
21
-8.3015
0
LINE
8
NFC_COIL
10
-4.6253
20
-8.3015
11
-5.0246
21
-8.0606
0
LINE
8
NFC_COIL
10
-5.0246
20
-8.0606
11
-5.4114
21
-7.8005
0
LINE
8
NFC_COIL
10
-5.4114
20
-7.8005
11
-5.7848
21
-7.5219
0
LINE
8
NFC_COIL
10
-5.7848
20
-7.5219
11
-6.1439
21
-7.2254
0
LINE
8
NFC_COIL
10
-6.1439
20
-7.2254
11
-6.4878
21
-6.9118
0
LINE
8
NFC_COIL
10
-6.4878
20
-6.9118
11
-6.8157
21
-6.5819
0
LINE
8
NFC_COIL
10
-6.8157
20
-6.5819
11
-7.1270
21
-6.2364
0
LINE
8
NFC_COIL
10
-7.1270
20
-6.2364
11
-7.4207
21
-5.8763
0
LINE
8
NFC_COIL
10
-7.4207
20
-5.8763
11
-7.6963
21
-5.5024
0
LINE
8
NFC_COIL
10
-7.6963
20
-5.5024
11
-7.9531
21
-5.1156
0
LINE
8
NFC_COIL
10
-7.9531
20
-5.1156
11
-8.1904
21
-4.7168
0
LINE
8
NFC_COIL
10
-8.1904
20
-4.7168
11
-8.4079
21
-4.3071
0
LINE
8
NFC_COIL
10
-8.4079
20
-4.3071
11
-8.6048
21
-3.8875
0
LINE
8
NFC_COIL
10
-8.6048
20
-3.8875
11
-8.7808
21
-3.4589
0
LINE
8
NFC_COIL
10
-8.7808
20
-3.4589
11
-8.9355
21
-3.0223
0
LINE
8
NFC_COIL
10
-8.9355
20
-3.0223
11
-9.0685
21
-2.5790
0
LINE
8
NFC_COIL
10
-9.0685
20
-2.5790
11
-9.1796
21
-2.1298
0
LINE
8
NFC_COIL
10
-9.1796
20
-2.1298
11
-9.2684
21
-1.6760
0
LINE
8
NFC_COIL
10
-9.2684
20
-1.6760
11
-9.3349
21
-1.2186
0
LINE
8
NFC_COIL
10
-9.3349
20
-1.2186
11
-9.3787
21
-0.7587
0
LINE
8
NFC_COIL
10
-9.3787
20
-0.7587
11
-9.4000
21
-0.2975
0
LINE
8
NFC_COIL
10
-9.4000
20
-0.2975
11
-9.3986
21
0.1641
0
LINE
8
NFC_COIL
10
-9.3986
20
0.1641
11
-9.3745
21
0.6247
0
LINE
8
NFC_COIL
10
-9.3745
20
0.6247
11
-9.3279
21
1.0834
0
LINE
8
NFC_COIL
10
-9.3279
20
1.0834
11
-9.2589
21
1.5390
0
LINE
8
NFC_COIL
10
-9.2589
20
1.5390
11
-9.1676
21
1.9905
0
LINE
8
NFC_COIL
10
-9.1676
20
1.9905
11
-9.0544
21
2.4367
0
LINE
8
NFC_COIL
10
-9.0544
20
2.4367
11
-8.9195
21
2.8766
0
LINE
8
NFC_COIL
10
-8.9195
20
2.8766
11
-8.7632
21
3.3092
0
LINE
8
NFC_COIL
10
-8.7632
20
3.3092
11
-8.5860
21
3.7333
0
LINE
8
NFC_COIL
10
-8.5860
20
3.7333
11
-8.3882
21
4.1480
0
LINE
8
NFC_COIL
10
-8.3882
20
4.1480
11
-8.1705
21
4.5523
0
LINE
8
NFC_COIL
10
-8.1705
20
4.5523
11
-7.9333
21
4.9453
0
LINE
8
NFC_COIL
10
-7.9333
20
4.9453
11
-7.6773
21
5.3259
0
LINE
8
NFC_COIL
10
-7.6773
20
5.3259
11
-7.4030
21
5.6933
0
LINE
8
NFC_COIL
10
-7.4030
20
5.6933
11
-7.1111
21
6.0467
0
LINE
8
NFC_COIL
10
-7.1111
20
6.0467
11
-6.8024
21
6.3851
0
LINE
8
NFC_COIL
10
-6.8024
20
6.3851
11
-6.4777
21
6.7078
0
LINE
8
NFC_COIL
10
-6.4777
20
6.7078
11
-6.1377
21
7.0141
0
LINE
8
NFC_COIL
10
-6.1377
20
7.0141
11
-5.7832
21
7.3031
0
LINE
8
NFC_COIL
10
-5.7832
20
7.3031
11
-5.4152
21
7.5743
0
LINE
8
NFC_COIL
10
-5.4152
20
7.5743
11
-5.0344
21
7.8269
0
LINE
8
NFC_COIL
10
-5.0344
20
7.8269
11
-4.6420
21
8.0605
0
LINE
8
NFC_COIL
10
-4.6420
20
8.0605
11
-4.2388
21
8.2743
0
LINE
8
NFC_COIL
10
-4.2388
20
8.2743
11
-3.8257
21
8.4681
0
LINE
8
NFC_COIL
10
-3.8257
20
8.4681
11
-3.4039
21
8.6413
0
LINE
8
NFC_COIL
10
-3.4039
20
8.6413
11
-2.9743
21
8.7934
0
LINE
8
NFC_COIL
10
-2.9743
20
8.7934
11
-2.5379
21
8.9243
0
LINE
8
NFC_COIL
10
-2.5379
20
8.9243
11
-2.0959
21
9.0335
0
LINE
8
NFC_COIL
10
-2.0959
20
9.0335
11
-1.6493
21
9.1208
0
LINE
8
NFC_COIL
10
-1.6493
20
9.1208
11
-1.1992
21
9.1861
0
LINE
8
NFC_COIL
10
-1.1992
20
9.1861
11
-0.7466
21
9.2292
0
LINE
8
NFC_COIL
10
-0.7466
20
9.2292
11
-0.2927
21
9.2501
0
LINE
8
NFC_COIL
10
-0.2927
20
9.2501
11
0.1614
21
9.2486
0
LINE
8
NFC_COIL
10
0.1614
20
9.2486
11
0.6147
21
9.2249
0
LINE
8
NFC_COIL
10
0.6147
20
9.2249
11
1.0661
21
9.1789
0
LINE
8
NFC_COIL
10
1.0661
20
9.1789
11
1.5144
21
9.1109
0
LINE
8
NFC_COIL
10
1.5144
20
9.1109
11
1.9587
21
9.0211
0
LINE
8
NFC_COIL
10
1.9587
20
9.0211
11
2.3977
21
8.9096
0
LINE
8
NFC_COIL
10
2.3977
20
8.9096
11
2.8306
21
8.7767
0
LINE
8
NFC_COIL
10
2.8306
20
8.7767
11
3.2562
21
8.6229
0
LINE
8
NFC_COIL
10
3.2562
20
8.6229
11
3.6735
21
8.4484
0
LINE
8
NFC_COIL
10
3.6735
20
8.4484
11
4.0815
21
8.2538
0
LINE
8
NFC_COIL
10
4.0815
20
8.2538
11
4.4793
21
8.0395
0
LINE
8
NFC_COIL
10
4.4793
20
8.0395
11
4.8659
21
7.8060
0
LINE
8
NFC_COIL
10
4.8659
20
7.8060
11
5.2404
21
7.5540
0
LINE
8
NFC_COIL
10
5.2404
20
7.5540
11
5.6019
21
7.2841
0
LINE
8
NFC_COIL
10
5.6019
20
7.2841
11
5.9495
21
6.9969
0
LINE
8
NFC_COIL
10
5.9495
20
6.9969
11
6.2825
21
6.6931
0
LINE
8
NFC_COIL
10
6.2825
20
6.6931
11
6.5999
21
6.3735
0
LINE
8
NFC_COIL
10
6.5999
20
6.3735
11
6.9012
21
6.0389
0
LINE
8
NFC_COIL
10
6.9012
20
6.0389
11
7.1855
21
5.6901
0
LINE
8
NFC_COIL
10
7.1855
20
5.6901
11
7.4523
21
5.3279
0
LINE
8
NFC_COIL
10
7.4523
20
5.3279
11
7.7008
21
4.9533
0
LINE
8
NFC_COIL
10
7.7008
20
4.9533
11
7.9305
21
4.5671
0
LINE
8
NFC_COIL
10
7.9305
20
4.5671
11
8.1408
21
4.1704
0
LINE
8
NFC_COIL
10
8.1408
20
4.1704
11
8.3314
21
3.7640
0
LINE
8
NFC_COIL
10
8.3314
20
3.7640
11
8.5017
21
3.3489
0
LINE
8
NFC_COIL
10
8.5017
20
3.3489
11
8.6513
21
2.9262
0
LINE
8
NFC_COIL
10
8.6513
20
2.9262
11
8.7800
21
2.4969
0
LINE
8
NFC_COIL
10
8.7800
20
2.4969
11
8.8874
21
2.0620
0
LINE
8
NFC_COIL
10
8.8874
20
2.0620
11
8.9732
21
1.6226
0
LINE
8
NFC_COIL
10
8.9732
20
1.6226
11
9.0374
21
1.1798
0
LINE
8
NFC_COIL
10
9.0374
20
1.1798
11
9.0797
21
0.7345
0
LINE
8
NFC_COIL
10
9.0797
20
0.7345
11
9.1001
21
0.2880
0
LINE
8
NFC_COIL
10
9.1001
20
0.2880
11
9.0986
21
-0.1588
0
LINE
8
NFC_COIL
10
9.0986
20
-0.1588
11
9.0752
21
-0.6048
0
LINE
8
NFC_COIL
10
9.0752
20
-0.6048
11
9.0299
21
-1.0488
0
LINE
8
NFC_COIL
10
9.0299
20
-1.0488
11
8.9630
21
-1.4898
0
LINE
8
NFC_COIL
10
8.9630
20
-1.4898
11
8.8745
21
-1.9268
0
LINE
8
NFC_COIL
10
8.8745
20
-1.9268
11
8.7647
21
-2.3587
0
LINE
8
NFC_COIL
10
8.7647
20
-2.3587
11
8.6340
21
-2.7845
0
LINE
8
NFC_COIL
10
8.6340
20
-2.7845
11
8.4825
21
-3.2032
0
LINE
8
NFC_COIL
10
8.4825
20
-3.2032
11
8.3109
21
-3.6137
0
LINE
8
NFC_COIL
10
8.3109
20
-3.6137
11
8.1193
21
-4.0150
0
LINE
8
NFC_COIL
10
8.1193
20
-4.0150
11
7.9084
21
-4.4063
0
LINE
8
NFC_COIL
10
7.9084
20
-4.4063
11
7.6787
21
-4.7866
0
LINE
8
NFC_COIL
10
7.6787
20
-4.7866
11
7.4308
21
-5.1549
0
LINE
8
NFC_COIL
10
7.4308
20
-5.1549
11
7.1652
21
-5.5105
0
LINE
8
NFC_COIL
10
7.1652
20
-5.5105
11
6.8826
21
-5.8524
0
LINE
8
NFC_COIL
10
6.8826
20
-5.8524
11
6.5837
21
-6.1798
0
LINE
8
NFC_COIL
10
6.5837
20
-6.1798
11
6.2693
21
-6.4920
0
LINE
8
NFC_COIL
10
6.2693
20
-6.4920
11
5.9401
21
-6.7883
0
LINE
8
NFC_COIL
10
5.9401
20
-6.7883
11
5.5970
21
-7.0679
0
LINE
8
NFC_COIL
10
5.5970
20
-7.0679
11
5.2407
21
-7.3302
0
LINE
8
NFC_COIL
10
5.2407
20
-7.3302
11
4.8722
21
-7.5746
0
LINE
8
NFC_COIL
10
4.8722
20
-7.5746
11
4.4923
21
-7.8005
0
LINE
8
NFC_COIL
10
4.4923
20
-7.8005
11
4.1020
21
-8.0073
0
LINE
8
NFC_COIL
10
4.1020
20
-8.0073
11
3.7022
21
-8.1947
0
LINE
8
NFC_COIL
10
3.7022
20
-8.1947
11
3.2939
21
-8.3621
0
LINE
8
NFC_COIL
10
3.2939
20
-8.3621
11
2.8782
21
-8.5092
0
LINE
8
NFC_COIL
10
2.8782
20
-8.5092
11
2.4559
21
-8.6357
0
LINE
8
NFC_COIL
10
2.4559
20
-8.6357
11
2.0281
21
-8.7412
0
LINE
8
NFC_COIL
10
2.0281
20
-8.7412
11
1.5959
21
-8.8256
0
LINE
8
NFC_COIL
10
1.5959
20
-8.8256
11
1.1603
21
-8.8886
0
LINE
8
NFC_COIL
10
1.1603
20
-8.8886
11
0.7224
21
-8.9302
0
LINE
8
NFC_COIL
10
0.7224
20
-8.9302
11
0.2832
21
-8.9502
0
LINE
8
NFC_COIL
10
0.2832
20
-8.9502
11
-0.1562
21
-8.9486
0
LINE
8
NFC_COIL
10
-0.1562
20
-8.9486
11
-0.5948
21
-8.9255
0
LINE
8
NFC_COIL
10
-0.5948
20
-8.9255
11
-1.0315
21
-8.8809
0
LINE
8
NFC_COIL
10
-1.0315
20
-8.8809
11
-1.4652
21
-8.8150
0
LINE
8
NFC_COIL
10
-1.4652
20
-8.8150
11
-1.8950
21
-8.7279
0
LINE
8
NFC_COIL
10
-1.8950
20
-8.7279
11
-2.3198
21
-8.6199
0
LINE
8
NFC_COIL
10
-2.3198
20
-8.6199
11
-2.7385
21
-8.4912
0
LINE
8
NFC_COIL
10
-2.7385
20
-8.4912
11
-3.1502
21
-8.3422
0
LINE
8
NFC_COIL
10
-3.1502
20
-8.3422
11
-3.5539
21
-8.1733
0
LINE
8
NFC_COIL
10
-3.5539
20
-8.1733
11
-3.9485
21
-7.9849
0
LINE
8
NFC_COIL
10
-3.9485
20
-7.9849
11
-4.3333
21
-7.7774
0
LINE
8
NFC_COIL
10
-4.3333
20
-7.7774
11
-4.7072
21
-7.5514
0
LINE
8
NFC_COIL
10
-4.7072
20
-7.5514
11
-5.0694
21
-7.3075
0
LINE
8
NFC_COIL
10
-5.0694
20
-7.3075
11
-5.4190
21
-7.0463
0
LINE
8
NFC_COIL
10
-5.4190
20
-7.0463
11
-5.7552
21
-6.7683
0
LINE
8
NFC_COIL
10
-5.7552
20
-6.7683
11
-6.0772
21
-6.4743
0
LINE
8
NFC_COIL
10
-6.0772
20
-6.4743
11
-6.3841
21
-6.1651
0
LINE
8
NFC_COIL
10
-6.3841
20
-6.1651
11
-6.6754
21
-5.8413
0
LINE
8
NFC_COIL
10
-6.6754
20
-5.8413
11
-6.9503
21
-5.5038
0
LINE
8
NFC_COIL
10
-6.9503
20
-5.5038
11
-7.2082
21
-5.1534
0
LINE
8
NFC_COIL
10
-7.2082
20
-5.1534
11
-7.4485
21
-4.7910
0
LINE
8
NFC_COIL
10
-7.4485
20
-4.7910
11
-7.6705
21
-4.4174
0
LINE
8
NFC_COIL
10
-7.6705
20
-4.4174
11
-7.8738
21
-4.0336
0
LINE
8
NFC_COIL
10
-7.8738
20
-4.0336
11
-8.0580
21
-3.6404
0
LINE
8
NFC_COIL
10
-8.0580
20
-3.6404
11
-8.2226
21
-3.2390
0
LINE
8
NFC_COIL
10
-8.2226
20
-3.2390
11
-8.3671
21
-2.8301
0
LINE
8
NFC_COIL
10
-8.3671
20
-2.8301
11
-8.4914
21
-2.4148
0
LINE
8
NFC_COIL
10
-8.4914
20
-2.4148
11
-8.5951
21
-1.9942
0
LINE
8
NFC_COIL
10
-8.5951
20
-1.9942
11
-8.6780
21
-1.5692
0
LINE
8
NFC_COIL
10
-8.6780
20
-1.5692
11
-8.7399
21
-1.1409
0
LINE
8
NFC_COIL
10
-8.7399
20
-1.1409
11
-8.7807
21
-0.7103
0
LINE
8
NFC_COIL
10
-8.7807
20
-0.7103
11
-8.8003
21
-0.2785
0
LINE
8
NFC_COIL
10
-8.8003
20
-0.2785
11
-8.7987
21
0.1536
0
LINE
8
NFC_COIL
10
-8.7987
20
0.1536
11
-8.7758
21
0.5848
0
LINE
8
NFC_COIL
10
-8.7758
20
0.5848
11
-8.7319
21
1.0142
0
LINE
8
NFC_COIL
10
-8.7319
20
1.0142
11
-8.6670
21
1.4406
0
LINE
8
NFC_COIL
10
-8.6670
20
1.4406
11
-8.5813
21
1.8632
0
LINE
8
NFC_COIL
10
-8.5813
20
1.8632
11
-8.4750
21
2.2808
0
LINE
8
NFC_COIL
10
-8.4750
20
2.2808
11
-8.3484
21
2.6925
0
LINE
8
NFC_COIL
10
-8.3484
20
2.6925
11
-8.2019
21
3.0972
0
LINE
8
NFC_COIL
10
-8.2019
20
3.0972
11
-8.0357
21
3.4940
0
LINE
8
NFC_COIL
10
-8.0357
20
3.4940
11
-7.8504
21
3.8820
0
LINE
8
NFC_COIL
10
-7.8504
20
3.8820
11
-7.6464
21
4.2603
0
LINE
8
NFC_COIL
10
-7.6464
20
4.2603
11
-7.4241
21
4.6279
0
LINE
8
NFC_COIL
10
-7.4241
20
4.6279
11
-7.1843
21
4.9839
0
LINE
8
NFC_COIL
10
-7.1843
20
4.9839
11
-6.9274
21
5.3276
0
LINE
8
NFC_COIL
10
-6.9274
20
5.3276
11
-6.6540
21
5.6580
0
LINE
8
NFC_COIL
10
-6.6540
20
5.6580
11
-6.3650
21
5.9745
0
LINE
8
NFC_COIL
10
-6.3650
20
5.9745
11
-6.0609
21
6.2762
0
LINE
8
NFC_COIL
10
-6.0609
20
6.2762
11
-5.7425
21
6.5625
0
LINE
8
NFC_COIL
10
-5.7425
20
6.5625
11
-5.4107
21
6.8327
0
LINE
8
NFC_COIL
10
-5.4107
20
6.8327
11
-5.0662
21
7.0862
0
LINE
8
NFC_COIL
10
-5.0662
20
7.0862
11
-4.7099
21
7.3223
0
LINE
8
NFC_COIL
10
-4.7099
20
7.3223
11
-4.3426
21
7.5405
0
LINE
8
NFC_COIL
10
-4.3426
20
7.5405
11
-3.9652
21
7.7403
0
LINE
8
NFC_COIL
10
-3.9652
20
7.7403
11
-3.5787
21
7.9213
0
LINE
8
NFC_COIL
10
-3.5787
20
7.9213
11
-3.1840
21
8.0830
0
LINE
8
NFC_COIL
10
-3.1840
20
8.0830
11
-2.7820
21
8.2251
0
LINE
8
NFC_COIL
10
-2.7820
20
8.2251
11
-2.3738
21
8.3471
0
LINE
8
NFC_COIL
10
-2.3738
20
8.3471
11
-1.9603
21
8.4490
0
LINE
8
NFC_COIL
10
-1.9603
20
8.4490
11
-1.5425
21
8.5304
0
LINE
8
NFC_COIL
10
-1.5425
20
8.5304
11
-1.1215
21
8.5912
0
LINE
8
NFC_COIL
10
-1.1215
20
8.5912
11
-0.6982
21
8.6312
0
LINE
8
NFC_COIL
10
-0.6982
20
8.6312
11
-0.2737
21
8.6504
0
LINE
8
NFC_COIL
10
-0.2737
20
8.6504
11
0.1510
21
8.6487
0
LINE
8
NFC_COIL
10
0.1510
20
8.6487
11
0.5748
21
8.6262
0
LINE
8
NFC_COIL
10
0.5748
20
8.6262
11
0.9969
21
8.5829
0
LINE
8
NFC_COIL
10
0.9969
20
8.5829
11
1.4160
21
8.5191
0
LINE
8
NFC_COIL
10
1.4160
20
8.5191
11
1.8314
21
8.4347
0
LINE
8
NFC_COIL
10
1.8314
20
8.4347
11
2.2418
21
8.3302
0
LINE
8
NFC_COIL
10
2.2418
20
8.3302
11
2.6464
21
8.2057
0
LINE
8
NFC_COIL
10
2.6464
20
8.2057
11
3.0442
21
8.0616
0
LINE
8
NFC_COIL
10
3.0442
20
8.0616
11
3.4342
21
7.8982
0
LINE
8
NFC_COIL
10
3.4342
20
7.8982
11
3.8156
21
7.7160
0
LINE
8
NFC_COIL
10
3.8156
20
7.7160
11
4.1873
21
7.5153
0
LINE
8
NFC_COIL
10
4.1873
20
7.5153
11
4.5485
21
7.2969
0
LINE
8
NFC_COIL
10
4.5485
20
7.2969
11
4.8984
21
7.0610
0
LINE
8
NFC_COIL
10
4.8984
20
7.0610
11
5.2361
21
6.8085
0
LINE
8
NFC_COIL
10
5.2361
20
6.8085
11
5.5609
21
6.5398
0
LINE
8
NFC_COIL
10
5.5609
20
6.5398
11
5.8718
21
6.2556
0
LINE
8
NFC_COIL
10
5.8718
20
6.2556
11
6.1683
21
5.9567
0
LINE
8
NFC_COIL
10
6.1683
20
5.9567
11
6.4497
21
5.6438
0
LINE
8
NFC_COIL
10
6.4497
20
5.6438
11
6.7151
21
5.3176
0
LINE
8
NFC_COIL
10
6.7151
20
5.3176
11
6.9642
21
4.9790
0
LINE
8
NFC_COIL
10
6.9642
20
4.9790
11
7.1961
21
4.6287
0
LINE
8
NFC_COIL
10
7.1961
20
4.6287
11
7.4105
21
4.2677
0
LINE
8
NFC_COIL
10
7.4105
20
4.2677
11
7.6068
21
3.8968
0
LINE
8
NFC_COIL
10
7.6068
20
3.8968
11
7.7846
21
3.5169
0
LINE
8
NFC_COIL
10
7.7846
20
3.5169
11
7.9434
21
3.1290
0
LINE
8
NFC_COIL
10
7.9434
20
3.1290
11
8.0830
21
2.7340
0
LINE
8
NFC_COIL
10
8.0830
20
2.7340
11
8.2029
21
2.3328
0
LINE
8
NFC_COIL
10
8.2029
20
2.3328
11
8.3029
21
1.9264
0
LINE
8
NFC_COIL
10
8.3029
20
1.9264
11
8.3828
21
1.5159
0
LINE
8
NFC_COIL
10
8.3828
20
1.5159
11
8.4424
21
1.1021
0
LINE
8
NFC_COIL
10
8.4424
20
1.1021
11
8.4817
21
0.6861
0
LINE
8
NFC_COIL
10
8.4817
20
0.6861
11
8.5004
21
0.2690
0
LINE
8
NFC_COIL
10
8.5004
20
0.2690
11
8.4987
21
-0.1483
0
LINE
8
NFC_COIL
10
8.4987
20
-0.1483
11
8.4765
21
-0.5649
0
LINE
8
NFC_COIL
10
8.4765
20
-0.5649
11
8.4339
21
-0.9796
0
LINE
8
NFC_COIL
10
8.4339
20
-0.9796
11
8.3711
21
-1.3915
0
LINE
8
NFC_COIL
10
8.3711
20
-1.3915
11
8.2881
21
-1.7995
0
LINE
8
NFC_COIL
10
8.2881
20
-1.7995
11
8.1853
21
-2.2028
0
LINE
8
NFC_COIL
10
8.1853
20
-2.2028
11
8.0629
21
-2.6004
0
LINE
8
NFC_COIL
10
8.0629
20
-2.6004
11
7.9212
21
-2.9912
0
LINE
8
NFC_COIL
10
7.9212
20
-2.9912
11
7.7606
21
-3.3744
0
LINE
8
NFC_COIL
10
7.7606
20
-3.3744
11
7.5815
21
-3.7491
0
LINE
8
NFC_COIL
10
7.5815
20
-3.7491
11
7.3843
21
-4.1143
0
LINE
8
NFC_COIL
10
7.3843
20
-4.1143
11
7.1696
21
-4.4692
0
LINE
8
NFC_COIL
10
7.1696
20
-4.4692
11
6.9378
21
-4.8129
0
LINE
8
NFC_COIL
10
6.9378
20
-4.8129
11
6.6896
21
-5.1447
0
LINE
8
NFC_COIL
10
6.6896
20
-5.1447
11
6.4255
21
-5.4637
0
LINE
8
NFC_COIL
10
6.4255
20
-5.4637
11
6.1462
21
-5.7692
0
LINE
8
NFC_COIL
10
6.1462
20
-5.7692
11
5.8525
21
-6.0604
0
LINE
8
NFC_COIL
10
5.8525
20
-6.0604
11
5.5450
21
-6.3368
0
LINE
8
NFC_COIL
10
5.5450
20
-6.3368
11
5.2245
21
-6.5976
0
LINE
8
NFC_COIL
10
5.2245
20
-6.5976
11
4.8917
21
-6.8421
0
LINE
8
NFC_COIL
10
4.8917
20
-6.8421
11
4.5476
21
-7.0700
0
LINE
8
NFC_COIL
10
4.5476
20
-7.0700
11
4.1928
21
-7.2805
0
LINE
8
NFC_COIL
10
4.1928
20
-7.2805
11
3.8284
21
-7.4733
0
LINE
8
NFC_COIL
10
3.8284
20
-7.4733
11
3.4552
21
-7.6479
0
LINE
8
NFC_COIL
10
3.4552
20
-7.6479
11
3.0740
21
-7.8039
0
LINE
8
NFC_COIL
10
3.0740
20
-7.8039
11
2.6859
21
-7.9409
0
LINE
8
NFC_COIL
10
2.6859
20
-7.9409
11
2.2917
21
-8.0586
0
LINE
8
NFC_COIL
10
2.2917
20
-8.0586
11
1.8925
21
-8.1568
0
LINE
8
NFC_COIL
10
1.8925
20
-8.1568
11
1.4892
21
-8.2352
0
LINE
8
NFC_COIL
10
1.4892
20
-8.2352
11
1.0827
21
-8.2937
0
LINE
8
NFC_COIL
10
1.0827
20
-8.2937
11
0.6740
21
-8.3322
0
LINE
8
NFC_COIL
10
0.6740
20
-8.3322
11
0.2642
21
-8.3505
0
LINE
8
NFC_COIL
10
0.2642
20
-8.3505
11
-0.1457
21
-8.3487
0
LINE
8
NFC_COIL
10
-0.1457
20
-8.3487
11
-0.5549
21
-8.3268
0
LINE
8
NFC_COIL
10
-0.5549
20
-8.3268
11
-0.9623
21
-8.2849
0
LINE
8
NFC_COIL
10
-0.9623
20
-8.2849
11
-1.3669
21
-8.2231
0
LINE
8
NFC_COIL
10
-1.3669
20
-8.2231
11
-1.7677
21
-8.1416
0
LINE
8
NFC_COIL
10
-1.7677
20
-8.1416
11
-2.1638
21
-8.0405
0
LINE
8
NFC_COIL
10
-2.1638
20
-8.0405
11
-2.5543
21
-7.9202
0
LINE
8
NFC_COIL
10
-2.5543
20
-7.9202
11
-2.9382
21
-7.7809
0
LINE
8
NFC_COIL
10
-2.9382
20
-7.7809
11
-3.3146
21
-7.6231
0
LINE
8
NFC_COIL
10
-3.3146
20
-7.6231
11
-3.6826
21
-7.4470
0
LINE
8
NFC_COIL
10
-3.6826
20
-7.4470
11
-4.0413
21
-7.2533
0
LINE
8
NFC_COIL
10
-4.0413
20
-7.2533
11
-4.3898
21
-7.0423
0
LINE
8
NFC_COIL
10
-4.3898
20
-7.0423
11
-4.7274
21
-6.8145
0
LINE
8
NFC_COIL
10
-4.7274
20
-6.8145
11
-5.0532
21
-6.5706
0
LINE
8
NFC_COIL
10
-5.0532
20
-6.5706
11
-5.3665
21
-6.3112
0
LINE
8
NFC_COIL
10
-5.3665
20
-6.3112
11
-5.6665
21
-6.0369
0
LINE
8
NFC_COIL
10
-5.6665
20
-6.0369
11
-5.9525
21
-5.7483
0
LINE
8
NFC_COIL
10
-5.9525
20
-5.7483
11
-6.2239
21
-5.4462
0
LINE
8
NFC_COIL
10
-6.2239
20
-5.4462
11
-6.4800
21
-5.1313
0
LINE
8
NFC_COIL
10
-6.4800
20
-5.1313
11
-6.7201
21
-4.8045
0
LINE
8
NFC_COIL
10
-6.7201
20
-4.8045
11
-6.9438
21
-4.4664
0
LINE
8
NFC_COIL
10
-6.9438
20
-4.4664
11
-7.1506
21
-4.1180
0
LINE
8
NFC_COIL
10
-7.1506
20
-4.1180
11
-7.3398
21
-3.7600
0
LINE
8
NFC_COIL
10
-7.3398
20
-3.7600
11
-7.5112
21
-3.3934
0
LINE
8
NFC_COIL
10
-7.5112
20
-3.3934
11
-7.6643
21
-3.0191
0
LINE
8
NFC_COIL
10
-7.6643
20
-3.0191
11
-7.7988
21
-2.6378
0
LINE
8
NFC_COIL
10
-7.7988
20
-2.6378
11
-7.9143
21
-2.2507
0
LINE
8
NFC_COIL
10
-7.9143
20
-2.2507
11
-8.0106
21
-1.8586
0
LINE
8
NFC_COIL
10
-8.0106
20
-1.8586
11
-8.0876
21
-1.4625
0
LINE
8
NFC_COIL
10
-8.0876
20
-1.4625
11
-8.1450
21
-1.0633
0
LINE
8
NFC_COIL
10
-8.1450
20
-1.0633
11
-8.1826
21
-0.6620
0
LINE
8
NFC_COIL
10
-8.1826
20
-0.6620
11
-8.2006
21
-0.2595
0
LINE
8
NFC_COIL
10
-8.2006
20
-0.2595
11
-8.1988
21
0.1431
0
LINE
8
NFC_COIL
10
-8.1988
20
0.1431
11
-8.1772
21
0.5449
0
LINE
8
NFC_COIL
10
-8.1772
20
0.5449
11
-8.1359
21
0.9450
0
LINE
8
NFC_COIL
10
-8.1359
20
0.9450
11
-8.0751
21
1.3423
0
LINE
8
NFC_COIL
10
-8.0751
20
1.3423
11
-7.9950
21
1.7359
0
LINE
8
NFC_COIL
10
-7.9950
20
1.7359
11
-7.8956
21
2.1249
0
LINE
8
NFC_COIL
10
-7.8956
20
2.1249
11
-7.7774
21
2.5083
0
LINE
8
NFC_COIL
10
-7.7774
20
2.5083
11
-7.6406
21
2.8852
0
LINE
8
NFC_COIL
10
-7.6406
20
2.8852
11
-7.4855
21
3.2548
0
LINE
8
NFC_COIL
10
-7.4855
20
3.2548
11
-7.3126
21
3.6161
0
LINE
8
NFC_COIL
10
-7.3126
20
3.6161
11
-7.1222
21
3.9683
0
LINE
8
NFC_COIL
10
-7.1222
20
3.9683
11
-6.9150
21
4.3105
0
LINE
8
NFC_COIL
10
-6.9150
20
4.3105
11
-6.6913
21
4.6419
0
LINE
8
NFC_COIL
10
-6.6913
20
4.6419
11
-6.4517
21
4.9618
0
LINE
8
NFC_COIL
10
-6.4517
20
4.9618
11
-6.1969
21
5.2693
0
LINE
8
NFC_COIL
10
-6.1969
20
5.2693
11
-5.9275
21
5.5639
0
LINE
8
NFC_COIL
10
-5.9275
20
5.5639
11
-5.6441
21
5.8446
0
LINE
8
NFC_COIL
10
-5.6441
20
5.8446
11
-5.3474
21
6.1110
0
LINE
8
NFC_COIL
10
-5.3474
20
6.1110
11
-5.0382
21
6.3624
0
LINE
8
NFC_COIL
10
-5.0382
20
6.3624
11
-4.7172
21
6.5981
0
LINE
8
NFC_COIL
10
-4.7172
20
6.5981
11
-4.3853
21
6.8177
0
LINE
8
NFC_COIL
10
-4.3853
20
6.8177
11
-4.0431
21
7.0206
0
LINE
8
NFC_COIL
10
-4.0431
20
7.0206
11
-3.6916
21
7.2063
0
LINE
8
NFC_COIL
10
-3.6916
20
7.2063
11
-3.3317
21
7.3745
0
LINE
8
NFC_COIL
10
-3.3317
20
7.3745
11
-2.9641
21
7.5248
0
LINE
8
NFC_COIL
10
-2.9641
20
7.5248
11
-2.5898
21
7.6567
0
LINE
8
NFC_COIL
10
-2.5898
20
7.6567
11
-2.2097
21
7.7700
0
LINE
8
NFC_COIL
10
-2.2097
20
7.7700
11
-1.8247
21
7.8645
0
LINE
8
NFC_COIL
10
-1.8247
20
7.8645
11
-1.4358
21
7.9400
0
LINE
8
NFC_COIL
10
-1.4358
20
7.9400
11
-1.0438
21
7.9962
0
LINE
8
NFC_COIL
10
-1.0438
20
7.9962
11
-0.6499
21
8.0331
0
LINE
8
NFC_COIL
10
-0.6499
20
8.0331
11
-0.2548
21
8.0507
0
LINE
8
NFC_COIL
10
-0.2548
20
8.0507
11
0.1405
21
8.0488
0
LINE
8
NFC_COIL
10
0.1405
20
8.0488
11
0.5349
21
8.0275
0
LINE
8
NFC_COIL
10
0.5349
20
8.0275
11
0.9277
21
7.9869
0
LINE
8
NFC_COIL
10
0.9277
20
7.9869
11
1.3177
21
7.9272
0
LINE
8
NFC_COIL
10
1.3177
20
7.9272
11
1.7041
21
7.8484
0
LINE
8
NFC_COIL
10
1.7041
20
7.8484
11
2.0859
21
7.7508
0
LINE
8
NFC_COIL
10
2.0859
20
7.7508
11
2.4622
21
7.6346
0
LINE
8
NFC_COIL
10
2.4622
20
7.6346
11
2.8322
21
7.5002
0
LINE
8
NFC_COIL
10
2.8322
20
7.5002
11
3.1950
21
7.3479
0
LINE
8
NFC_COIL
10
3.1950
20
7.3479
11
3.5496
21
7.1781
0
LINE
8
NFC_COIL
10
3.5496
20
7.1781
11
3.8953
21
6.9912
0
LINE
8
NFC_COIL
10
3.8953
20
6.9912
11
4.2311
21
6.7877
0
LINE
8
NFC_COIL
10
4.2311
20
6.7877
11
4.5564
21
6.5680
0
LINE
8
NFC_COIL
10
4.5564
20
6.5680
11
4.8703
21
6.3328
0
LINE
8
NFC_COIL
10
4.8703
20
6.3328
11
5.1722
21
6.0827
0
LINE
8
NFC_COIL
10
5.1722
20
6.0827
11
5.4612
21
5.8181
0
LINE
8
NFC_COIL
10
5.4612
20
5.8181
11
5.7367
21
5.5399
0
LINE
8
NFC_COIL
10
5.7367
20
5.5399
11
5.9981
21
5.2487
0
LINE
8
NFC_COIL
10
5.9981
20
5.2487
11
6.2448
21
4.9451
0
LINE
8
NFC_COIL
10
6.2448
20
4.9451
11
6.4761
21
4.6300
0
LINE
8
NFC_COIL
10
6.4761
20
4.6300
11
6.6915
21
4.3041
0
LINE
8
NFC_COIL
10
6.6915
20
4.3041
11
6.8906
21
3.9683
0
LINE
8
NFC_COIL
10
6.8906
20
3.9683
11
7.0728
21
3.6232
0
LINE
8
NFC_COIL
10
7.0728
20
3.6232
11
7.2378
21
3.2699
0
LINE
8
NFC_COIL
10
7.2378
20
3.2699
11
7.3852
21
2.9091
0
LINE
8
NFC_COIL
10
7.3852
20
2.9091
11
7.5146
21
2.5417
0
LINE
8
NFC_COIL
10
7.5146
20
2.5417
11
7.6258
21
2.1687
0
LINE
8
NFC_COIL
10
7.6258
20
2.1687
11
7.7184
21
1.7908
0
LINE
8
NFC_COIL
10
7.7184
20
1.7908
11
7.7924
21
1.4091
0
LINE
8
NFC_COIL
10
7.7924
20
1.4091
11
7.8475
21
1.0244
0
LINE
8
NFC_COIL
10
7.8475
20
1.0244
11
7.8836
21
0.6378
0
LINE
8
NFC_COIL
10
7.8836
20
0.6378
11
7.9007
21
0.2500
0
LINE
8
NFC_COIL
10
7.9007
20
0.2500
11
7.8988
21
-0.1379
0
LINE
8
NFC_COIL
10
7.8988
20
-0.1379
11
7.8778
21
-0.5250
0
LINE
8
NFC_COIL
10
7.8778
20
-0.5250
11
7.8379
21
-0.9103
0
LINE
8
NFC_COIL
10
7.8379
20
-0.9103
11
7.7792
21
-1.2931
0
LINE
8
NFC_COIL
10
7.7792
20
-1.2931
11
7.7018
21
-1.6722
0
LINE
8
NFC_COIL
10
7.7018
20
-1.6722
11
7.6059
21
-2.0469
0
LINE
8
NFC_COIL
10
7.6059
20
-2.0469
11
7.4919
21
-2.4162
0
LINE
8
NFC_COIL
10
7.4919
20
-2.4162
11
7.3599
21
-2.7792
0
LINE
8
NFC_COIL
10
7.3599
20
-2.7792
11
7.2104
21
-3.1352
0
LINE
8
NFC_COIL
10
7.2104
20
-3.1352
11
7.0437
21
-3.4831
0
LINE
8
NFC_COIL
10
7.0437
20
-3.4831
11
6.8602
21
-3.8222
0
LINE
8
NFC_COIL
10
6.8602
20
-3.8222
11
6.6604
21
-4.1518
0
LINE
8
NFC_COIL
10
6.6604
20
-4.1518
11
6.4448
21
-4.4709
0
LINE
8
NFC_COIL
10
6.4448
20
-4.4709
11
6.2139
21
-4.7789
0
LINE
8
NFC_COIL
10
6.2139
20
-4.7789
11
5.9684
21
-5.0750
0
LINE
8
NFC_COIL
10
5.9684
20
-5.0750
11
5.7088
21
-5.3585
0
LINE
8
NFC_COIL
10
5.7088
20
-5.3585
11
5.4357
21
-5.6288
0
LINE
8
NFC_COIL
10
5.4357
20
-5.6288
11
5.1499
21
-5.8852
0
LINE
8
NFC_COIL
10
5.1499
20
-5.8852
11
4.8520
21
-6.1272
0
LINE
8
NFC_COIL
10
4.8520
20
-6.1272
11
4.5428
21
-6.3541
0
LINE
8
NFC_COIL
10
4.5428
20
-6.3541
11
4.2230
21
-6.5654
0
LINE
8
NFC_COIL
10
4.2230
20
-6.5654
11
3.8934
21
-6.7606
0
LINE
8
NFC_COIL
10
3.8934
20
-6.7606
11
3.5549
21
-6.9393
0
LINE
8
NFC_COIL
10
3.5549
20
-6.9393
11
3.2081
21
-7.1011
0
LINE
8
NFC_COIL
10
3.2081
20
-7.1011
11
2.8541
21
-7.2456
0
LINE
8
NFC_COIL
10
2.8541
20
-7.2456
11
2.4937
21
-7.3725
0
LINE
8
NFC_COIL
10
2.4937
20
-7.3725
11
2.1276
21
-7.4815
0
LINE
8
NFC_COIL
10
2.1276
20
-7.4815
11
1.7569
21
-7.5723
0
LINE
8
NFC_COIL
10
1.7569
20
-7.5723
11
1.3824
21
-7.6448
0
LINE
8
NFC_COIL
10
1.3824
20
-7.6448
11
1.0050
21
-7.6987
0
LINE
8
NFC_COIL
10
1.0050
20
-7.6987
11
0.6257
21
-7.7341
0
LINE
8
NFC_COIL
10
0.6257
20
-7.7341
11
0.2453
21
-7.7508
0
LINE
8
NFC_COIL
10
0.2453
20
-7.7508
11
-0.1353
21
-7.7488
0
LINE
8
NFC_COIL
10
-0.1353
20
-7.7488
11
-0.5150
21
-7.7282
0
LINE
8
NFC_COIL
10
-0.5150
20
-7.7282
11
-0.8930
21
-7.6889
0
LINE
8
NFC_COIL
10
-0.8930
20
-7.6889
11
-1.2685
21
-7.6312
0
LINE
8
NFC_COIL
10
-1.2685
20
-7.6312
11
-1.6404
21
-7.5552
0
LINE
8
NFC_COIL
10
-1.6404
20
-7.5552
11
-2.0079
21
-7.4611
0
LINE
8
NFC_COIL
10
-2.0079
20
-7.4611
11
-2.3702
21
-7.3491
0
LINE
8
NFC_COIL
10
-2.3702
20
-7.3491
11
-2.7263
21
-7.2196
0
LINE
8
NFC_COIL
10
-2.7263
20
-7.2196
11
-3.0754
21
-7.0728
0
LINE
8
NFC_COIL
10
-3.0754
20
-7.0728
11
-3.4166
21
-6.9092
0
LINE
8
NFC_COIL
10
-3.4166
20
-6.9092
11
-3.7492
21
-6.7291
0
LINE
8
NFC_COIL
10
-3.7492
20
-6.7291
11
-4.0724
21
-6.5331
0
LINE
8
NFC_COIL
10
-4.0724
20
-6.5331
11
-4.3854
21
-6.3215
0
LINE
8
NFC_COIL
10
-4.3854
20
-6.3215
11
-4.6875
21
-6.0950
0
LINE
8
NFC_COIL
10
-4.6875
20
-6.0950
11
-4.9778
21
-5.8541
0
LINE
8
NFC_COIL
10
-4.9778
20
-5.8541
11
-5.2559
21
-5.5994
0
LINE
8
NFC_COIL
10
-5.2559
20
-5.5994
11
-5.5209
21
-5.3315
0
LINE
8
NFC_COIL
10
-5.5209
20
-5.3315
11
-5.7724
21
-5.0511
0
LINE
8
NFC_COIL
10
-5.7724
20
-5.0511
11
-6.0096
21
-4.7589
0
LINE
8
NFC_COIL
10
-6.0096
20
-4.7589
11
-6.2320
21
-4.4555
0
LINE
8
NFC_COIL
10
-6.2320
20
-4.4555
11
-6.4392
21
-4.1418
0
LINE
8
NFC_COIL
10
-6.4392
20
-4.1418
11
-6.6306
21
-3.8186
0
LINE
8
NFC_COIL
10
-6.6306
20
-3.8186
11
-6.8058
21
-3.4865
0
LINE
8
NFC_COIL
10
-6.8058
20
-3.4865
11
-6.9644
21
-3.1464
0
LINE
8
NFC_COIL
10
-6.9644
20
-3.1464
11
-7.1061
21
-2.7992
0
LINE
8
NFC_COIL
10
-7.1061
20
-2.7992
11
-7.2304
21
-2.4456
0
LINE
8
NFC_COIL
10
-7.2304
20
-2.4456
11
-7.3372
21
-2.0866
0
LINE
8
NFC_COIL
10
-7.3372
20
-2.0866
11
-7.4262
21
-1.7230
0
LINE
8
NFC_COIL
10
-7.4262
20
-1.7230
11
-7.4972
21
-1.3557
0
LINE
8
NFC_COIL
10
-7.4972
20
-1.3557
11
-7.5500
21
-0.9856
0
LINE
8
NFC_COIL
10
-7.5500
20
-0.9856
11
-7.5846
21
-0.6136
0
LINE
8
NFC_COIL
10
-7.5846
20
-0.6136
11
-7.6009
21
-0.2405
0
LINE
8
NFC_COIL
10
-7.6009
20
-0.2405
11
-7.5988
21
0.1326
0
LINE
8
NFC_COIL
10
-7.5988
20
0.1326
11
-7.5785
21
0.5050
0
LINE
8
NFC_COIL
10
-7.5785
20
0.5050
11
-7.5399
21
0.8757
0
LINE
8
NFC_COIL
10
-7.5399
20
0.8757
11
-7.4833
21
1.2439
0
LINE
8
NFC_COIL
10
-7.4833
20
1.2439
11
-7.4086
21
1.6086
0
LINE
8
NFC_COIL
10
-7.4086
20
1.6086
11
-7.3163
21
1.9689
0
LINE
8
NFC_COIL
10
-7.3163
20
1.9689
11
-7.2064
21
2.3241
0
LINE
8
NFC_COIL
10
-7.2064
20
2.3241
11
-7.0793
21
2.6733
0
LINE
8
NFC_COIL
10
-7.0793
20
2.6733
11
-6.9353
21
3.0155
0
LINE
8
NFC_COIL
10
-6.9353
20
3.0155
11
-6.7747
21
3.3501
0
LINE
8
NFC_COIL
10
-6.7747
20
3.3501
11
-6.5981
21
3.6762
0
LINE
8
NFC_COIL
10
-6.5981
20
3.6762
11
-6.4058
21
3.9931
0
LINE
8
NFC_COIL
10
-6.4058
20
3.9931
11
-6.1983
21
4.2999
0
LINE
8
NFC_COIL
10
-6.1983
20
4.2999
11
-5.9761
21
4.5960
0
LINE
8
NFC_COIL
10
-5.9761
20
4.5960
11
-5.7398
21
4.8807
0
LINE
8
NFC_COIL
10
-5.7398
20
4.8807
11
-5.4900
21
5.1532
0
LINE
8
NFC_COIL
10
-5.4900
20
5.1532
11
-5.2273
21
5.4130
0
LINE
8
NFC_COIL
10
-5.2273
20
5.4130
11
-4.9523
21
5.6595
0
LINE
8
NFC_COIL
10
-4.9523
20
5.6595
11
-4.6657
21
5.8920
0
LINE
8
NFC_COIL
10
-4.6657
20
5.8920
11
-4.3683
21
6.1100
0
LINE
8
NFC_COIL
10
-4.3683
20
6.1100
11
-4.0607
21
6.3130
0
LINE
8
NFC_COIL
10
-4.0607
20
6.3130
11
-3.7437
21
6.5006
0
LINE
8
NFC_COIL
10
-3.7437
20
6.5006
11
-3.4181
21
6.6723
0
LINE
8
NFC_COIL
10
-3.4181
20
6.6723
11
-3.0846
21
6.8277
0
LINE
8
NFC_COIL
10
-3.0846
20
6.8277
11
-2.7442
21
6.9665
0
LINE
8
NFC_COIL
10
-2.7442
20
6.9665
11
-2.3975
21
7.0883
0
LINE
8
NFC_COIL
10
-2.3975
20
7.0883
11
-2.0456
21
7.1929
0
LINE
8
NFC_COIL
10
-2.0456
20
7.1929
11
-1.6891
21
7.2801
0
LINE
8
NFC_COIL
10
-1.6891
20
7.2801
11
-1.3290
21
7.3496
0
LINE
8
NFC_COIL
10
-1.3290
20
7.3496
11
-0.9662
21
7.4013
0
LINE
8
NFC_COIL
10
-0.9662
20
7.4013
11
-0.6015
21
7.4351
0
LINE
8
NFC_COIL
10
-0.6015
20
7.4351
11
-0.2358
21
7.4510
0
LINE
8
NFC_COIL
10
-0.2358
20
7.4510
11
0.1300
21
7.4489
0
LINE
8
NFC_COIL
10
0.1300
20
7.4489
11
0.4951
21
7.4288
0
LINE
8
NFC_COIL
10
0.4951
20
7.4288
11
0.8584
21
7.3909
0
LINE
8
NFC_COIL
10
0.8584
20
7.3909
11
1.2193
21
7.3353
0
LINE
8
NFC_COIL
10
1.2193
20
7.3353
11
1.5767
21
7.2620
0
LINE
8
NFC_COIL
10
1.5767
20
7.2620
11
1.9300
21
7.1714
0
LINE
8
NFC_COIL
10
1.9300
20
7.1714
11
2.2781
21
7.0636
0
LINE
8
NFC_COIL
10
2.2781
20
7.0636
11
2.6203
21
6.9389
0
LINE
8
NFC_COIL
10
2.6203
20
6.9389
11
2.9557
21
6.7977
0
LINE
8
NFC_COIL
10
2.9557
20
6.7977
11
3.2836
21
6.6403
0
LINE
8
NFC_COIL
10
3.2836
20
6.6403
11
3.6032
21
6.4671
0
LINE
8
NFC_COIL
10
3.6032
20
6.4671
11
3.9137
21
6.2785
0
LINE
8
NFC_COIL
10
3.9137
20
6.2785
11
4.2144
21
6.0751
0
LINE
8
NFC_COIL
10
4.2144
20
6.0751
11
4.5046
21
5.8572
0
LINE
8
NFC_COIL
10
4.5046
20
5.8572
11
4.7835
21
5.6256
0
LINE
8
NFC_COIL
10
4.7835
20
5.6256
11
5.0506
21
5.3807
0
LINE
8
NFC_COIL
10
5.0506
20
5.3807
11
5.3051
21
5.1231
0
LINE
8
NFC_COIL
10
5.3051
20
5.1231
11
5.5466
21
4.8535
0
LINE
8
NFC_COIL
10
5.5466
20
4.8535
11
5.7744
21
4.5726
0
LINE
8
NFC_COIL
10
5.7744
20
4.5726
11
5.9880
21
4.2811
0
LINE
8
NFC_COIL
10
5.9880
20
4.2811
11
6.1869
21
3.9795
0
LINE
8
NFC_COIL
10
6.1869
20
3.9795
11
6.3706
21
3.6688
0
LINE
8
NFC_COIL
10
6.3706
20
3.6688
11
6.5388
21
3.3497
0
LINE
8
NFC_COIL
10
6.5388
20
3.3497
11
6.6910
21
3.0229
0
LINE
8
NFC_COIL
10
6.6910
20
3.0229
11
6.8269
21
2.6892
0
LINE
8
NFC_COIL
10
6.8269
20
2.6892
11
6.9462
21
2.3495
0
LINE
8
NFC_COIL
10
6.9462
20
2.3495
11
7.0486
21
2.0045
0
LINE
8
NFC_COIL
10
7.0486
20
2.0045
11
7.1339
21
1.6552
0
LINE
8
NFC_COIL
10
7.1339
20
1.6552
11
7.2019
21
1.3023
0
LINE
8
NFC_COIL
10
7.2019
20
1.3023
11
7.2525
21
0.9468
0
LINE
8
NFC_COIL
10
7.2525
20
0.9468
11
7.2856
21
0.5894
0
LINE
8
NFC_COIL
10
7.2856
20
0.5894
11
7.3010
21
0.2310
0
LINE
8
NFC_COIL
10
7.3010
20
0.2310
11
7.2989
21
-0.1274
0
LINE
8
NFC_COIL
10
7.2989
20
-0.1274
11
7.2792
21
-0.4851
0
LINE
8
NFC_COIL
10
7.2792
20
-0.4851
11
7.2419
21
-0.8411
0
LINE
8
NFC_COIL
10
7.2419
20
-0.8411
11
7.1873
21
-1.1947
0
LINE
8
NFC_COIL
10
7.1873
20
-1.1947
11
7.1155
21
-1.5449
0
LINE
8
NFC_COIL
10
7.1155
20
-1.5449
11
7.0266
21
-1.8910
0
LINE
8
NFC_COIL
10
7.0266
20
-1.8910
11
6.9209
21
-2.2320
0
LINE
8
NFC_COIL
10
6.9209
20
-2.2320
11
6.7986
21
-2.5673
0
LINE
8
NFC_COIL
10
6.7986
20
-2.5673
11
6.6601
21
-2.8959
0
LINE
8
NFC_COIL
10
6.6601
20
-2.8959
11
6.5058
21
-3.2171
0
LINE
8
NFC_COIL
10
6.5058
20
-3.2171
11
6.3360
21
-3.5302
0
LINE
8
NFC_COIL
10
6.3360
20
-3.5302
11
6.1512
21
-3.8344
0
LINE
8
NFC_COIL
10
6.1512
20
-3.8344
11
5.9518
21
-4.1289
0
LINE
8
NFC_COIL
10
5.9518
20
-4.1289
11
5.7383
21
-4.4131
0
LINE
8
NFC_COIL
10
5.7383
20
-4.4131
11
5.5113
21
-4.6863
0
LINE
8
NFC_COIL
10
5.5113
20
-4.6863
11
5.2713
21
-4.9479
0
LINE
8
NFC_COIL
10
5.2713
20
-4.9479
11
5.0189
21
-5.1972
0
LINE
8
NFC_COIL
10
5.0189
20
-5.1972
11
4.7548
21
-5.4337
0
LINE
8
NFC_COIL
10
4.7548
20
-5.4337
11
4.4795
21
-5.6568
0
LINE
8
NFC_COIL
10
4.4795
20
-5.6568
11
4.1938
21
-5.8660
0
LINE
8
NFC_COIL
10
4.1938
20
-5.8660
11
3.8984
21
-6.0607
0
LINE
8
NFC_COIL
10
3.8984
20
-6.0607
11
3.5940
21
-6.2407
0
LINE
8
NFC_COIL
10
3.5940
20
-6.2407
11
3.2813
21
-6.4053
0
LINE
8
NFC_COIL
10
3.2813
20
-6.4053
11
2.9611
21
-6.5543
0
LINE
8
NFC_COIL
10
2.9611
20
-6.5543
11
2.6342
21
-6.6874
0
LINE
8
NFC_COIL
10
2.6342
20
-6.6874
11
2.3014
21
-6.8041
0
LINE
8
NFC_COIL
10
2.3014
20
-6.8041
11
1.9635
21
-6.9044
0
LINE
8
NFC_COIL
10
1.9635
20
-6.9044
11
1.6213
21
-6.9878
0
LINE
8
NFC_COIL
10
1.6213
20
-6.9878
11
1.2756
21
-7.0543
0
LINE
8
NFC_COIL
10
1.2756
20
-7.0543
11
0.9273
21
-7.1038
0
LINE
8
NFC_COIL
10
0.9273
20
-7.1038
11
0.5773
21
-7.1361
0
LINE
8
NFC_COIL
10
0.5773
20
-7.1361
11
0.2263
21
-7.1511
0
LINE
8
NFC_COIL
10
0.2263
20
-7.1511
11
-0.1248
21
-7.1489
0
LINE
8
NFC_COIL
10
-0.1248
20
-7.1489
11
-0.4751
21
-7.1295
0
LINE
8
NFC_COIL
10
-0.4751
20
-7.1295
11
-0.8238
21
-7.0929
0
LINE
8
NFC_COIL
10
-0.8238
20
-7.0929
11
-1.1701
21
-7.0394
0
LINE
8
NFC_COIL
10
-1.1701
20
-7.0394
11
-1.5131
21
-6.9689
0
LINE
8
NFC_COIL
10
-1.5131
20
-6.9689
11
-1.8520
21
-6.8817
0
LINE
8
NFC_COIL
10
-1.8520
20
-6.8817
11
-2.1860
21
-6.7781
0
LINE
8
NFC_COIL
10
-2.1860
20
-6.7781
11
-2.5143
21
-6.6583
0
LINE
8
NFC_COIL
10
-2.5143
20
-6.6583
11
-2.8361
21
-6.5226
0
LINE
8
NFC_COIL
10
-2.8361
20
-6.5226
11
-3.1507
21
-6.3714
0
LINE
8
NFC_COIL
10
-3.1507
20
-6.3714
11
-3.4572
21
-6.2050
0
LINE
8
NFC_COIL
10
-3.4572
20
-6.2050
11
-3.7550
21
-6.0239
0
LINE
8
NFC_COIL
10
-3.7550
20
-6.0239
11
-4.0434
21
-5.8286
0
LINE
8
NFC_COIL
10
-4.0434
20
-5.8286
11
-4.3217
21
-5.6194
0
LINE
8
NFC_COIL
10
-4.3217
20
-5.6194
11
-4.5892
21
-5.3970
0
LINE
8
NFC_COIL
10
-4.5892
20
-5.3970
11
-4.8453
21
-5.1619
0
LINE
8
NFC_COIL
10
-4.8453
20
-5.1619
11
-5.0893
21
-4.9147
0
LINE
8
NFC_COIL
10
-5.0893
20
-4.9147
11
-5.3208
21
-4.6560
0
LINE
8
NFC_COIL
10
-5.3208
20
-4.6560
11
-5.5392
21
-4.3864
0
LINE
8
NFC_COIL
10
-5.5392
20
-4.3864
11
-5.7439
21
-4.1066
0
LINE
8
NFC_COIL
10
-5.7439
20
-4.1066
11
-5.9346
21
-3.8173
0
LINE
8
NFC_COIL
10
-5.9346
20
-3.8173
11
-6.1107
21
-3.5191
0
LINE
8
NFC_COIL
10
-6.1107
20
-3.5191
11
-6.2718
21
-3.2129
0
LINE
8
NFC_COIL
10
-6.2718
20
-3.2129
11
-6.4176
21
-2.8994
0
LINE
8
NFC_COIL
10
-6.4176
20
-2.8994
11
-6.5478
21
-2.5793
0
LINE
8
NFC_COIL
10
-6.5478
20
-2.5793
11
-6.6620
21
-2.2534
0
LINE
8
NFC_COIL
10
-6.6620
20
-2.2534
11
-6.7601
21
-1.9225
0
LINE
8
NFC_COIL
10
-6.7601
20
-1.9225
11
-6.8417
21
-1.5874
0
LINE
8
NFC_COIL
10
-6.8417
20
-1.5874
11
-6.9067
21
-1.2489
0
LINE
8
NFC_COIL
10
-6.9067
20
-1.2489
11
-6.9551
21
-0.9079
0
LINE
8
NFC_COIL
10
-6.9551
20
-0.9079
11
-6.9866
21
-0.5652
0
LINE
8
NFC_COIL
10
-6.9866
20
-0.5652
11
-7.0012
21
-0.2215
0
LINE
8
NFC_COIL
10
-7.0012
20
-0.2215
11
-6.9989
21
0.1222
0
LINE
8
NFC_COIL
10
-6.9989
20
0.1222
11
-6.9798
21
0.4651
0
LINE
8
NFC_COIL
10
-6.9798
20
0.4651
11
-6.9439
21
0.8065
0
LINE
8
NFC_COIL
10
-6.9439
20
0.8065
11
-6.8914
21
1.1455
0
LINE
8
NFC_COIL
10
-6.8914
20
1.1455
11
-6.8223
21
1.4813
0
LINE
8
NFC_COIL
10
-6.8223
20
1.4813
11
-6.7369
21
1.8130
0
LINE
8
NFC_COIL
10
-6.7369
20
1.8130
11
-6.6353
21
2.1400
0
LINE
8
NFC_COIL
10
-6.6353
20
2.1400
11
-6.5180
21
2.4613
0
LINE
8
NFC_COIL
10
-6.5180
20
2.4613
11
-6.3850
21
2.7763
0
LINE
8
NFC_COIL
10
-6.3850
20
2.7763
11
-6.2369
21
3.0842
0
LINE
8
NFC_COIL
10
-6.2369
20
3.0842
11
-6.0740
21
3.3842
0
LINE
8
NFC_COIL
10
-6.0740
20
3.3842
11
-5.8966
21
3.6757
0
LINE
8
NFC_COIL
10
-5.8966
20
3.6757
11
-5.7053
21
3.9579
0
LINE
8
NFC_COIL
10
-5.7053
20
3.9579
11
-5.5005
21
4.2302
0
LINE
8
NFC_COIL
10
-5.5005
20
4.2302
11
-5.2828
21
4.4920
0
LINE
8
NFC_COIL
10
-5.2828
20
4.4920
11
-5.0526
21
4.7426
0
LINE
8
NFC_COIL
10
-5.0526
20
4.7426
11
-4.8105
21
4.9814
0
LINE
8
NFC_COIL
10
-4.8105
20
4.9814
11
-4.5572
21
5.2079
0
LINE
8
NFC_COIL
10
-4.5572
20
5.2079
11
-4.2933
21
5.4216
0
LINE
8
NFC_COIL
10
-4.2933
20
5.4216
11
-4.0193
21
5.6219
0
LINE
8
NFC_COIL
10
-4.0193
20
5.6219
11
-3.7361
21
5.8084
0
LINE
8
NFC_COIL
10
-3.7361
20
5.8084
11
-3.4443
21
5.9807
0
LINE
8
NFC_COIL
10
-3.4443
20
5.9807
11
-3.1445
21
6.1383
0
LINE
8
NFC_COIL
10
-3.1445
20
6.1383
11
-2.8376
21
6.2809
0
LINE
8
NFC_COIL
10
-2.8376
20
6.2809
11
-2.5243
21
6.4083
0
LINE
8
NFC_COIL
10
-2.5243
20
6.4083
11
-2.2053
21
6.5200
0
LINE
8
NFC_COIL
10
-2.2053
20
6.5200
11
-1.8814
21
6.6158
0
LINE
8
NFC_COIL
10
-1.8814
20
6.6158
11
-1.5535
21
6.6956
0
LINE
8
NFC_COIL
10
-1.5535
20
6.6956
11
-1.2222
21
6.7591
0
LINE
8
NFC_COIL
10
-1.2222
20
6.7591
11
-0.8885
21
6.8063
0
LINE
8
NFC_COIL
10
-0.8885
20
6.8063
11
-0.5531
21
6.8370
0
LINE
8
NFC_COIL
10
-0.5531
20
6.8370
11
-0.2168
21
6.8513
0
LINE
8
NFC_COIL
10
-0.2168
20
6.8513
11
0.1195
21
6.8490
0
ENDSEC
0
EOF
