999
"DXF R12 Output" (www.mydxf.blogspot.com)
 0 
SECTION
 2 
HEADER
 9 
$ACADVER
 1 
AC1009
 9 
$EXTMIN
 10 
 0 
 20 
 0 
 9 
$EXTMAX
 10 
 8.5 
 20 
 11 
 0 
ENDSEC
 0 
SECTION
 2 
ENTITIES
0
POLYLINE
8
Layer 1
62
132
70
0
10
0.000000
20
0.000000
66
1
0
VERTEX
8
Layer 1
10
-20.000000
20
4.949857
70
0
0
VERTEX
8
Layer 1
10
-21.466118
20
4.730317
70
0
0
VERTEX
8
Layer 1
10
-22.777861
20
4.107202
70
0
0
VERTEX
8
Layer 1
10
-23.855527
20
3.133765
70
0
0
VERTEX
8
Layer 1
10
-24.619415
20
1.863263
70
0
0
VERTEX
8
Layer 1
10
-24.977646
20
0.424732
70
0
0
VERTEX
8
Layer 1
10
-24.903944
20
-1.025617
70
0
0
VERTEX
8
Layer 1
10
-24.417011
20
-2.393768
70
0
0
VERTEX
8
Layer 1
10
-23.535547
20
-3.585709
70
0
0
VERTEX
8
Layer 1
10
-22.343607
20
-4.467173
70
0
0
VERTEX
8
Layer 1
10
-20.975455
20
-4.954106
70
0
0
VERTEX
8
Layer 1
10
-19.525107
20
-5.027808
70
0
0
VERTEX
8
Layer 1
10
-18.086576
20
-4.669576
70
0
0
VERTEX
8
Layer 1
10
-16.816073
20
-3.905689
70
0
0
VERTEX
8
Layer 1
10
-15.842636
20
-2.828023
70
0
0
VERTEX
8
Layer 1
10
-15.219521
20
-1.516280
70
0
0
VERTEX
8
Layer 1
10
-14.999981
20
-0.050162
70
0
0
VERTEX
8
Layer 1
10
-15.101564
20
0.957516
70
0
0
VERTEX
8
Layer 1
10
-15.392908
20
1.896071
70
0
0
VERTEX
8
Layer 1
10
-15.853906
20
2.745396
70
0
0
VERTEX
8
Layer 1
10
-16.464453
20
3.485385
70
0
0
VERTEX
8
Layer 1
10
-17.204442
20
4.095932
70
0
0
VERTEX
8
Layer 1
10
-18.053767
20
4.556931
70
0
0
VERTEX
8
Layer 1
10
-18.992322
20
4.848274
70
0
0
VERTEX
8
Layer 1
10
-20.000000
20
4.949857
70
0
0
VERTEX
8
Layer 1
10
-20.000000
20
4.949857
70
0
0
SEQEND
8
Layer 1
0
POLYLINE
8
Layer 1
62
132
70
0
10
0.000000
20
0.000000
66
1
0
VERTEX
8
Layer 1
10
90.000332
20
-55.277420
70
0
0
VERTEX
8
Layer 1
10
88.534213
20
-55.496960
70
0
0
VERTEX
8
Layer 1
10
87.222470
20
-56.120075
70
0
0
VERTEX
8
Layer 1
10
86.144804
20
-57.093512
70
0
0
VERTEX
8
Layer 1
10
85.380917
20
-58.364015
70
0
0
VERTEX
8
Layer 1
10
85.022686
20
-59.802546
70
0
0
VERTEX
8
Layer 1
10
85.096387
20
-61.252894
70
0
0
VERTEX
8
Layer 1
10
85.583320
20
-62.621045
70
0
0
VERTEX
8
Layer 1
10
86.464785
20
-63.812986
70
0
0
VERTEX
8
Layer 1
10
87.656725
20
-64.694450
70
0
0
VERTEX
8
Layer 1
10
89.024876
20
-65.181383
70
0
0
VERTEX
8
Layer 1
10
90.475225
20
-65.255085
70
0
0
VERTEX
8
Layer 1
10
91.913756
20
-64.896853
70
0
0
VERTEX
8
Layer 1
10
93.184259
20
-64.132966
70
0
0
VERTEX
8
Layer 1
10
94.157695
20
-63.055300
70
0
0
VERTEX
8
Layer 1
10
94.780811
20
-61.743557
70
0
0
VERTEX
8
Layer 1
10
95.000350
20
-60.277439
70
0
0
VERTEX
8
Layer 1
10
94.903388
20
-59.297428
70
0
0
VERTEX
8
Layer 1
10
94.619746
20
-58.364015
70
0
0
VERTEX
8
Layer 1
10
94.160288
20
-57.503426
70
0
0
VERTEX
8
Layer 1
10
93.535879
20
-56.741892
70
0
0
VERTEX
8
Layer 1
10
92.774344
20
-56.117482
70
0
0
VERTEX
8
Layer 1
10
91.913756
20
-55.658024
70
0
0
VERTEX
8
Layer 1
10
90.980342
20
-55.374382
70
0
0
VERTEX
8
Layer 1
10
90.000332
20
-55.277420
70
0
0
VERTEX
8
Layer 1
10
90.000332
20
-55.277420
70
0
0
SEQEND
8
Layer 1
0
POLYLINE
8
Layer 1
62
12
70
0
10
0.000000
20
0.000000
66
1
0
VERTEX
8
Layer 1
10
-0.456002
20
-56.013901
70
0
0
VERTEX
8
Layer 1
10
-0.456002
20
-20.452871
70
0
0
VERTEX
8
Layer 1
10
-2.762486
20
-17.973527
70
0
0
VERTEX
8
Layer 1
10
-3.974740
20
-16.373454
70
0
0
VERTEX
8
Layer 1
10
-5.082846
20
-14.556112
70
0
0
VERTEX
8
Layer 1
10
-5.979189
20
-12.538751
70
0
0
VERTEX
8
Layer 1
10
-6.556151
20
-10.338619
70
0
0
VERTEX
8
Layer 1
10
-6.706116
20
-7.972966
70
0
0
VERTEX
8
Layer 1
10
-6.321467
20
-5.459040
70
0
0
VERTEX
8
Layer 1
10
-5.487648
20
-3.025398
70
0
0
VERTEX
8
Layer 1
10
-4.374416
20
-0.881321
70
0
0
VERTEX
8
Layer 1
10
-3.000620
20
0.984853
70
0
0
VERTEX
8
Layer 1
10
-1.385111
20
2.584785
70
0
0
VERTEX
8
Layer 1
10
0.453261
20
3.930138
70
0
0
VERTEX
8
Layer 1
10
2.495645
20
5.032573
70
0
0
VERTEX
8
Layer 1
10
4.723192
20
5.903753
70
0
0
VERTEX
8
Layer 1
10
7.117050
20
6.555338
70
0
0
VERTEX
8
Layer 1
10
8.616588
20
9.773755
70
0
0
VERTEX
8
Layer 1
10
9.384527
20
11.006460
70
0
0
VERTEX
8
Layer 1
10
9.906327
20
11.536315
70
0
0
VERTEX
8
Layer 1
10
10.629041
20
11.113659
70
0
0
VERTEX
8
Layer 1
10
11.836006
20
9.998660
70
0
0
VERTEX
8
Layer 1
10
14.075240
20
7.420473
70
0
0
VERTEX
8
Layer 1
10
16.350415
20
7.181844
70
0
0
VERTEX
8
Layer 1
10
18.385671
20
6.665704
70
0
0
VERTEX
8
Layer 1
10
20.319211
20
5.906327
70
0
0
VERTEX
8
Layer 1
10
22.289236
20
4.937988
70
0
0
VERTEX
8
Layer 1
10
27.500032
20
5.785805
70
0
0
VERTEX
8
Layer 1
10
29.711960
20
5.938219
70
0
0
VERTEX
8
Layer 1
10
30.809854
20
5.787105
70
0
0
VERTEX
8
Layer 1
10
30.881861
20
5.408589
70
0
0
VERTEX
8
Layer 1
10
30.778496
20
4.685608
70
0
0
VERTEX
8
Layer 1
10
30.194774
20
2.581202
70
0
0
VERTEX
8
Layer 1
10
28.563239
20
-1.636741
70
0
0
VERTEX
8
Layer 1
10
29.228468
20
-1.572590
70
0
0
VERTEX
8
Layer 1
10
30.948467
20
-1.549698
70
0
0
VERTEX
8
Layer 1
10
33.309702
20
-1.822411
70
0
0
VERTEX
8
Layer 1
10
34.601554
20
-2.149101
70
0
0
VERTEX
8
Layer 1
10
35.898641
20
-2.645071
70
0
0
VERTEX
8
Layer 1
10
38.024295
20
-3.888663
70
0
0
VERTEX
8
Layer 1
10
39.992793
20
-5.331597
70
0
0
VERTEX
8
Layer 1
10
41.703839
20
-6.544255
70
0
0
VERTEX
8
Layer 1
10
42.431476
20
-6.929975
70
0
0
VERTEX
8
Layer 1
10
43.057140
20
-7.097018
70
0
0
VERTEX
8
Layer 1
10
44.132755
20
-6.975455
70
0
0
VERTEX
8
Layer 1
10
45.109745
20
-6.546852
70
0
0
VERTEX
8
Layer 1
10
46.960706
20
-5.339823
70
0
0
VERTEX
8
Layer 1
10
48.403343
20
-4.665833
70
0
0
VERTEX
8
Layer 1
10
50.141627
20
-4.180798
70
0
0
VERTEX
8
Layer 1
10
54.312464
20
-3.568640
70
0
0
VERTEX
8
Layer 1
10
56.847461
20
-3.613525
70
0
0
VERTEX
8
Layer 1
10
59.735239
20
-4.114637
70
0
0
VERTEX
8
Layer 1
10
62.642142
20
-4.911356
70
0
0
VERTEX
8
Layer 1
10
65.234514
20
-5.843065
70
0
0
VERTEX
8
Layer 1
10
66.732219
20
-6.568774
70
0
0
VERTEX
8
Layer 1
10
68.069888
20
-7.412146
70
0
0
VERTEX
8
Layer 1
10
70.500022
20
-9.249273
70
0
0
VERTEX
8
Layer 1
10
72.947935
20
-11.091585
70
0
0
VERTEX
8
Layer 1
10
75.022082
20
-12.777936
70
0
0
VERTEX
8
Layer 1
10
77.060669
20
-14.895351
70
0
0
VERTEX
8
Layer 1
10
79.401903
20
-18.030855
70
0
0
VERTEX
8
Layer 1
10
80.349250
20
-19.611001
70
0
0
VERTEX
8
Layer 1
10
81.229442
20
-21.435505
70
0
0
VERTEX
8
Layer 1
10
82.744539
20
-25.608096
70
0
0
VERTEX
8
Layer 1
10
83.859546
20
-30.129650
70
0
0
VERTEX
8
Layer 1
10
84.486815
20
-34.581190
70
0
0
VERTEX
8
Layer 1
10
84.540889
20
-38.554639
70
0
0
VERTEX
8
Layer 1
10
84.130904
20
-42.585534
70
0
0
VERTEX
8
Layer 1
10
83.356386
20
-46.405783
70
0
0
VERTEX
8
Layer 1
10
82.316858
20
-49.747295
70
0
0
VERTEX
8
Layer 1
10
81.469743
20
-51.651732
70
0
0
VERTEX
8
Layer 1
10
80.415447
20
-53.456891
70
0
0
VERTEX
8
Layer 1
10
79.173037
20
-55.150944
70
0
0
VERTEX
8
Layer 1
10
77.761581
20
-56.722058
70
0
0
VERTEX
8
Layer 1
10
76.200146
20
-58.158405
70
0
0
VERTEX
8
Layer 1
10
74.507801
20
-59.448155
70
0
0
VERTEX
8
Layer 1
10
72.703612
20
-60.579477
70
0
0
VERTEX
8
Layer 1
10
70.806648
20
-61.540541
70
0
0
VERTEX
8
Layer 1
10
68.908307
20
-62.308534
70
0
0
VERTEX
8
Layer 1
10
67.001117
20
-62.905871
70
0
0
VERTEX
8
Layer 1
10
65.080184
20
-63.332597
70
0
0
VERTEX
8
Layer 1
10
63.140612
20
-63.588755
70
0
0
VERTEX
8
Layer 1
10
61.177506
20
-63.674387
70
0
0
VERTEX
8
Layer 1
10
59.185973
20
-63.589538
70
0
0
VERTEX
8
Layer 1
10
57.161117
20
-63.334248
70
0
0
VERTEX
8
Layer 1
10
55.098044
20
-62.908563
70
0
0
VERTEX
8
Layer 1
10
51.910154
20
-62.007535
70
0
0
VERTEX
8
Layer 1
10
49.380363
20
-61.080041
70
0
0
VERTEX
8
Layer 1
10
45.661645
20
-59.297330
70
0
0
VERTEX
8
Layer 1
10
42.675009
20
-57.863769
70
0
0
VERTEX
8
Layer 1
10
41.060323
20
-57.372714
70
0
0
VERTEX
8
Layer 1
10
39.153577
20
-57.082700
70
0
0
VERTEX
8
Layer 1
10
37.523294
20
-57.031803
70
0
0
VERTEX
8
Layer 1
10
35.848704
20
-57.137886
70
0
0
VERTEX
8
Layer 1
10
32.547103
20
-57.767915
70
0
0
VERTEX
8
Layer 1
10
29.609778
20
-58.866627
70
0
0
VERTEX
8
Layer 1
10
28.390534
20
-59.558565
70
0
0
VERTEX
8
Layer 1
10
27.397736
20
-60.327865
70
0
0
VERTEX
8
Layer 1
10
28.162271
20
-68.074002
70
0
0
VERTEX
8
Layer 1
10
27.072460
20
-68.836832
70
0
0
VERTEX
8
Layer 1
10
25.840965
20
-69.390690
70
0
0
VERTEX
8
Layer 1
10
24.499728
20
-69.760568
70
0
0
VERTEX
8
Layer 1
10
23.080687
20
-69.971461
70
0
0
VERTEX
8
Layer 1
10
20.136961
20
-70.016266
70
0
0
VERTEX
8
Layer 1
10
17.265312
20
-69.725052
70
0
0
VERTEX
8
Layer 1
10
15.579795
20
-69.394882
70
0
0
VERTEX
8
Layer 1
10
13.864369
20
-68.895854
70
0
0
VERTEX
8
Layer 1
10
10.478895
20
-67.498107
70
0
0
VERTEX
8
Layer 1
10
7.379110
20
-65.745573
70
0
0
VERTEX
8
Layer 1
10
4.835231
20
-63.852015
70
0
0
VERTEX
8
Layer 1
10
2.601361
20
-61.326978
70
0
0
VERTEX
8
Layer 1
10
0.949270
20
-59.048129
70
0
0
VERTEX
8
Layer 1
10
-0.082649
20
-57.211695
70
0
0
VERTEX
8
Layer 1
10
-0.456002
20
-56.013901
70
0
0
VERTEX
8
Layer 1
10
-0.456002
20
-56.013901
70
0
0
SEQEND
8
Layer 1
 0 
ENDSEC
 0 
EOF